<svg width="100" height="47" viewBox="0 0 100 47" fill="none" xmlns="http://www.w3.org/2000/svg">
<path d="M33.8994 43.3057C33.8994 44.3437 33.8999 45.0107 35.1045 45.0107C36.3082 45.0106 36.3252 44.3356 36.3252 43.3057V40.2988H37.8271V44.04C37.827 45.5435 36.8696 46.3622 35.1045 46.3623C33.3474 46.3623 32.3976 45.5436 32.3975 44.04V40.2988H33.8994V43.3057ZM64.9111 43.3057C64.9111 44.3437 64.9117 45.0107 66.1162 45.0107C67.3211 45.0107 67.3369 44.3357 67.3369 43.3057V40.2988H68.8379V44.04C68.8377 45.5435 67.8815 46.3623 66.1162 46.3623C64.3591 46.3623 63.4103 45.5436 63.4102 44.04V40.2988H64.9111V43.3057ZM18.084 42.6885H20.6328V40.2988H22.1436V46.2529H20.6328V44.04H18.084V46.2529H16.583V40.2988H18.084V42.6885ZM50.6475 40.2988C51.9677 40.2988 53.2549 40.5695 53.2549 41.8779C53.2548 42.8319 52.636 43.2467 52.0332 43.3818H52.2402C53.04 43.3819 53.3202 43.8967 53.3203 44.4453V46.2529H51.8271V44.2334H49.5908V46.2529H48.082V40.2988H50.6475ZM83.417 41.6328H80.6045V43.0176H83.2607V44.3018H80.6045V46.2529H79.0947V40.2988H83.417V41.6328ZM49.5908 42.9004H50.6475C51.3159 42.9004 51.7606 42.8749 51.7607 42.2754C51.7607 41.6588 51.2827 41.6416 50.6475 41.6416H49.5908V42.9004ZM61.9043 34.9893H53.5254L63.4434 21.6865H71.2861L61.9043 34.9893ZM59.1436 21.6797L54.1387 28.3379L48.8779 34.9814H40.5L46.7109 27.8311C45.3592 27.3786 44.1277 26.5697 43.0166 25.4053C42.5883 24.9669 42.213 24.5153 41.9053 24.0498C40.7545 22.4334 40.1924 20.6247 40.1924 18.625V18.0898C40.1924 15.5147 41.1428 13.2541 43.0566 11.3086C44.9569 9.34999 47.1654 8.37696 49.6816 8.37695H59.1436V21.6797ZM27.7754 8.37695C30.2873 8.37706 32.4974 9.35329 34.4043 11.3037C36.3095 13.2558 37.2636 15.5179 37.2637 18.0889V21.0947H30.7646V18.2891C30.7646 17.3574 30.4394 16.5822 29.7891 15.9609C29.1401 15.3407 28.3603 15.0293 27.4502 15.0293C26.6264 15.0293 25.8901 15.3617 25.2402 16.0273C24.5901 16.692 24.2656 17.4473 24.2656 18.2891V21.6777H30.7393V28.3301H24.2656V28.3379H17.7666V28.3301H0L4.76953 21.6777H17.7666V18.0889C17.7666 15.4732 18.7191 13.2001 20.626 11.2705C22.5321 9.34133 24.7418 8.37695 27.2549 8.37695H27.7754ZM100 18.625C100 21.2412 99.0499 23.5158 97.1631 25.4473C95.2761 27.3652 93.0667 28.3379 90.5107 28.3379H70.3936L74.9336 21.708C79.9122 21.694 76.257 21.6797 76.9932 21.6797H90.3105C91.1804 21.6796 91.9298 21.3648 92.5586 20.7207C93.1745 20.0771 93.495 19.3102 93.4951 18.4199V15.2275H100V18.625ZM49.8691 15.0352C48.959 15.0352 48.2093 15.3638 47.5938 16.0215C46.9914 16.6927 46.6836 17.4874 46.6836 18.4189C46.6836 19.2682 47.0182 20.022 47.6602 20.6797C48.3159 21.351 49.0526 21.6797 49.8691 21.6797C50.3238 21.6932 50.8059 21.6797 51.3008 21.6797H52.6387V15.0352H49.8691ZM92.2539 8.37695C92.8212 8.37705 93.2811 8.84803 93.2812 9.42871V13.9697C93.2812 14.5505 92.8213 15.0214 92.2539 15.0215H81.4775C80.9101 15.0215 80.4502 14.5506 80.4502 13.9697V9.42871C80.4504 8.84799 80.9102 8.37697 81.4775 8.37695H92.2539ZM30.7578 1.37012C30.7578 1.87726 30.7711 2.37039 30.7578 2.83594C30.7578 3.67174 30.4361 4.42542 29.7803 5.09668C29.1378 5.75376 28.4019 6.09666 27.5723 6.09668C26.6621 6.09668 25.8853 5.78161 25.2295 5.16504C24.5875 4.53494 24.2666 3.7675 24.2666 2.83594V0H30.7578V1.37012Z" fill="#E96205"/>
</svg>
