<svg width="42" height="42" viewBox="0 0 42 42" fill="none" xmlns="http://www.w3.org/2000/svg">
<g clip-path="url(#clip0_476_706)">
<mask id="mask0_476_706" style="mask-type:luminance" maskUnits="userSpaceOnUse" x="0" y="0" width="42" height="42">
<rect width="42" height="42" fill="white"/>
</mask>
<g mask="url(#mask0_476_706)">
<path fill-rule="evenodd" clip-rule="evenodd" d="M0 0H42V42H0V0Z" fill="#E31D1C"/>
<path fill-rule="evenodd" clip-rule="evenodd" d="M19.7081 7.95948L18.3823 9.02669L18.6847 6.94414L17.5806 5.38555L19.0756 5.30128L19.7081 3.35669L20.3406 5.30128H21.8331L20.7315 6.94414L21.0632 9.02669L19.7081 7.95948Z" fill="#FECA00"/>
<path fill-rule="evenodd" clip-rule="evenodd" d="M9.21047 16.8126L5.42938 19.5267L6.29182 14.2303L3.1431 10.2665L7.40665 10.0522L9.21047 5.10669L11.0143 10.0522H15.2706L12.1291 14.2303L13.0749 19.5267L9.21047 16.8126Z" fill="#FECA00"/>
<path fill-rule="evenodd" clip-rule="evenodd" d="M22.3331 14.9595L21.0073 16.0267L21.3097 13.9441L20.2056 12.3856L21.7006 12.3013L22.3331 10.3567L22.9656 12.3013H24.4581L23.3565 13.9441L23.6882 16.0267L22.3331 14.9595Z" fill="#FECA00"/>
<path fill-rule="evenodd" clip-rule="evenodd" d="M21.0206 21.9595L19.6948 23.0267L19.9972 20.9441L18.8931 19.3856L20.3881 19.3013L21.0206 17.3567L21.6531 19.3013H23.1456L22.044 20.9441L22.3757 23.0267L21.0206 21.9595Z" fill="#FECA00"/>
<path fill-rule="evenodd" clip-rule="evenodd" d="M17.0831 27.2095L15.7573 28.2767L16.0597 26.1941L14.9556 24.6356L16.4506 24.5513L17.0831 22.6067L17.7156 24.5513H19.2081L18.1065 26.1941L18.4382 28.2767L17.0831 27.2095Z" fill="#FECA00"/>
</g>
</g>
<rect width="42" height="42" rx="21" fill="url(#paint0_linear_476_706)" style="mix-blend-mode:overlay"/>
<rect width="42" height="42" rx="21" fill="url(#paint1_linear_476_706)" style="mix-blend-mode:overlay"/>
<defs>
<linearGradient id="paint0_linear_476_706" x1="21" y1="0" x2="21" y2="42" gradientUnits="userSpaceOnUse">
<stop stop-color="white" stop-opacity="0.7"/>
<stop offset="1" stop-opacity="0.3"/>
</linearGradient>
<linearGradient id="paint1_linear_476_706" x1="42" y1="2.08728e-06" x2="-7.85163" y2="28.0415" gradientUnits="userSpaceOnUse">
<stop stop-color="white" stop-opacity="0.3"/>
<stop offset="0.262741" stop-opacity="0.27"/>
<stop offset="0.369956" stop-color="white" stop-opacity="0.26"/>
<stop offset="0.487001" stop-opacity="0.55"/>
<stop offset="0.594445" stop-opacity="0.24"/>
<stop offset="0.736408" stop-color="white" stop-opacity="0.3"/>
<stop offset="0.901459" stop-color="#272727" stop-opacity="0.22"/>
<stop offset="1" stop-opacity="0.2"/>
</linearGradient>
<clipPath id="clip0_476_706">
<rect width="42" height="42" rx="21" fill="white"/>
</clipPath>
</defs>
</svg>
