<svg width="42" height="42" viewBox="0 0 42 42" fill="none" xmlns="http://www.w3.org/2000/svg">
<g clip-path="url(#clip0_476_707)">
<mask id="mask0_476_707" style="mask-type:luminance" maskUnits="userSpaceOnUse" x="0" y="0" width="42" height="42">
<rect width="42" height="42" fill="white"/>
</mask>
<g mask="url(#mask0_476_707)">
<path fill-rule="evenodd" clip-rule="evenodd" d="M0 0H42V42H0V0Z" fill="#F7FCFF"/>
<path fill-rule="evenodd" clip-rule="evenodd" d="M0 25.6665V29.1665H42V25.6665H0Z" fill="#E31D1C"/>
<path fill-rule="evenodd" clip-rule="evenodd" d="M0 32.0835V35.5835H42V32.0835H0Z" fill="#E31D1C"/>
<path fill-rule="evenodd" clip-rule="evenodd" d="M0 12.8335V16.3335H42V12.8335H0Z" fill="#E31D1C"/>
<path fill-rule="evenodd" clip-rule="evenodd" d="M0 38.5V42H42V38.5H0Z" fill="#E31D1C"/>
<path fill-rule="evenodd" clip-rule="evenodd" d="M0 19.25V22.75H42V19.25H0Z" fill="#E31D1C"/>
<path fill-rule="evenodd" clip-rule="evenodd" d="M0 0V3.5H42V0H0Z" fill="#E31D1C"/>
<path fill-rule="evenodd" clip-rule="evenodd" d="M0 6.4165V9.9165H42V6.4165H0Z" fill="#E31D1C"/>
<rect width="26.25" height="22.75" fill="#2E42A5"/>
<path d="M2.6933 17.4438H3.63568L2.89545 18.4487L3.18158 20.0337L2.2597 19.1431L1.30756 20.0337L1.62885 18.4487L0.783142 17.4438H1.88763L2.25873 16.1509L2.6933 17.4438ZM7.9433 17.4438H8.88568L8.14545 18.4487L8.43158 20.0337L7.5097 19.1431L6.55756 20.0337L6.87885 18.4487L6.03314 17.4438H7.13763L7.50873 16.1509L7.9433 17.4438ZM13.1933 17.4438H14.1357L13.3954 18.4487L13.6816 20.0337L12.7597 19.1431L11.8076 20.0337L12.1288 18.4487L11.2831 17.4438H12.3876L12.7587 16.1509L13.1933 17.4438ZM18.4433 17.4438H19.3857L18.6454 18.4487L18.9316 20.0337L18.0097 19.1431L17.0576 20.0337L17.3788 18.4487L16.5331 17.4438H17.6376L18.0087 16.1509L18.4433 17.4438ZM23.6933 17.4438H24.6357L23.8954 18.4487L24.1816 20.0337L23.2597 19.1431L22.3076 20.0337L22.6288 18.4487L21.7831 17.4438H22.8876L23.2587 16.1509L23.6933 17.4438ZM5.3183 13.9438H6.26068L5.52045 14.9487L5.80658 16.5337L4.8847 15.6431L3.93256 16.5337L4.25385 14.9487L3.40814 13.9438H4.51263L4.88373 12.6509L5.3183 13.9438ZM10.5683 13.9438H11.5107L10.7704 14.9487L11.0566 16.5337L10.1347 15.6431L9.18256 16.5337L9.50385 14.9487L8.65814 13.9438H9.76263L10.1337 12.6509L10.5683 13.9438ZM15.8183 13.9438H16.7607L16.0204 14.9487L16.3066 16.5337L15.3847 15.6431L14.4326 16.5337L14.7538 14.9487L13.9081 13.9438H15.0126L15.3837 12.6509L15.8183 13.9438ZM21.0683 13.9438H22.0107L21.2704 14.9487L21.5566 16.5337L20.6347 15.6431L19.6826 16.5337L20.0038 14.9487L19.1581 13.9438H20.2626L20.6337 12.6509L21.0683 13.9438ZM2.6933 10.4438H3.63568L2.89545 11.4487L3.18158 13.0337L2.2597 12.1431L1.30756 13.0337L1.62885 11.4487L0.783142 10.4438H1.88763L2.25873 9.15088L2.6933 10.4438ZM7.9433 10.4438H8.88568L8.14545 11.4487L8.43158 13.0337L7.5097 12.1431L6.55756 13.0337L6.87885 11.4487L6.03314 10.4438H7.13763L7.50873 9.15088L7.9433 10.4438ZM13.1933 10.4438H14.1357L13.3954 11.4487L13.6816 13.0337L12.7597 12.1431L11.8076 13.0337L12.1288 11.4487L11.2831 10.4438H12.3876L12.7587 9.15088L13.1933 10.4438ZM18.4433 10.4438H19.3857L18.6454 11.4487L18.9316 13.0337L18.0097 12.1431L17.0576 13.0337L17.3788 11.4487L16.5331 10.4438H17.6376L18.0087 9.15088L18.4433 10.4438ZM23.6933 10.4438H24.6357L23.8954 11.4487L24.1816 13.0337L23.2597 12.1431L22.3076 13.0337L22.6288 11.4487L21.7831 10.4438H22.8876L23.2587 9.15088L23.6933 10.4438ZM5.3183 6.94385H6.26068L5.52045 7.94873L5.80658 9.53369L4.8847 8.64307L3.93256 9.53369L4.25385 7.94873L3.40814 6.94385H4.51263L4.88373 5.65088L5.3183 6.94385ZM10.5683 6.94385H11.5107L10.7704 7.94873L11.0566 9.53369L10.1347 8.64307L9.18256 9.53369L9.50385 7.94873L8.65814 6.94385H9.76263L10.1337 5.65088L10.5683 6.94385ZM15.8183 6.94385H16.7607L16.0204 7.94873L16.3066 9.53369L15.3847 8.64307L14.4326 9.53369L14.7538 7.94873L13.9081 6.94385H15.0126L15.3837 5.65088L15.8183 6.94385ZM21.0683 6.94385H22.0107L21.2704 7.94873L21.5566 9.53369L20.6347 8.64307L19.6826 9.53369L20.0038 7.94873L19.1581 6.94385H20.2626L20.6337 5.65088L21.0683 6.94385ZM2.6933 3.44385H3.63568L2.89545 4.44873L3.18158 6.03369L2.2597 5.14307L1.30756 6.03369L1.62885 4.44873L0.783142 3.44385H1.88763L2.25873 2.15088L2.6933 3.44385ZM7.9433 3.44385H8.88568L8.14545 4.44873L8.43158 6.03369L7.5097 5.14307L6.55756 6.03369L6.87885 4.44873L6.03314 3.44385H7.13763L7.50873 2.15088L7.9433 3.44385ZM13.1933 3.44385H14.1357L13.3954 4.44873L13.6816 6.03369L12.7597 5.14307L11.8076 6.03369L12.1288 4.44873L11.2831 3.44385H12.3876L12.7587 2.15088L13.1933 3.44385ZM18.4433 3.44385H19.3857L18.6454 4.44873L18.9316 6.03369L18.0097 5.14307L17.0576 6.03369L17.3788 4.44873L16.5331 3.44385H17.6376L18.0087 2.15088L18.4433 3.44385ZM23.6933 3.44385H24.6357L23.8954 4.44873L24.1816 6.03369L23.2597 5.14307L22.3076 6.03369L22.6288 4.44873L21.7831 3.44385H22.8876L23.2587 2.15088L23.6933 3.44385Z" fill="#F7FCFF"/>
</g>
</g>
<rect width="42" height="42" rx="21" fill="url(#paint0_linear_476_707)" style="mix-blend-mode:overlay"/>
<rect width="42" height="42" rx="21" fill="url(#paint1_linear_476_707)" style="mix-blend-mode:overlay"/>
<defs>
<linearGradient id="paint0_linear_476_707" x1="21" y1="0" x2="21" y2="42" gradientUnits="userSpaceOnUse">
<stop stop-color="white" stop-opacity="0.7"/>
<stop offset="1" stop-opacity="0.3"/>
</linearGradient>
<linearGradient id="paint1_linear_476_707" x1="42" y1="2.08728e-06" x2="-7.85163" y2="28.0415" gradientUnits="userSpaceOnUse">
<stop stop-color="white" stop-opacity="0.3"/>
<stop offset="0.262741" stop-opacity="0.27"/>
<stop offset="0.369956" stop-color="white" stop-opacity="0.26"/>
<stop offset="0.487001" stop-opacity="0.55"/>
<stop offset="0.594445" stop-opacity="0.24"/>
<stop offset="0.736408" stop-color="white" stop-opacity="0.3"/>
<stop offset="0.901459" stop-color="#272727" stop-opacity="0.22"/>
<stop offset="1" stop-opacity="0.2"/>
</linearGradient>
<clipPath id="clip0_476_707">
<rect width="42" height="42" rx="21" fill="white"/>
</clipPath>
</defs>
</svg>
