<svg width="73" height="74" viewBox="0 0 73 74" fill="none" xmlns="http://www.w3.org/2000/svg">
<g clip-path="url(#clip0_476_868)">
<path d="M44.0297 49.6902C41.1143 49.8207 41.4346 48.32 43.125 45.994C47.0755 40.6949 54.5702 33.3025 54.7881 28.0677C55.2834 21.2597 48.4093 19.0064 41.3389 19.0724C36.735 19.2585 32.1901 20.1763 27.8747 21.7913C15.8831 26.0125 8.36033 32.7841 3.62907 40.2805C-1.401 47.7092 0.25313 54.7946 10.8613 55.0356C18.9966 54.7054 24.2825 52.4554 29.8144 49.6341C29.8144 49.6341 14.5707 54.0088 8.95793 50.7897C8.56983 50.5985 8.23889 50.3085 7.99837 49.9489C7.75785 49.5893 7.61624 49.1727 7.58775 48.741C7.58775 46.0881 11.9624 43.3395 14.4337 42.4563V37.8588C17.1379 38.9062 20.0737 39.2085 22.9345 38.734C25.7954 38.2595 28.4764 37.0257 30.6976 35.1613C30.806 35.5972 30.8378 36.0485 30.7917 36.4952H31.8994C31.9786 35.7514 31.7953 35.0033 31.3811 34.3805C31.0858 33.9171 30.6818 33.5327 30.2042 33.2609C29.7267 32.989 29.19 32.8378 28.6407 32.8205C29.2889 33.1325 29.8389 33.6168 30.2305 34.2204C28.3208 35.8208 26.0393 36.9152 23.596 37.4031C21.1526 37.8909 18.6258 37.7564 16.248 37.0119L19.893 33.4115L18.8876 30.7949C26.4766 27.9968 34.3078 25.9057 42.2815 24.5482L40.043 22.7191L41.2101 21.9894C47.2323 23.6584 51.2042 24.9048 50.95 28.0974C50.8232 28.7295 50.6197 29.3438 50.3441 29.9266C48.5942 33.3933 43.3743 39.1844 41.2646 41.5896C39.9176 43.0648 38.6706 44.6283 37.5321 46.2697C36.5837 47.5062 36.0107 48.9892 35.8812 50.5421C36.005 61.0463 66.8491 45.6358 72.8118 41.5467C64.0047 45.3172 54.5058 49.0134 44.0297 49.6902Z" fill="white"/>
</g>
<defs>
<clipPath id="clip0_476_868">
<rect width="71.9248" height="35.9632" fill="white" transform="translate(0.902069 19.0725)"/>
</clipPath>
</defs>
</svg>
