<svg width="73" height="74" viewBox="0 0 73 74" fill="none" xmlns="http://www.w3.org/2000/svg">
<path d="M39.4086 28.2858C34.8601 28.454 23.5775 29.7335 23.5775 39.2603C23.5775 49.4875 36.4946 49.9078 40.7162 43.2951C41.3233 44.2478 44.0226 46.7976 44.9472 47.6662L50.2523 42.4358C50.2523 42.4358 47.2355 40.0728 47.2355 37.5043V23.7653C47.2355 21.4023 44.9472 16.0786 36.7468 16.0786C28.5276 16.0786 24.1659 21.2155 24.1659 25.8201L31.0307 26.4552C32.5531 21.8319 36.093 21.8319 36.093 21.8319C39.8943 21.8226 39.4086 24.6152 39.4086 28.2858ZM39.4086 36.3929C39.4086 43.8648 31.5444 42.744 31.5444 37.9994C31.5444 33.5909 36.2611 32.7036 39.4086 32.6009V36.3929ZM52.1109 51.6637C51.3918 52.5977 45.573 57.9214 35.8128 57.9214C26.0525 57.9214 18.5806 51.2434 16.2923 48.4881C15.6572 47.7689 16.3857 47.4327 16.806 47.7129C23.6522 51.8692 34.3464 58.7153 51.5973 50.5429C52.2977 50.1973 52.8395 50.7297 52.1109 51.6637ZM55.8282 51.8692C55.2211 53.3449 54.3338 54.3723 53.8482 54.7645C53.3345 55.1848 52.9609 55.0167 53.2411 54.4096C53.5213 53.8025 55.0437 50.0665 54.4272 49.2727C53.8202 48.4974 50.9715 48.871 49.9441 48.9738C48.9354 49.0672 48.7299 49.1606 48.6365 48.9458C48.4217 48.4134 50.6633 47.4981 52.139 47.3113C53.6053 47.1431 55.9683 47.2365 56.4353 47.8436C56.7809 48.32 56.4353 50.3748 55.8282 51.8692Z" fill="white"/>
</svg>
