<svg width="73" height="74" viewBox="0 0 73 74" fill="none" xmlns="http://www.w3.org/2000/svg">
<g clip-path="url(#clip0_476_902)">
<path d="M66.0558 40.2126L72.064 33.4605H65.03L62.5839 36.256L60.0477 33.4605H46.6674V31.6569H52.9912V26.2349H35.9474V34.7455H35.8911C34.8089 33.5056 33.4675 33.0772 31.9007 33.0772C28.6993 33.0772 26.287 35.2641 25.4416 38.1385C23.4126 31.4427 14.4624 31.6456 11.7006 36.5604V33.8325H5.52341V30.8791H12.2868V26.2462H-3.05176e-05V47.0324H5.52341V38.2963H11.0356C10.8665 38.9388 10.7763 39.6264 10.7763 40.3479C10.7763 48.5879 22.3417 50.6508 25.4529 43.0194H20.7185C19.0615 45.3753 15.5558 44.0227 15.5558 41.3737H25.1936C25.6107 44.8117 28.2822 47.7876 31.9683 47.7876C33.5577 47.7876 35.0118 47.0098 35.9023 45.691H35.9587V47.0324H59.8786L62.3698 44.2143L64.8835 47.0324H72.1429L66.0558 40.2126ZM15.7023 38.3414C16.3899 35.3768 20.4029 35.4557 20.944 38.3414H15.7023ZM32.9941 43.8536C29.0938 43.8536 29.1615 36.7745 32.9941 36.7745C36.6688 36.7745 36.883 43.8536 32.9941 43.8536ZM51.909 46.0066H41.268V27.2382H51.9767V30.6424H45.6529V34.4637H51.909V37.6312H45.5853V42.67H51.909V46.0066ZM46.735 41.5202V38.7698H53.0588V33.8099L58.7739 40.2352L53.0588 46.6604V41.5202H46.735ZM62.3585 42.6812L59.4164 46.0066H55.1216L60.2618 40.2352L55.1216 34.4637H59.5968L62.5952 37.7665L65.4809 34.4637H69.8208L64.7031 40.2126L69.8884 46.0066H65.3231L62.3585 42.6812Z" fill="white"/>
</g>
<defs>
<clipPath id="clip0_476_902">
<rect width="72.1429" height="57.7143" fill="white" transform="translate(-3.05176e-05 8.14282)"/>
</clipPath>
</defs>
</svg>
