<svg width="73" height="74" viewBox="0 0 73 74" fill="none" xmlns="http://www.w3.org/2000/svg">
<g clip-path="url(#clip0_476_864)">
<path d="M68.3374 30.8956C67.0712 30.8956 65.9218 31.3075 65.0404 32.0658L64.7865 31.167H62.5518V42.4667H65.3926V36.327C65.3926 35.0202 66.2686 33.696 67.9411 33.696C69.2498 33.696 70.0292 34.6179 70.0292 36.1596V42.4687H72.87V35.9517C72.87 32.88 71.0918 30.8956 68.3374 30.8956ZM45.6324 36.8082C45.6324 38.6116 44.4562 39.9204 42.8338 39.9204C41.2113 39.9204 40.0353 38.6116 40.0353 36.8082C40.0353 35.0048 41.2113 33.696 42.8338 33.696C44.4541 33.696 45.6324 35.0048 45.6324 36.8082ZM42.8318 30.8956C39.6465 30.8956 37.1502 33.492 37.1502 36.8063C37.1502 40.1205 39.6446 42.7188 42.8318 42.7188C46.0171 42.7188 48.5136 40.1225 48.5136 36.8063C48.5136 33.492 46.0192 30.8956 42.8318 30.8956ZM58.0465 36.8082C58.0465 38.6116 56.8683 39.9204 55.2479 39.9204C53.6275 39.9204 52.4492 38.6116 52.4492 36.8082C52.4492 35.0048 53.6275 33.696 55.2479 33.696C56.8703 33.696 58.0465 35.0048 58.0465 36.8082ZM55.2479 30.8956C52.0624 30.8956 49.5663 33.492 49.5663 36.8063C49.5663 40.1205 52.0607 42.7188 55.2479 42.7188C58.4333 42.7188 60.9294 40.1225 60.9294 36.8063C60.9294 33.492 58.435 30.8956 55.2479 30.8956ZM30.9971 30.8956C29.7326 30.8956 28.5816 31.3075 27.6982 32.0658L27.4441 31.167H25.2115V42.4667H28.0523V36.327C28.0523 35.0202 28.9281 33.696 30.6006 33.696C31.9094 33.696 32.6888 34.6179 32.6888 36.1596V42.4687H35.5296V35.9517C35.5296 32.88 33.7513 30.8956 30.9971 30.8956Z" fill="white"/>
<path d="M1.57858 37.2778C1.57858 42.5899 6.09386 46.7164 11.3424 46.7164C16.8373 46.7164 21.291 42.2839 21.291 36.8698C21.291 33.7037 19.759 30.9245 17.4917 29.0672L15.8365 31.9273C17.2049 33.0917 18.1442 34.8893 18.1442 36.9121C18.1442 40.5883 15.1013 43.6119 11.3424 43.6119C7.60469 43.6119 4.55989 40.5883 4.55989 36.8101C4.55989 36.3598 4.60031 35.9113 4.68307 35.4821L1.57858 37.2778ZM14.4065 27.3908C13.4672 27.0424 12.63 26.9 11.7928 26.9C11.1596 26.9 10.6072 26.9809 10.1991 27.0636L8.07434 30.7397C8.84999 30.2913 9.85079 30.0449 10.9344 30.0449C11.5676 30.0449 12.1392 30.1258 12.732 30.2894L14.4065 27.3908Z" fill="white"/>
</g>
<defs>
<clipPath id="clip0_476_864">
<rect width="71.4214" height="19.8164" fill="white" transform="translate(1.57858 26.9)"/>
</clipPath>
</defs>
</svg>
