<svg width="73" height="74" viewBox="0 0 73 74" fill="none" xmlns="http://www.w3.org/2000/svg">
<path d="M25.5638 35.6324C26.0909 35.0175 26.7691 34.446 27.6003 34.3407C28.1141 34.262 28.637 34.505 28.9495 34.9107C29.3994 35.4892 29.516 36.2493 29.5125 36.9627C29.4535 39.1887 30.5831 41.3825 32.3886 42.6748C31.874 43.2387 31.3757 43.817 30.8715 44.3898C28.6841 42.7591 27.3019 40.1077 27.219 37.3796C27.1896 37.2 27.2781 36.9677 27.1081 36.8398C26.934 37.1009 26.8246 37.3972 26.6912 37.6795C26.0945 38.9627 25.4206 40.2116 24.6526 41.4001C23.8467 42.526 22.7944 43.5264 21.4921 44.0452C20.8456 44.2923 20.1394 44.4412 19.4472 44.3415C18.4364 44.102 17.5273 43.4892 16.9144 42.6524C16.3717 41.9153 16.0375 41.0358 15.9 40.1336C15.5209 38.328 15.6761 36.4719 15.803 34.6482C16.536 34.6412 17.2689 34.677 18.0019 34.6755C17.9162 35.4604 17.8515 36.2493 17.8628 37.0398C17.8558 38.0263 17.8901 39.0175 18.0698 39.9891C18.2026 40.5907 18.4903 41.188 18.9987 41.5587C19.4445 41.895 20.0474 41.9573 20.5809 41.8394C21.1671 41.7145 21.6781 41.3643 22.1042 40.9544C22.6461 40.4249 23.0758 39.7904 23.4283 39.1228C23.6346 38.6811 23.8959 38.2691 24.1338 37.845C24.5802 37.089 24.9719 36.2902 25.5638 35.6324Z" fill="white"/>
<path d="M50.0144 38.102C50.0784 38.1539 50.1506 38.1911 50.2313 38.2122C51.2282 38.5183 52.2237 38.8265 53.2186 39.1388C53.2849 38.6734 53.3076 38.2037 53.3574 37.737C52.2433 37.8619 51.1285 37.9805 50.0144 38.102ZM47.9765 37.084C50.9986 36.293 54.0199 35.5025 57.0435 34.7176C57.0577 35.5733 57.1187 36.4269 57.1341 37.2827C56.5978 37.3636 56.058 37.4197 55.526 37.5194C55.4466 37.666 55.4903 37.8632 55.4634 38.0297C55.4044 38.613 55.3894 39.1992 55.3207 39.7819C55.8616 39.951 56.4025 40.1175 56.9434 40.2853C56.7152 41.1311 56.4965 41.9791 56.274 42.8258C53.5028 41.5347 50.7396 40.2249 47.9745 38.9198C47.9752 38.3077 47.9709 37.6955 47.9765 37.084Z" fill="white"/>
<path d="M48.1253 43.9405C48.1682 44.0163 48.2223 44.0844 48.2868 44.144C49.0189 44.842 49.7373 45.5538 50.4777 46.2424C50.7592 45.8289 51.0723 45.4357 51.3321 45.0089C50.2608 44.6608 49.2022 44.2711 48.1253 43.9405ZM46.6982 42.1568C49.7688 42.6573 52.8415 43.1431 55.9119 43.6422C55.5708 44.5007 55.2198 45.3557 54.8612 46.2066C54.2838 46.0129 53.7077 45.8183 53.1319 45.6233C52.6758 46.2479 52.2455 46.8923 51.8067 47.5298C52.2734 47.9678 52.7268 48.4208 53.1902 48.8623C52.7502 49.4659 52.289 50.0543 51.8453 50.6558C49.7982 48.3399 47.7772 46.0008 45.7406 43.6765C46.0503 43.164 46.3774 42.6621 46.6982 42.1568Z" fill="white"/>
<path d="M17.9694 46.505C20.8371 45.0996 23.7049 43.6935 26.5732 42.2894C26.8266 42.7557 27.0815 43.2218 27.3419 43.6836C26.2988 44.3681 25.2226 45.0026 24.1829 45.6914C24.6785 46.215 25.1651 46.7478 25.6557 47.2766C26.5346 46.4398 27.4043 45.5938 28.2805 44.7548C28.6772 45.1388 29.0632 45.5334 29.4535 45.9244C27.4402 48.2966 25.4073 50.6511 23.3973 53.026C22.7529 52.4565 22.1119 51.8822 21.476 51.3032C22.39 50.4143 23.3117 49.5341 24.2307 48.6511C23.6725 48.001 23.0977 47.3649 22.529 46.7232C21.4556 47.3952 20.3843 48.0705 19.3139 48.7465C18.8729 47.9947 18.4103 47.2561 17.9694 46.505Z" fill="white"/>
<path d="M43.5202 46.2242C43.827 45.8984 44.1359 45.5741 44.4512 45.256C46.6554 47.3642 48.8583 49.4737 51.0507 51.5937C50.4153 52.1581 49.7884 52.7324 49.1607 53.3059C47.278 50.9473 45.4016 48.5836 43.5202 46.2242Z" fill="white"/>
<path d="M29.1349 52.088C29.5595 52.2804 29.9779 52.486 30.4083 52.6673C30.5858 51.7841 30.7613 50.8995 30.9087 50.0107C30.3037 50.691 29.7337 51.4021 29.1349 52.088ZM24.3099 53.6647C26.55 51.4786 28.8028 49.3068 31.0422 47.1207C31.5497 47.2842 32.0559 47.452 32.5626 47.6184C32.435 50.8378 32.3324 54.059 32.2104 57.2794C31.3595 57.0665 30.5128 56.8379 29.6663 56.6096C29.7926 55.9122 29.9365 55.2187 30.0552 54.5213C29.3678 54.1645 28.6701 53.8281 27.9856 53.4652C27.5153 54.0122 27.0542 54.5669 26.5894 55.1185C25.8269 54.6383 25.0682 54.1519 24.3099 53.6647Z" fill="white"/>
<path d="M44.117 53.6873C43.8789 53.8492 43.7996 54.1541 43.7996 54.4273C44.0221 54.5028 44.2861 54.5696 44.4988 54.4319C44.7711 54.2635 44.8239 53.9048 44.8148 53.6113C44.5809 53.6037 44.3339 53.5841 44.117 53.6873ZM40.998 49.5264C40.8947 50.0319 41.0169 50.5507 41.1693 51.0337C41.556 52.1315 42.19 53.1587 43.0568 53.942C43.1538 53.6712 43.2604 53.3992 43.4381 53.1698C43.7111 52.7913 44.1549 52.5696 44.6112 52.5099C44.2286 51.3852 43.5736 50.3336 42.6805 49.544C42.3458 49.2716 41.9527 48.9816 41.4978 49.0202C41.2309 49.0357 41.0422 49.2786 40.998 49.5264ZM39.8663 48.192C40.232 47.6738 40.8674 47.3769 41.497 47.3881C42.1479 47.3958 42.7712 47.6472 43.3181 47.9861C44.43 48.6876 45.2683 49.7608 45.827 50.9394C46.1253 51.5832 46.3346 52.2718 46.4133 52.978C46.9916 53.362 47.6839 53.5223 48.3655 53.5902C48.3697 53.8795 48.3732 54.1687 48.3774 54.458C48.0602 54.6053 47.6901 54.5765 47.3686 54.458C47.0521 54.3145 46.7326 54.1779 46.4083 54.0521C46.3071 54.6383 46.0904 55.2351 45.6332 55.6372C45.0913 56.1366 44.2839 56.2367 43.5939 56.0396C42.4897 55.7361 41.5736 54.9647 40.8722 54.0824C40.044 53.0137 39.4584 51.725 39.3524 50.3674C39.3019 49.6177 39.4149 48.8138 39.8663 48.192Z" fill="white"/>
<path d="M35.8916 49.7047C35.8761 50.5183 35.8719 51.332 35.8643 52.1455C36.7615 51.9764 37.2023 50.7394 36.6372 50.0317C36.4623 49.8008 36.1732 49.702 35.8916 49.7047ZM36.159 48.0781C36.3935 48.0802 36.6385 48.0129 36.8659 48.095C37.476 48.2853 38.0376 48.677 38.3612 49.2364C38.913 50.1665 38.8744 51.3902 38.3213 52.3113C38.0593 52.7387 37.6156 53.0509 37.1166 53.1291C37.2859 53.3566 37.5132 53.5327 37.7013 53.7448C38.8259 54.9486 39.8088 56.2809 40.6869 57.6737C39.7567 57.6768 38.828 57.6879 37.8986 57.6914C37.3166 56.4692 36.7376 55.2451 36.1583 54.0214C36.0853 53.873 36.0327 53.7103 35.9218 53.5852C35.8846 54.9325 35.8749 56.2805 35.8627 57.6281C34.9908 57.5939 34.1225 57.5222 33.2514 57.4808C33.6375 54.3609 33.9983 51.2379 34.3971 48.1203C34.9847 48.116 35.5714 48.088 36.159 48.0781Z" fill="white"/>
<path d="M33.4985 16.4852C34.2855 16.3813 35.0751 16.3258 35.867 16.2852C35.8613 17.0068 35.8706 17.7285 35.8627 18.4494C35.0695 18.467 34.2798 18.5421 33.497 18.6685C33.5019 17.9405 33.4992 17.2133 33.4985 16.4852Z" fill="white"/>
<path d="M37.0871 16.2895C37.8873 16.3322 38.6877 16.3793 39.4803 16.5078C39.4803 17.2343 39.4796 17.9608 39.4803 18.6881C38.6898 18.545 37.8873 18.4852 37.0857 18.4453C37.0857 17.7272 37.0893 17.0083 37.0871 16.2895Z" fill="white"/>
<path d="M29.1813 17.6115C30.1571 17.2135 31.1673 16.9039 32.1907 16.6561C32.1907 17.396 32.1824 18.1359 32.1957 18.8751C30.6423 19.276 29.1407 19.8861 27.7479 20.6834C27.5815 20.7648 27.3898 20.7346 27.2129 20.7256C26.1017 20.7123 24.989 20.7094 23.8769 20.715C25.4931 19.4451 27.2676 18.3682 29.1813 17.6115Z" fill="white"/>
<path d="M40.9585 16.7689C43.9183 17.4442 46.7382 18.7499 49.1328 20.6207C49.25 20.7134 49.37 20.8033 49.4992 20.8805C48.2131 20.8608 46.9236 20.9037 45.6403 20.8595C44.1781 20.0318 42.6063 19.3887 40.9712 18.9934C40.9572 18.2521 40.9684 17.5102 40.9585 16.7689Z" fill="white"/>
<path d="M33.5328 26.6103C33.5342 26.0318 33.5342 25.4541 33.5335 24.8764C34.1696 24.851 34.8295 24.9128 35.3946 25.2302C35.9197 25.5208 36.3087 26.0297 36.4708 26.6054C35.4915 26.6151 34.5121 26.6054 33.5328 26.6103ZM20.7333 30.1686C20.1969 30.163 19.6599 30.1679 19.1236 30.1765C19.2001 30.0627 19.2486 29.935 19.3011 29.8099C19.596 29.094 19.9478 28.4018 20.3331 27.7299C20.4603 27.5333 20.5493 27.3073 20.7277 27.1488C20.7431 28.1547 20.7325 29.1621 20.7333 30.1686ZM38.5802 26.6426C38.5234 25.6428 38.2033 24.6214 37.5146 23.8739C36.908 23.2379 36.0446 22.8812 35.1741 22.8272C34.0361 22.8244 32.8974 22.8293 31.7596 22.825C31.754 24.6931 31.7568 26.5605 31.7581 28.4277C33.3279 28.4354 34.8983 28.4306 36.4686 28.4306C36.4595 29.0104 36.4699 29.591 36.4631 30.1709C33.6115 30.1617 30.7585 30.1659 27.9063 30.1693C27.8748 27.7374 27.9008 25.3039 27.8931 22.8718C27.2168 23.3846 26.4857 23.935 25.8498 24.4095C25.8498 26.3149 25.8426 28.2205 25.8558 30.1258C25.7421 30.1905 25.6059 30.1603 25.4817 30.1673C24.4251 30.1673 23.3685 30.1623 22.3128 30.1693C22.3212 27.3853 22.3142 24.6004 22.3184 21.8156C22.2314 21.9082 22.1435 22.0002 22.0573 22.0936C21.596 22.4979 21.1994 22.9691 20.7859 23.4205C18.6328 25.9048 17.0456 28.9008 16.2932 32.1048C23.7238 32.0958 31.1545 32.0999 38.5851 32.1028C38.5754 30.2825 38.5851 28.4629 38.5802 26.6426Z" fill="white"/>
<path d="M38.6834 22.7955C39.6909 22.797 40.6976 22.7914 41.7048 22.797C41.9695 23.0904 42.2286 23.3894 42.496 23.68C42.7508 24.0036 43.0049 24.328 43.264 24.6482C42.3296 24.6405 41.3953 24.6552 40.4616 24.639C39.9112 23.9869 39.3434 23.3388 38.6834 22.7955Z" fill="white"/>
<path d="M43.5301 22.79C44.395 22.8011 45.2598 22.792 46.1253 22.7934C46.2166 22.804 46.343 22.7661 46.4005 22.8644C46.9172 23.4378 47.4178 24.0261 47.8832 24.6418C46.9594 24.6531 46.0356 24.6425 45.1111 24.6459C44.6322 23.9882 44.1121 23.3592 43.5301 22.79Z" fill="white"/>
<path d="M48.4946 22.823C49.5082 22.8167 50.522 22.7971 51.5357 22.7955C52.0938 23.3825 52.6056 24.01 53.1027 24.6489C52.1759 24.6433 51.2485 24.6489 50.322 24.6447C49.7512 24.0016 49.1301 23.4007 48.4946 22.823Z" fill="white"/>
<path d="M42.39 26.8762C42.5578 26.8489 42.7276 26.8658 42.8969 26.8538C43.0365 26.8714 43.1777 26.8741 43.3179 26.8518C43.457 26.8735 43.5975 26.8721 43.738 26.8532C43.8313 26.8665 43.9254 26.8665 44.0201 26.8545C44.3711 26.8804 44.7242 26.8595 45.0759 26.8658C46.0223 27.8619 46.7734 29.0166 47.4999 30.1765C48.1549 30.1616 48.8099 30.1645 49.4649 30.1693C48.8983 28.9788 48.1682 27.8654 47.3307 26.8475C47.6311 26.8518 47.931 26.8804 48.2322 26.8595C48.701 26.8286 49.1713 26.905 49.6396 26.8461C49.7357 26.8376 49.8642 26.8243 49.926 26.9199C50.6897 27.9265 51.3125 29.0315 51.8565 30.1693C52.4751 30.1616 53.0935 30.1686 53.7119 30.1659C53.5117 29.4996 53.1699 28.884 52.8568 28.2649C52.5948 27.7889 52.3318 27.3115 52.018 26.8678C52.8476 26.8566 53.6747 26.8518 54.5052 26.8229C55.4466 28.4705 56.162 30.2536 56.5985 32.1005C52.489 32.0985 48.3788 32.1034 44.2694 32.0985C44.2699 32.1237 44.2714 32.1749 44.2721 32.2002C45.3608 33.8836 45.8122 35.9602 45.6144 37.9496C45.3896 40.3997 44.1084 42.7198 42.1858 44.2479C40.7136 45.4204 38.8787 46.1349 36.998 46.2389C35.6009 46.3372 34.1872 46.0747 32.8927 45.548C33.4212 44.9345 33.9624 44.3323 34.4931 43.7201C36.1506 44.196 37.9779 44.0436 39.5251 43.2765C40.8983 42.5997 42.0397 41.4583 42.7039 40.0781C43.7231 38.0058 43.6192 35.4224 42.407 33.4527C42.0327 32.8067 41.5301 32.2452 40.9727 31.7524C40.9601 31.2238 40.9748 30.6944 40.9601 30.1652C42.2784 30.1693 43.5975 30.1623 44.9166 30.1686C44.9123 30.1131 44.9026 30.0585 44.8877 30.0051C44.136 28.9023 43.3736 27.7889 42.39 26.8762Z" fill="white"/>
<path d="M36.3001 36.0592C35.7301 36.1785 35.2949 36.7345 35.3272 37.3178C35.3229 37.9503 35.8776 38.5225 36.51 38.5345C37.1833 38.5906 37.8446 38.0015 37.8129 37.3165C37.8875 36.5288 37.0562 35.8583 36.3001 36.0592ZM36.06 34.0017C36.9172 33.8709 37.8194 34.0831 38.5193 34.5969C39.2746 35.1501 39.8052 36.0276 39.8699 36.969C39.9842 37.9629 39.5919 38.9956 38.8625 39.6781C38.2769 40.2486 37.4683 40.5899 36.6491 40.5983C35.7112 40.6362 34.7741 40.222 34.1423 39.5327C33.5786 38.9408 33.2746 38.1293 33.2465 37.3178C33.2548 36.4607 33.5827 35.6049 34.1829 34.9878C34.6785 34.4655 35.3511 34.1187 36.06 34.0017Z" fill="white"/>
<path d="M18.8948 34.585C19.6549 34.5927 20.4145 34.5877 21.1748 34.5871C21.1643 35.3395 21.1712 36.0928 21.1706 36.8454C20.4139 36.8594 19.6565 36.8608 18.8996 36.8454C18.9088 36.0921 18.9187 35.3382 18.8948 34.585Z" fill="white"/>
<path d="M21.7933 34.5877C22.5543 34.5877 23.3146 34.5927 24.0747 34.585C24.051 35.3382 24.06 36.0921 24.0706 36.8454C23.3131 36.8617 22.555 36.8587 21.7974 36.8454C21.796 36.0928 21.8039 35.3403 21.7933 34.5877Z" fill="white"/>
<path d="M51.7461 53.418C51.1447 53.5653 50.7124 54.184 50.7841 54.7994C50.8172 55.2018 51.0527 55.58 51.3986 55.7883C51.6657 55.9517 51.9936 56.0123 52.302 55.9578C52.741 55.8907 53.1277 55.5719 53.2876 55.1596C53.5335 54.5696 53.27 53.8277 52.7003 53.5346C52.4122 53.375 52.0641 53.339 51.7461 53.418ZM51.7046 53.2135C52.0521 53.1272 52.4314 53.1629 52.7513 53.3263C53.1419 53.5212 53.4403 53.8914 53.5439 54.3152C53.6233 54.6532 53.593 55.0211 53.4361 55.3329C53.2285 55.7676 52.8008 56.0933 52.3231 56.1658C52.0146 56.2283 51.6901 56.1631 51.4086 56.03C50.9771 55.8163 50.6571 55.3882 50.588 54.9098C50.451 54.1679 50.9739 53.3884 51.7046 53.2135Z" fill="white"/>
<path d="M51.6545 54.0813C51.653 54.2712 51.6517 54.4603 51.655 54.6502C51.8533 54.6486 52.0516 54.6559 52.2496 54.6463C52.3735 54.641 52.5143 54.5823 52.55 54.4515C52.6132 54.3018 52.4997 54.1223 52.3424 54.1012C52.1156 54.0602 51.8832 54.0886 51.6545 54.0813ZM51.4442 53.911C51.7246 53.9106 52.0048 53.909 52.2853 53.9113C52.4218 53.9117 52.5722 53.9413 52.6666 54.049C52.8189 54.2117 52.8308 54.494 52.6712 54.6563C52.5822 54.7572 52.4475 54.7944 52.3199 54.8182C52.6006 55.0012 52.7306 55.3226 52.9167 55.5881C52.8296 55.5904 52.7421 55.5912 52.6554 55.5915C52.5327 55.4055 52.4214 55.2114 52.2888 55.0322C52.2276 54.9536 52.1568 54.8673 52.0542 54.8458C51.9209 54.8301 51.7866 54.8408 51.653 54.8393C51.6505 55.0902 51.6533 55.3407 51.6511 55.5915C51.5818 55.5904 51.513 55.5896 51.4442 55.5892V53.911Z" fill="white"/>
</svg>
