<svg width="73" height="74" viewBox="0 0 73 74" fill="none" xmlns="http://www.w3.org/2000/svg">
<g clip-path="url(#clip0_476_871)">
<path d="M47.7824 16.0786C53.1532 16.0786 57.507 20.4324 57.5071 25.8032V48.1967C57.507 53.5675 53.1532 57.9213 47.7824 57.9213H25.3889C20.0182 57.9212 15.6643 53.5675 15.6643 48.1967V25.8032C15.6644 20.4325 20.0182 16.0786 25.3889 16.0786H47.7824ZM46.6408 26.0043C42.9 22.482 33.8452 21.2065 29.1877 25.0473C25.9141 27.6006 25.5399 33.0403 28.8323 36.0161C31.9054 38.8317 37.2274 39.5787 39.2512 40.8295C43.1795 42.7551 40.6921 46.5314 36.3899 46.1391C34.1028 45.9784 32.0684 45.3351 29.7864 43.6528L25.6516 47.5034C28.6985 49.9105 32.2183 51.1865 36.3899 51.2426C38.8963 51.2763 40.5647 51.0238 42.4504 50.2514C42.4818 50.2381 47.6131 48.0502 47.4641 43.4282C47.3175 38.8852 44.7326 37.4555 42.4504 36.2114C38.9524 34.3045 31.545 33.7063 32.8723 29.7621C34.4437 26.7896 39.7193 27.3131 42.4504 29.7621L46.6408 26.0043Z" fill="white"/>
</g>
<defs>
<clipPath id="clip0_476_871">
<rect width="41.8429" height="41.8429" fill="white" transform="translate(15.6643 16.0786)"/>
</clipPath>
</defs>
</svg>
