<svg width="666" height="489" viewBox="0 0 666 489" fill="none" xmlns="http://www.w3.org/2000/svg">
<path d="M647.317 127.195C633.358 133.976 625.042 153.315 615.643 160.936C605.884 168.906 583.573 163.263 584.818 145.59C585.842 131.022 587.308 125.891 589.912 115.058C589.912 115.058 592.239 102.47 607.699 104.203C621.029 105.693 628.752 111.023 636.732 110.919C644.072 110.814 652.575 104.239 652.204 94.906C651.981 89.461 637.314 85.3659 637.314 85.3659C637.314 85.3659 614.805 76.5922 596.752 76.7327C579.653 76.8602 563.649 81.7119 554.876 122.529C554.876 122.529 550.689 50.3905 541.011 12.2743C541.011 12.2743 538.684 -0.596159 528.345 0.0215438C516.711 0.719319 517.527 12.204 517.527 12.204C517.527 12.204 524.726 80.921 521.656 117.98C521.656 117.98 511.269 57.231 505.3 28.7954C505.3 28.7954 503.045 15.7517 489.621 17.2993C479.896 18.4628 482.559 32.4248 482.559 32.4248C482.559 32.4248 489.703 82.5617 492.121 125.298C492.121 125.298 472.102 82.3297 454.899 55.0788C454.899 55.0788 447.605 44.305 439.661 49.879C430.936 56.0103 438.113 66.1681 438.113 66.1681C438.113 66.1681 461.588 123.75 463.099 150.815C463.808 163.613 462.005 168.267 460.773 175.596C457.283 190.467 450.583 201.824 444.046 212.9C442.233 215.227 422.062 241.847 396.588 256.334C361.063 276.52 324.037 291.741 260.491 279.359C197.376 267.074 137.493 263.722 81.1114 275.975C61.2732 280.263 41.8711 286.366 23.1499 294.207L22.1026 294.636C-0.397827 304.126 -21.6714 316.296 -41.2574 330.882C-74.3507 353.279 -176.652 383.872 -280.203 383.872C-281 383.872 -281 507.723 -281 507.723C-238.392 508.975 -140.361 495.668 -60.25 473.529C19.8608 451.389 35.6281 425.947 92.686 410.454C132.491 399.121 179.718 399.005 230.621 408.302C356.526 431.294 430.937 394.247 475.533 363.38C529.426 326.076 550.886 292.205 555.272 285.19C569.475 260.186 580.142 243.302 586.331 229.188C586.331 229.188 618.481 207.745 621.831 204.965C624.948 202.381 632.626 196.284 637.639 188.058C642.653 179.832 647.514 169.186 656.437 152.548C660.055 145.799 662.427 140.389 663.009 137.98C665.29 131.127 657.344 122.319 647.317 127.195Z" fill="#C12F2F"/>
<path d="M647.317 127.195C633.358 133.976 625.042 153.315 615.643 160.936C605.884 168.906 583.573 163.263 584.818 145.59C585.842 131.022 587.308 125.891 589.912 115.058C589.912 115.058 592.239 102.47 607.699 104.203C621.029 105.693 628.752 111.023 636.732 110.919C644.072 110.814 652.575 104.239 652.204 94.906C651.981 89.461 637.314 85.3659 637.314 85.3659C637.314 85.3659 614.805 76.5922 596.752 76.7327C579.653 76.8602 563.649 81.7119 554.876 122.529C554.876 122.529 550.689 50.3905 541.011 12.2743C541.011 12.2743 538.684 -0.596159 528.345 0.0215438C516.711 0.719319 517.527 12.204 517.527 12.204C517.527 12.204 524.726 80.921 521.656 117.98C521.656 117.98 511.269 57.231 505.3 28.7954C505.3 28.7954 503.045 15.7517 489.621 17.2993C479.896 18.4628 482.559 32.4248 482.559 32.4248C482.559 32.4248 489.703 82.5617 492.121 125.298C492.121 125.298 472.102 82.3297 454.899 55.0788C454.899 55.0788 447.605 44.305 439.661 49.879C430.936 56.0103 438.113 66.1681 438.113 66.1681C438.113 66.1681 461.588 123.75 463.099 150.815C463.808 163.613 462.005 168.267 460.773 175.596C457.283 190.467 450.583 201.824 444.046 212.9C442.233 215.227 422.062 241.847 396.588 256.334C361.063 276.52 324.037 291.741 260.491 279.359C197.376 267.074 137.493 263.722 81.1114 275.975C61.2732 280.263 41.8711 286.366 23.1499 294.207L22.1026 294.636C-0.397827 304.126 -21.6714 316.296 -41.2574 330.882C-74.3507 353.279 -176.652 383.872 -280.203 383.872C-281 383.872 -281 507.723 -281 507.723C-238.392 508.975 -140.361 495.668 -60.25 473.529C19.8608 451.389 35.6281 425.947 92.686 410.454C132.491 399.121 179.718 399.005 230.621 408.302C356.526 431.294 430.937 394.247 475.533 363.38C529.426 326.076 550.886 292.205 555.272 285.19C569.475 260.186 580.142 243.302 586.331 229.188C586.331 229.188 618.481 207.745 621.831 204.965C624.948 202.381 632.626 196.284 637.639 188.058C642.653 179.832 647.514 169.186 656.437 152.548C660.055 145.799 662.427 140.389 663.009 137.98C665.29 131.127 657.344 122.319 647.317 127.195Z" fill="url(#paint0_linear_607_318)"/>
<path d="M647.317 127.195C633.358 133.976 625.042 153.315 615.643 160.936C605.884 168.906 583.573 163.263 584.818 145.59C585.842 131.022 587.308 125.891 589.912 115.058C589.912 115.058 592.239 102.47 607.699 104.203C621.029 105.693 628.752 111.023 636.732 110.919C644.072 110.814 652.575 104.239 652.204 94.906C651.981 89.461 637.314 85.3659 637.314 85.3659C637.314 85.3659 614.805 76.5922 596.752 76.7327C579.653 76.8602 563.649 81.7119 554.876 122.529C554.876 122.529 550.689 50.3905 541.011 12.2743C541.011 12.2743 538.684 -0.596159 528.345 0.0215438C516.711 0.719319 517.527 12.204 517.527 12.204C517.527 12.204 524.726 80.921 521.656 117.98C521.656 117.98 511.269 57.231 505.3 28.7954C505.3 28.7954 503.045 15.7517 489.621 17.2993C479.896 18.4628 482.559 32.4248 482.559 32.4248C482.559 32.4248 489.703 82.5617 492.121 125.298C492.121 125.298 472.102 82.3297 454.899 55.0788C454.899 55.0788 447.605 44.305 439.661 49.879C430.936 56.0103 438.113 66.1681 438.113 66.1681C438.113 66.1681 461.588 123.75 463.099 150.815C463.808 163.613 462.005 168.267 460.773 175.596C457.283 190.467 450.583 201.824 444.046 212.9C442.233 215.227 422.062 241.847 396.588 256.334C361.063 276.52 324.037 291.741 260.491 279.359C197.376 267.074 137.493 263.722 81.1114 275.975C61.2732 280.263 41.8711 286.366 23.1499 294.207L22.1026 294.636C-0.397827 304.126 -21.6714 316.296 -41.2574 330.882C-74.3507 353.279 -176.652 383.872 -280.203 383.872C-281 383.872 -281 507.723 -281 507.723C-238.392 508.975 -140.361 495.668 -60.25 473.529C19.8608 451.389 35.6281 425.947 92.686 410.454C132.491 399.121 179.718 399.005 230.621 408.302C356.526 431.294 430.937 394.247 475.533 363.38C529.426 326.076 550.886 292.205 555.272 285.19C569.475 260.186 580.142 243.302 586.331 229.188C586.331 229.188 618.481 207.745 621.831 204.965C624.948 202.381 632.626 196.284 637.639 188.058C642.653 179.832 647.514 169.186 656.437 152.548C660.055 145.799 662.427 140.389 663.009 137.98C665.29 131.127 657.344 122.319 647.317 127.195Z" fill="url(#paint1_radial_607_318)"/>
<path d="M647.317 127.195C633.358 133.976 625.042 153.315 615.643 160.936C605.884 168.906 583.573 163.263 584.818 145.59C585.842 131.022 587.308 125.891 589.912 115.058C589.912 115.058 592.239 102.47 607.699 104.203C621.029 105.693 628.752 111.023 636.732 110.919C644.072 110.814 652.575 104.239 652.204 94.906C651.981 89.461 637.314 85.3659 637.314 85.3659C637.314 85.3659 614.805 76.5922 596.752 76.7327C579.653 76.8602 563.649 81.7119 554.876 122.529C554.876 122.529 550.689 50.3905 541.011 12.2743C541.011 12.2743 538.684 -0.596159 528.345 0.0215438C516.711 0.719319 517.527 12.204 517.527 12.204C517.527 12.204 524.726 80.921 521.656 117.98C521.656 117.98 511.269 57.231 505.3 28.7954C505.3 28.7954 503.045 15.7517 489.621 17.2993C479.896 18.4628 482.559 32.4248 482.559 32.4248C482.559 32.4248 489.703 82.5617 492.121 125.298C492.121 125.298 472.102 82.3297 454.899 55.0788C454.899 55.0788 447.605 44.305 439.661 49.879C430.936 56.0103 438.113 66.1681 438.113 66.1681C438.113 66.1681 461.588 123.75 463.099 150.815C463.808 163.613 462.005 168.267 460.773 175.596C457.283 190.467 450.583 201.824 444.046 212.9C442.233 215.227 422.062 241.847 396.588 256.334C361.063 276.52 324.037 291.741 260.491 279.359C197.376 267.074 137.493 263.722 81.1114 275.975C61.2732 280.263 41.8711 286.366 23.1499 294.207L22.1026 294.636C-0.397827 304.126 -21.6714 316.296 -41.2574 330.882C-74.3507 353.279 -176.652 383.872 -280.203 383.872C-281 383.872 -281 507.723 -281 507.723C-238.392 508.975 -140.361 495.668 -60.25 473.529C19.8608 451.389 35.6281 425.947 92.686 410.454C132.491 399.121 179.718 399.005 230.621 408.302C356.526 431.294 430.937 394.247 475.533 363.38C529.426 326.076 550.886 292.205 555.272 285.19C569.475 260.186 580.142 243.302 586.331 229.188C586.331 229.188 618.481 207.745 621.831 204.965C624.948 202.381 632.626 196.284 637.639 188.058C642.653 179.832 647.514 169.186 656.437 152.548C660.055 145.799 662.427 140.389 663.009 137.98C665.29 131.127 657.344 122.319 647.317 127.195Z" fill="url(#paint2_radial_607_318)"/>
<path d="M657.346 151.975C657.346 151.975 646.057 151.844 652.12 141.361C655.537 135.465 657.748 132.646 661.27 132.386C664.309 132.151 666.329 133.731 664.072 138.696C661.329 144.829 657.346 151.975 657.346 151.975ZM633.276 83.3411C633.276 83.3411 625.95 92.386 636.121 94.7147C645.204 96.7998 647.544 97.1528 650.166 94.7147C652.508 92.6916 653.432 89.7649 647.439 87.6813C641.201 85.5471 633.276 83.3411 633.276 83.3411ZM519.564 23.8128C519.564 23.8128 529.212 27.9079 527.608 16.2827C526.668 9.46509 525.136 7.18057 522.095 5.40264C519.884 4.10677 517.628 5.29968 518.031 9.31639C518.696 15.7778 519.564 23.8112 519.564 23.8112V23.8128ZM483.587 38.6704C483.587 38.6704 493.48 42.3896 491.605 30.4654C490.639 24.2916 490.096 21.6459 486.889 20.1589C484.142 18.8597 481.643 19.5216 482.09 25.8849C482.585 32.5423 483.587 38.6704 483.587 38.6704ZM442.419 73.5363C442.419 73.5363 453.364 73.7062 447.765 63.4863C444.61 57.7113 443.669 55.9481 440.262 55.5967C437.324 55.3009 435.029 56.8011 437.06 61.5875C438.782 65.5987 440.569 69.5821 442.419 73.5363Z" fill="#F76969"/>
<path fill-rule="evenodd" clip-rule="evenodd" d="M439.232 215.226L534.98 315.224L504.175 344.728L408.427 244.729L439.232 215.226Z" fill="url(#paint3_linear_607_318)"/>
<path d="M469.784 308.851C487.38 308.851 501.645 294.585 501.645 276.986C501.645 259.387 487.38 245.12 469.784 245.12C452.187 245.12 437.922 259.387 437.922 276.986C437.922 294.585 452.187 308.851 469.784 308.851Z" fill="url(#paint4_linear_607_318)"/>
<path d="M468.967 303.95C483.405 303.95 495.109 292.244 495.109 277.803C495.109 263.363 483.405 251.657 468.967 251.657C454.529 251.657 442.824 263.363 442.824 277.803C442.824 292.244 454.529 303.95 468.967 303.95Z" fill="#B52929"/>
<path d="M494.982 281.072C495.075 280.18 495.109 279.286 495.109 278.39C495.109 263.725 483.277 251.656 468.903 251.656C455.511 251.656 444.166 262.121 442.824 275.71L494.982 281.07V281.072Z" fill="url(#paint5_linear_607_318)"/>
<path d="M473.868 254.925L467.388 275.862V276.022C467.348 276.216 467.329 276.414 467.333 276.612C467.333 278.161 468.579 279.437 470.094 279.437C471.476 279.437 472.643 278.4 472.847 277.017V276.857L473.868 254.925Z" fill="#500000"/>
<path d="M483.672 289.242L472.153 275.347C472.118 275.302 472.079 275.261 472.035 275.225C471.531 274.783 470.884 274.538 470.213 274.535C468.633 274.535 467.333 275.893 467.333 277.545C467.333 278.441 467.717 279.294 468.379 279.866L468.517 279.964L483.672 289.242Z" fill="#500000"/>
<defs>
<linearGradient id="paint0_linear_607_318" x1="-281" y1="25391.7" x2="94159.2" y2="25391.7" gradientUnits="userSpaceOnUse">
<stop stop-color="#C43B3B"/>
<stop offset="0.06" stop-color="#D20707"/>
<stop offset="0.59" stop-color="#A60F0F" stop-opacity="0.5"/>
<stop offset="0.72" stop-color="#C71818" stop-opacity="0.5"/>
<stop offset="0.85" stop-color="#D33131" stop-opacity="0"/>
<stop offset="1" stop-color="#ED2626" stop-opacity="0"/>
</linearGradient>
<radialGradient id="paint1_radial_607_318" cx="0" cy="0" r="1" gradientUnits="userSpaceOnUse" gradientTransform="translate(37299.9 46907.9) scale(20234.4 20237)">
<stop stop-color="#2D0000"/>
<stop offset="0.2" stop-color="#600000"/>
<stop offset="1" stop-color="#8B1010" stop-opacity="0"/>
</radialGradient>
<radialGradient id="paint2_radial_607_318" cx="0" cy="0" r="1" gradientUnits="userSpaceOnUse" gradientTransform="translate(17547 6416.61) scale(36751.2 36755.9)">
<stop stop-color="#650000"/>
<stop offset="0.24" stop-color="#750505"/>
<stop offset="1" stop-color="#580606" stop-opacity="0"/>
</radialGradient>
<linearGradient id="paint3_linear_607_318" x1="10539.1" y1="13773.1" x2="-1961.75" y2="2089.12" gradientUnits="userSpaceOnUse">
<stop stop-color="#500000"/>
<stop offset="0.32" stop-color="#3E0000"/>
<stop offset="0.81" stop-color="#310000"/>
<stop offset="1" stop-color="#370404"/>
</linearGradient>
<linearGradient id="paint4_linear_607_318" x1="7428.11" y1="5998.97" x2="596.457" y2="1370" gradientUnits="userSpaceOnUse">
<stop stop-color="#3C0303"/>
<stop offset="1" stop-color="#660F0F"/>
</linearGradient>
<linearGradient id="paint5_linear_607_318" x1="-697.622" y1="1354.2" x2="5559.67" y2="3438.28" gradientUnits="userSpaceOnUse">
<stop stop-color="#E64747"/>
<stop offset="1" stop-color="#EA4646" stop-opacity="0"/>
</linearGradient>
</defs>
</svg>
