<svg width="86" height="86" viewBox="0 0 86 86" fill="none" xmlns="http://www.w3.org/2000/svg">
<path d="M59.2171 54.1436C63.558 47.9476 71.1547 38.7078 70.8291 32.6204C70.5035 24.5764 62.2557 21.9675 54.0079 22.0762C48.2562 22.1849 42.5044 23.8155 38.7061 25.2286C25.2491 30.1203 17.3269 38.0556 12.7689 46.7518C7.88535 55.4481 10.707 63.7095 22.9701 63.9269C31.3265 63.6008 36.8612 61.5354 42.1788 58.8179C42.5044 58.7092 42.2874 58.2743 41.9618 58.2743C37.0782 59.5788 25.5747 61.8615 20.2571 59.0353C19.4974 58.6005 18.7377 58.1656 18.4121 56.6438C18.0866 53.6001 22.8616 50.339 25.5747 49.3607L25.0321 44.0343C27.2026 44.9039 29.5901 45.3387 31.9776 45.3387C36.5356 45.3387 40.551 43.7081 43.4811 40.9906C43.6982 41.4254 43.8067 41.9689 43.9152 42.5124H45.2175C45.2175 41.0993 44.3493 40.0122 44.3493 40.0122C42.9385 38.1643 40.9851 38.1643 40.9851 38.1643C40.9851 38.1643 41.9618 38.5991 42.83 39.6861C35.8845 45.7735 27.3111 42.7298 27.3111 42.7298L30.8924 38.8165L29.373 35.7728C37.5123 32.8378 44.4578 30.5551 55.8528 28.4897L53.0312 26.3157L54.3335 25.446C61.4961 27.4027 66.2711 28.9245 66.4881 32.6204C66.4881 33.2727 66.2711 33.9249 66.054 34.7945C64.4262 38.8165 59.1085 45.5561 56.9381 48.3824C55.5272 50.2303 54.1164 52.0783 53.1397 53.8175C52.163 55.5568 51.6204 57.1873 51.7289 58.8179C51.6204 67.9489 68.0075 60.3397 75.3871 55.3394C75.6041 55.2307 75.4956 54.7959 75.17 54.9046C54.3335 61.7528 59.2171 54.1436 59.2171 54.1436Z" fill="black"/>
</svg>
