<svg width="86" height="86" viewBox="0 0 86 86" fill="none" xmlns="http://www.w3.org/2000/svg">
<path d="M67.5141 64.0075C39.8667 76.7755 22.7084 66.0929 11.7248 59.6045C11.0452 59.1956 9.89 59.7001 10.8923 60.8173C14.5515 65.1226 26.5433 75.4998 42.1962 75.4998C57.8599 75.4998 67.1784 67.2062 68.3441 65.7595C69.5019 64.3249 68.684 63.5336 67.5139 64.0075H67.5141ZM75.2788 59.8465C74.5364 58.9083 70.7642 58.7334 68.3903 59.0164C66.0127 59.2912 62.4439 60.7013 62.7541 61.5479C62.9134 61.865 63.2383 61.7228 64.8717 61.5803C66.5095 61.4217 71.0976 60.8598 72.0537 62.0726C73.0142 63.2937 70.5903 69.1109 70.1476 70.049C69.7199 70.9872 70.311 71.2291 71.1144 70.6043C71.9068 69.9797 73.3413 68.3621 74.3039 66.073C75.2599 63.7715 75.8432 60.5608 75.2788 59.8465Z" fill="#FF9900"/>
<path fill-rule="evenodd" clip-rule="evenodd" d="M48.924 37.9547C48.924 41.3048 49.0112 44.0986 47.2662 47.0738C45.8577 49.4929 43.6267 50.9804 41.134 50.9804C37.7313 50.9804 35.7496 48.4647 35.7496 44.7518C35.7496 37.4224 42.5172 36.0921 48.924 36.0921V37.9547ZM57.8604 58.9146C57.2745 59.4224 56.427 59.4589 55.7665 59.12C52.8251 56.7496 52.3015 55.6491 50.6813 53.3873C45.8204 58.201 42.3804 59.6401 36.0738 59.6401C28.6204 59.6401 22.8121 55.1772 22.8121 46.2394C22.8121 39.261 26.7135 34.5077 32.2596 32.1857C37.0708 30.1294 43.7888 29.7666 48.924 29.1983V28.0855C48.924 26.0415 49.0858 23.6226 47.852 21.8569C46.7675 20.2725 44.6986 19.6193 42.8787 19.6193C39.5012 19.6193 36.4849 21.3004 35.7496 24.7836C35.5998 25.5578 35.0142 26.3199 34.2166 26.3561L25.6164 25.4612C24.8937 25.3037 24.0961 24.7354 24.2955 23.6588C26.2772 13.548 35.687 10.5 44.1125 10.5C48.425 10.5 54.0586 11.6128 57.4613 14.7817C61.7739 18.6881 61.3625 23.9008 61.3625 29.5731V42.9739C61.3625 47.0014 63.0825 48.7671 64.7027 50.9442C65.276 51.7182 65.4007 52.6497 64.6777 53.23C62.8705 54.6933 59.6548 57.4148 57.8851 58.9388L57.8601 58.9146" fill="black"/>
<path d="M67.5141 64.0075C39.8667 76.7755 22.7084 66.0929 11.7248 59.6045C11.0452 59.1956 9.89 59.7001 10.8923 60.8173C14.5515 65.1226 26.5433 75.4998 42.1962 75.4998C57.8599 75.4998 67.1784 67.2062 68.3441 65.7595C69.5019 64.3249 68.684 63.5336 67.5139 64.0075H67.5141ZM75.2788 59.8465C74.5364 58.9083 70.7642 58.7334 68.3903 59.0164C66.0127 59.2912 62.4439 60.7013 62.7541 61.5479C62.9134 61.865 63.2383 61.7228 64.8717 61.5803C66.5095 61.4217 71.0976 60.8598 72.0537 62.0726C73.0142 63.2937 70.5903 69.1109 70.1476 70.049C69.7199 70.9872 70.311 71.2291 71.1144 70.6043C71.9068 69.9797 73.3413 68.3621 74.3039 66.073C75.2599 63.7715 75.8432 60.5608 75.2788 59.8465Z" fill="black"/>
<path fill-rule="evenodd" clip-rule="evenodd" d="M48.924 37.9547C48.924 41.3048 49.0112 44.0986 47.2662 47.0738C45.8577 49.4929 43.6267 50.9804 41.134 50.9804C37.7313 50.9804 35.7496 48.4647 35.7496 44.7518C35.7496 37.4224 42.5172 36.0921 48.924 36.0921V37.9547ZM57.8604 58.9146C57.2745 59.4224 56.427 59.4589 55.7665 59.12C52.8251 56.7496 52.3015 55.6491 50.6813 53.3873C45.8204 58.201 42.3804 59.6401 36.0738 59.6401C28.6204 59.6401 22.8121 55.1772 22.8121 46.2394C22.8121 39.261 26.7135 34.5077 32.2596 32.1857C37.0708 30.1294 43.7888 29.7666 48.924 29.1983V28.0855C48.924 26.0415 49.0858 23.6226 47.852 21.8569C46.7675 20.2725 44.6986 19.6193 42.8787 19.6193C39.5012 19.6193 36.4849 21.3004 35.7496 24.7836C35.5998 25.5578 35.0142 26.3199 34.2166 26.3561L25.6164 25.4612C24.8937 25.3037 24.0961 24.7354 24.2955 23.6588C26.2772 13.548 35.687 10.5 44.1125 10.5C48.425 10.5 54.0586 11.6128 57.4613 14.7817C61.7739 18.6881 61.3625 23.9008 61.3625 29.5731V42.9739C61.3625 47.0014 63.0825 48.7671 64.7027 50.9442C65.276 51.7182 65.4007 52.6497 64.6777 53.23C62.8705 54.6933 59.6548 57.4148 57.8851 58.9388L57.8601 58.9146" fill="black"/>
</svg>
