<svg width="86" height="86" viewBox="0 0 86 86" fill="none" xmlns="http://www.w3.org/2000/svg">
<path d="M55.1072 24.5158C57.2702 23.4495 58.3438 23.5915 58.3671 24.6683C58.3978 26.0701 58.1902 27.9279 58.0423 29.2771C57.2394 36.5959 55.8961 42.5769 55.794 50.093C59.3291 40.9407 62.2946 34.5801 66.1109 26.7444C67.3241 24.2518 68.0967 24.7153 69.0922 24.2722C72.9724 22.5458 73.1178 23.6063 72.6107 25.7143C70.7278 33.5373 65.9175 58.1612 65.1805 61.9527C64.9665 63.0495 63.7763 62.5848 63.4655 62.1557C62.0846 60.2463 60.529 60.2164 60.7038 58.9462C61.569 52.6248 64.6852 36.7646 65.4973 33.027C61.3533 41.5177 57.0591 52.1311 54.8544 58.1488C54.386 59.4267 53.5351 59.3331 53.0047 58.3979C52.2587 57.0847 50.8118 56.4141 50.5728 54.8623C49.8152 49.9274 51.4381 40.5216 51.6641 34.5708C49.4094 41.0709 45.6235 53.6916 43.9652 59.3933C43.2795 61.7527 41.0034 61.3676 41.6084 59.0682C44.1288 49.4991 49.5561 32.575 51.9068 26.4888C52.459 25.059 53.9057 25.1081 55.1072 24.5158ZM41.364 23.3399C42.0504 23.5051 41.9945 24.3148 41.5751 25.4204C40.3373 28.6827 38.6208 32.9687 36.6582 38.0224C37.8921 37.8816 38.5612 37.8339 38.5612 37.8339C40.3326 37.6151 40.6625 38.5008 40.1638 39.4435C39.7664 40.195 39.2879 39.6939 37.6302 42.1649C36.6963 43.5574 35.1716 43.9251 34.3247 44.1107C32.2846 49.5121 30.0984 55.5371 27.9739 61.9586C27.6647 62.8938 26.7616 62.6889 26.4901 62.3089C25.4924 60.9157 24.7567 60.8696 23.9833 59.7427C23.8904 59.5603 23.7085 59.3121 23.8179 58.8649C24.3866 56.5406 25.8966 51.7645 28.1934 45.4767C25.2999 46.1038 22.1694 46.778 20.877 47.0783C19.326 51.1782 17.8133 55.2904 16.3803 59.3529C15.4912 61.8729 13.1771 61.3858 13.9892 59.0041C15.2827 55.2099 16.7106 51.2694 18.1424 47.4481C16.5395 47.2768 15.9973 46.1449 15.1014 45.1991C14.7555 44.8338 14.0013 44.8852 13.632 44.373C12.9676 43.4528 13.0339 43.044 14.5681 42.6013C16.5691 42.0235 18.5817 41.4864 20.6045 40.9903C23.197 34.2997 25.5398 28.5604 26.7885 25.4979C27.7511 23.1381 30.2325 23.3578 29.2899 25.6858C27.3742 30.4169 25.4101 35.3319 23.4716 40.3159C25.8622 39.7773 28.2664 39.3008 30.6817 38.8867C32.4523 34.3408 34.3121 29.8301 36.2599 25.3572C36.396 25.0451 36.7932 24.6035 37.207 24.5326C38.5108 24.3094 40.631 23.1634 41.364 23.3399ZM36.9247 53.9663C37.1285 53.8417 37.3313 53.69 37.5316 53.5232C37.3775 53.0693 37.226 52.6145 37.0772 52.1588C36.9263 52.3518 36.7784 52.5472 36.6338 52.745C35.766 53.9367 36.2798 54.3607 36.9247 53.9663ZM38.0795 48.3164C39.1542 47.1031 37.0296 46.5954 37.5187 48.4511C37.5461 48.5558 37.5803 48.6788 37.6186 48.8143C37.7758 48.6516 37.9294 48.4857 38.0795 48.3164ZM39.1978 51.9732C40.2616 51.0514 41.2776 51.9658 40.2258 53.5245C39.9996 53.8596 39.744 54.2202 39.4638 54.5754C39.574 54.8928 39.6893 55.2085 39.8096 55.5223C40.3534 56.9167 38.9254 57.2663 38.465 56.1114C38.4247 56.0105 38.3829 55.9024 38.3397 55.7899C37.4717 56.5588 36.4677 57.043 35.3951 56.7095C33.6301 56.1605 33.1812 53.6755 34.8289 51.7611C35.49 50.993 35.9876 50.4602 36.4033 50.0345C36.3013 49.7044 36.2036 49.373 36.1102 49.0404C35.8962 48.2653 35.703 47.3621 36.4787 46.4414C37.9331 44.7154 41.3078 46.2476 39.6008 48.9049C39.1896 49.5448 38.709 50.1494 38.2075 50.7621C38.3797 51.3099 38.5547 51.8566 38.7328 52.4024C38.8842 52.2555 39.0393 52.1123 39.1978 51.9732Z" fill="black"/>
</svg>
