<svg width="86" height="86" viewBox="0 0 86 86" fill="none" xmlns="http://www.w3.org/2000/svg">
<mask id="mask0_476_785" style="mask-type:luminance" maskUnits="userSpaceOnUse" x="10" y="10" width="66" height="66">
<path d="M75.5 75.5H10.5V10.5H75.5V75.5Z" fill="white"/>
</mask>
<g mask="url(#mask0_476_785)">
<path fill-rule="evenodd" clip-rule="evenodd" d="M10.5 44.0184C10.5 61.439 25.3866 74.9773 42.6979 74.9773C60.8174 74.9773 75.5 60.4359 75.5 42.6783C75.5 32.291 70.4486 23.1787 62.9726 17.0796L57.5152 26.4599C62.0297 30.2809 65.1279 36.1772 65.1279 42.8123C65.1279 54.8727 55.0906 64.791 42.6979 64.791C30.3706 64.791 20.3333 54.8747 20.3333 42.4773C20.3333 41.0032 20.468 39.5292 20.7374 38.1202L10.5 44.0184ZM52.8006 11.5854C49.7024 10.4463 46.941 9.97729 44.1796 9.97729C42.0917 9.97729 40.2732 10.2453 38.9262 10.5133L31.9216 22.5737C34.481 21.0997 37.7812 20.2957 41.3508 20.2957C43.4387 20.2957 45.3246 20.5637 47.2778 21.0997L52.8006 11.5854Z" fill="black"/>
</g>
</svg>
