<svg width="86" height="86" viewBox="0 0 86 86" fill="none" xmlns="http://www.w3.org/2000/svg">
<path d="M27.2319 41.0127C27.998 40.1191 28.9836 39.2885 30.1914 39.1355C30.9381 39.0212 31.698 39.3744 32.1521 39.9639C32.8059 40.8046 32.9753 41.9092 32.9703 42.9459C32.8845 46.1807 34.5261 49.3688 37.1498 51.2468C36.402 52.0662 35.6778 52.9067 34.9452 53.739C31.7665 51.3693 29.7579 47.5162 29.6373 43.5518C29.5947 43.2907 29.7231 42.9531 29.4761 42.7674C29.2232 43.1468 29.0642 43.5774 28.8702 43.9876C28.0032 45.8523 27.0238 47.6673 25.9078 49.3944C24.7367 51.0305 23.2075 52.4843 21.3149 53.2383C20.3755 53.5974 19.3492 53.8137 18.3433 53.6688C16.8743 53.3209 15.5532 52.4303 14.6626 51.2143C13.8739 50.1431 13.3883 48.8649 13.1884 47.5539C12.6376 44.93 12.863 42.2327 13.0476 39.5824C14.1127 39.5723 15.1777 39.6243 16.2429 39.6221C16.1184 40.7627 16.0244 41.9092 16.0408 43.058C16.0306 44.4915 16.0804 45.9319 16.3416 47.3439C16.5346 48.2181 16.9527 49.0861 17.6915 49.6248C18.3393 50.1136 19.2155 50.2041 19.9908 50.0328C20.8427 49.8512 21.5852 49.3423 22.2045 48.7466C22.9919 47.9773 23.6164 47.0552 24.1286 46.085C24.4284 45.4431 24.8081 44.8444 25.1538 44.2281C25.8026 43.1294 26.3718 41.9685 27.2319 41.0127Z" fill="black"/>
<path d="M62.7638 44.6016C62.8568 44.677 62.9617 44.7311 63.079 44.7618C64.5277 45.2065 65.9743 45.6544 67.4199 46.1083C67.5167 45.432 67.5494 44.7494 67.6218 44.0711C66.0028 44.2527 64.3828 44.425 62.7638 44.6016ZM59.8024 43.1223C64.1941 41.9727 68.5848 40.824 72.9788 39.6834C72.9991 40.9269 73.0879 42.1674 73.1102 43.4109C72.331 43.5285 71.5463 43.6101 70.773 43.7549C70.6577 43.968 70.7212 44.2547 70.6822 44.4965C70.5967 45.3442 70.5751 46.1961 70.4752 47.0428C71.2608 47.2885 72.0473 47.5306 72.833 47.7744C72.5014 49.0035 72.1839 50.2359 71.8605 51.4663C67.8331 49.5901 63.8176 47.6866 59.7994 45.7901C59.8004 44.9005 59.7942 44.0109 59.8024 43.1223Z" fill="black"/>
<path d="M60.0186 53.0862C60.0809 53.1964 60.1595 53.2953 60.2532 53.3819C61.3172 54.3962 62.3611 55.4307 63.4372 56.4314C63.8461 55.8305 64.3012 55.259 64.6787 54.6388C63.1219 54.1328 61.5835 53.5666 60.0186 53.0862ZM57.9448 50.4941C62.4069 51.2215 66.8721 51.9273 71.3342 52.6527C70.8385 53.9002 70.3283 55.1427 69.807 56.3793C68.9685 56.0978 68.131 55.8151 67.2944 55.5316C66.6313 56.4393 66.006 57.3758 65.3684 58.3021C66.0467 58.9387 66.7057 59.597 67.379 60.2386C66.7394 61.1158 66.0693 61.9709 65.4245 62.8449C62.4496 59.4794 59.5127 56.0802 56.5532 52.7026C57.0031 51.9578 57.4785 51.2284 57.9448 50.4941Z" fill="black"/>
<path d="M16.1958 56.8128C20.3631 54.7705 24.5306 52.7271 28.6989 50.6868C29.0672 51.3643 29.4374 52.0416 29.8159 52.7127C28.3001 53.7075 26.7361 54.6296 25.2253 55.6306C25.9455 56.3915 26.6526 57.1657 27.3656 57.9341C28.6428 56.7181 29.9067 55.4887 31.1799 54.2695C31.7563 54.8275 32.3173 55.4009 32.8845 55.9691C29.9588 59.4164 27.0045 62.8379 24.0837 66.289C23.1472 65.4616 22.2157 64.6271 21.2916 63.7856C22.6197 62.4939 23.9592 61.2147 25.2947 59.9315C24.4835 58.9869 23.6482 58.0625 22.8218 57.13C21.2618 58.1064 19.7051 59.0878 18.1496 60.0702C17.5087 58.9777 16.8364 57.9043 16.1958 56.8128Z" fill="black"/>
<path d="M53.3264 56.4048C53.7723 55.9314 54.2212 55.4602 54.6792 54.9979C57.8825 58.0615 61.0838 61.1272 64.2697 64.2079C63.3464 65.0281 62.4355 65.8626 61.5233 66.6962C58.7873 63.2685 56.0604 59.8336 53.3264 56.4048Z" fill="black"/>
<path d="M32.4215 64.9262C33.0385 65.2057 33.6466 65.5045 34.2721 65.7679C34.53 64.4845 34.785 63.199 34.9993 61.9074C34.1201 62.896 33.2917 63.9294 32.4215 64.9262ZM25.4098 67.2175C28.6651 64.0405 31.9389 60.8844 35.1932 57.7076C35.9308 57.9452 36.6664 58.189 37.4027 58.4308C37.2172 63.1093 37.0682 67.7907 36.8908 72.4701C35.6543 72.1611 34.4239 71.8285 33.1938 71.4969C33.3773 70.4838 33.5864 69.4759 33.759 68.462C32.76 67.9437 31.7461 67.4551 30.7514 66.9276C30.0679 67.7222 29.3978 68.5282 28.7224 69.3301C27.6143 68.6324 26.5117 67.9253 25.4098 67.2175Z" fill="black"/>
<path d="M54.1936 67.25C53.8477 67.4856 53.7323 67.9286 53.7323 68.3254C54.0558 68.4355 54.4394 68.5325 54.7484 68.3323C55.1443 68.0875 55.2209 67.5662 55.2078 67.1399C54.8677 67.1287 54.5089 67.1002 54.1936 67.25ZM49.661 61.2036C49.511 61.9382 49.6886 62.6921 49.91 63.394C50.472 64.9894 51.3934 66.4819 52.653 67.6203C52.7939 67.2267 52.9489 66.8316 53.2071 66.4983C53.6039 65.9482 54.2487 65.626 54.9119 65.5392C54.3558 63.9049 53.404 62.3766 52.1062 61.2291C51.6198 60.8333 51.0484 60.4119 50.3875 60.468C49.9996 60.4905 49.7253 60.8434 49.661 61.2036ZM48.0165 59.2644C48.548 58.5114 49.4713 58.0799 50.3862 58.0963C51.3321 58.1074 52.2379 58.4727 53.0327 58.9653C54.6485 59.9846 55.8667 61.5443 56.6787 63.2571C57.1122 64.1926 57.4163 65.1933 57.5306 66.2195C58.3711 66.7778 59.377 67.0104 60.3676 67.1091C60.3738 67.5295 60.3787 67.9499 60.3849 68.3703C59.9239 68.5845 59.3862 68.5426 58.919 68.3703C58.4589 68.1619 57.9946 67.963 57.5234 67.7805C57.3763 68.6324 57.0614 69.4994 56.397 70.084C55.6095 70.8094 54.4362 70.9552 53.4335 70.6686C51.8289 70.2278 50.4976 69.1066 49.4783 67.8244C48.2747 66.2716 47.4238 64.3987 47.2697 62.4257C47.1963 61.3362 47.3605 60.1681 48.0165 59.2644Z" fill="black"/>
<path d="M42.2404 61.4627C42.2178 62.645 42.2119 63.8275 42.2007 65.0098C43.5045 64.764 44.1451 62.9664 43.3239 61.9379C43.0697 61.6024 42.6496 61.4588 42.2404 61.4627ZM42.629 59.099C42.9698 59.1019 43.3259 59.0042 43.6563 59.1235C44.5429 59.4 45.3591 59.9692 45.8293 60.7822C46.6311 62.1338 46.5751 63.9121 45.7713 65.2506C45.3906 65.8718 44.7458 66.3257 44.0206 66.439C44.2666 66.7696 44.597 67.0256 44.8703 67.3338C46.5046 69.0833 47.9329 71.0195 49.2089 73.0435C47.8573 73.0477 46.5076 73.0638 45.157 73.069C44.3113 71.2928 43.4698 69.5138 42.628 67.7356C42.5219 67.5203 42.4455 67.2837 42.2843 67.1022C42.2302 69.0597 42.2161 71.0185 42.1985 72.9773C40.9314 72.9272 39.6695 72.8233 38.4037 72.763C38.9647 68.2294 39.489 63.6908 40.0686 59.1602C40.9225 59.154 41.7751 59.1133 42.629 59.099Z" fill="black"/>
<path d="M38.7628 13.1879C39.9064 13.0368 41.0539 12.9562 42.2047 12.8972C42.1965 13.9458 42.2099 14.9946 42.1985 16.0422C41.0457 16.0678 39.8982 16.1769 38.7606 16.3607C38.7678 15.3027 38.7638 14.2459 38.7628 13.1879Z" fill="black"/>
<path d="M43.9777 12.9034C45.1406 12.9654 46.3037 13.0339 47.4555 13.2206C47.4555 14.2764 47.4545 15.3322 47.4555 16.3892C46.3067 16.1811 45.1406 16.0943 43.9757 16.0363C43.9757 14.9926 43.9809 13.948 43.9777 12.9034Z" fill="black"/>
<path d="M32.4889 14.8245C33.907 14.2461 35.375 13.7962 36.8623 13.4361C36.8623 14.5113 36.8502 15.5866 36.8695 16.6607C34.6121 17.2433 32.4299 18.1299 30.4059 19.2886C30.1641 19.4069 29.8856 19.363 29.6284 19.3499C28.0136 19.3306 26.3966 19.3263 24.7806 19.3345C27.1292 17.4891 29.708 15.9242 32.4889 14.8245Z" fill="black"/>
<path d="M49.6038 13.6001C53.905 14.5814 58.0028 16.479 61.4826 19.1976C61.653 19.3323 61.8273 19.463 62.0151 19.5751C60.1461 19.5466 58.2721 19.6088 56.4074 19.5446C54.2824 18.3417 51.9983 17.4073 49.6221 16.8329C49.6018 15.7555 49.6181 14.6774 49.6038 13.6001Z" fill="black"/>
<path d="M38.8127 27.9017C38.8146 27.061 38.8146 26.2215 38.8136 25.382C39.738 25.345 40.697 25.4348 41.5182 25.8961C42.2813 26.3184 42.8465 27.058 43.0821 27.8945C41.659 27.9087 40.2357 27.8945 38.8127 27.9017ZM20.2123 33.0727C19.4328 33.0645 18.6523 33.0717 17.8731 33.0841C17.9842 32.9187 18.0546 32.7332 18.131 32.5514C18.5595 31.511 19.0707 30.5051 19.6307 29.5287C19.8155 29.243 19.9449 28.9146 20.2041 28.6842C20.2264 30.146 20.211 31.61 20.2123 33.0727ZM46.1475 27.9486C46.0649 26.4958 45.5999 25.0114 44.5989 23.9252C43.7175 23.0008 42.4628 22.4825 41.1978 22.4041C39.544 22.3999 37.8893 22.4071 36.2358 22.4009C36.2277 25.1156 36.2316 27.8293 36.2336 30.5428C38.5148 30.5539 40.797 30.547 43.0789 30.547C43.0658 31.3895 43.0809 32.2332 43.071 33.0759C38.927 33.0625 34.781 33.0687 30.6361 33.0737C30.5904 29.5396 30.6281 26.0032 30.617 22.4689C29.6341 23.2141 28.5716 24.0139 27.6476 24.7034C27.6476 27.4724 27.6371 30.2417 27.6562 33.0105C27.4911 33.1045 27.2932 33.0606 27.1126 33.0707C25.5772 33.0707 24.0418 33.0635 22.5076 33.0737C22.5197 29.0279 22.5096 24.9809 22.5158 20.9339C22.3893 21.0686 22.2616 21.2023 22.1363 21.3379C21.466 21.9255 20.8896 22.6102 20.2887 23.2662C17.1598 26.8765 14.8533 31.2303 13.7598 35.8864C24.5581 35.8732 35.3564 35.8792 46.1547 35.8834C46.1406 33.2381 46.1547 30.5939 46.1475 27.9486Z" fill="black"/>
<path d="M46.2976 22.358C47.7615 22.3602 49.2245 22.352 50.6883 22.3602C51.073 22.7866 51.4494 23.2211 51.8381 23.6434C52.2083 24.1136 52.5776 24.5851 52.9541 25.0504C51.5963 25.0392 50.2384 25.0605 48.8815 25.037C48.0817 24.0893 47.2566 23.1477 46.2976 22.358Z" fill="black"/>
<path d="M53.3407 22.3501C54.5977 22.3662 55.8543 22.353 57.1122 22.355C57.2449 22.3704 57.4284 22.3153 57.512 22.4582C58.263 23.2915 58.9904 24.1464 59.6667 25.0412C58.3242 25.0576 56.9818 25.0422 55.6383 25.0472C54.9424 24.0913 54.1865 23.1772 53.3407 22.3501Z" fill="black"/>
<path d="M60.5553 22.3979C62.0282 22.3887 63.5014 22.3602 64.9746 22.358C65.7856 23.2109 66.5293 24.1228 67.2515 25.0514C65.9049 25.0432 64.5572 25.0514 63.2107 25.0452C62.3814 24.1107 61.4786 23.2374 60.5553 22.3979Z" fill="black"/>
<path d="M51.684 28.2881C51.9278 28.2484 52.1746 28.273 52.4206 28.2556C52.6235 28.2812 52.8286 28.2851 53.0325 28.2527C53.2346 28.2842 53.4387 28.2822 53.6428 28.2546C53.7785 28.274 53.9151 28.274 54.0528 28.2566C54.5629 28.2943 55.0761 28.2638 55.5872 28.273C56.9624 29.7206 58.0539 31.3986 59.1097 33.0841C60.0615 33.0625 61.0134 33.0668 61.9652 33.0737C61.1418 31.3436 60.0809 29.7256 58.8639 28.2465C59.3004 28.2527 59.7361 28.2943 60.1739 28.2638C60.8552 28.2189 61.5387 28.33 62.2192 28.2445C62.3588 28.2321 62.5456 28.2127 62.6354 28.3516C63.7452 29.8144 64.6502 31.4202 65.4408 33.0737C66.3396 33.0625 67.2384 33.0727 68.1369 33.0687C67.8463 32.1005 67.3495 31.2059 66.8944 30.3062C66.514 29.6145 66.1315 28.9208 65.6754 28.276C66.8813 28.2596 68.0829 28.2527 69.2899 28.2107C70.6579 30.605 71.6973 33.1962 72.332 35.8802C66.3599 35.8772 60.3869 35.8844 54.4151 35.8772C54.4159 35.9139 54.4181 35.9883 54.4191 36.025C56.0011 38.4714 56.6571 41.4891 56.3697 44.3802C56.043 47.9406 54.1812 51.3122 51.3872 53.5329C49.2479 55.2367 46.5813 56.2751 43.8482 56.4262C41.818 56.569 39.7635 56.1876 37.8824 55.4222C38.6505 54.5306 39.4369 53.6554 40.2082 52.7658C42.6169 53.4575 45.2723 53.236 47.5207 52.1212C49.5162 51.1376 51.1749 49.479 52.1401 47.4733C53.6212 44.4617 53.4702 40.7076 51.7086 37.8451C51.1647 36.9064 50.4343 36.0905 49.6243 35.3742C49.606 34.6061 49.6273 33.8368 49.606 33.0677C51.5218 33.0737 53.4387 33.0635 55.3556 33.0727C55.3494 32.9921 55.3352 32.9127 55.3136 32.8351C54.2212 31.2325 53.1133 29.6145 51.684 28.2881Z" fill="black"/>
<path d="M42.8341 41.633C42.0058 41.8063 41.3733 42.6143 41.4202 43.462C41.414 44.3811 42.22 45.2127 43.1392 45.2301C44.1176 45.3117 45.0786 44.4555 45.0325 43.46C45.1408 42.3155 43.9328 41.3411 42.8341 41.633ZM42.4852 38.643C43.7309 38.453 45.0419 38.7613 46.059 39.508C47.1567 40.3118 47.9277 41.5871 48.0217 42.9551C48.1879 44.3995 47.6177 45.9002 46.5577 46.892C45.7068 47.7211 44.5317 48.2171 43.3413 48.2292C41.9782 48.2843 40.6164 47.6824 39.6983 46.6807C38.8791 45.8206 38.4374 44.6413 38.3965 43.462C38.4086 42.2165 38.8851 40.9728 39.7573 40.076C40.4775 39.3171 41.4549 38.8131 42.4852 38.643Z" fill="black"/>
<path d="M17.5405 39.4907C18.6451 39.5018 19.749 39.4946 20.8539 39.4936C20.8385 40.5871 20.8487 41.6818 20.8477 42.7755C19.748 42.7959 18.6473 42.7979 17.5474 42.7755C17.5608 41.6808 17.5752 40.5851 17.5405 39.4907Z" fill="black"/>
<path d="M21.7526 39.4946C22.8585 39.4946 23.9634 39.5018 25.068 39.4907C25.0336 40.5851 25.0467 41.6808 25.0621 42.7755C23.9612 42.7991 22.8595 42.7949 21.7586 42.7755C21.7566 41.6818 21.768 40.5884 21.7526 39.4946Z" fill="black"/>
<path d="M65.2804 66.8587C64.4064 67.0732 63.7782 67.9722 63.8823 68.8665C63.9305 69.4513 64.2727 70.0009 64.7754 70.3032C65.1636 70.5408 65.64 70.6291 66.0881 70.5498C66.7263 70.452 67.2882 69.9893 67.5206 69.3896C67.878 68.5325 67.4946 67.4544 66.667 67.0285C66.2486 66.7966 65.7424 66.7443 65.2804 66.8587ZM65.2201 66.5618C65.725 66.4363 66.2764 66.4884 66.7414 66.7255C67.3086 67.0087 67.7421 67.5469 67.8926 68.1627C68.0085 68.6537 67.9641 69.1884 67.7361 69.6418C67.4346 70.2735 66.8131 70.7467 66.1189 70.8518C65.6705 70.9429 65.199 70.8484 64.7898 70.6547C64.1628 70.3439 63.6978 69.7222 63.5974 69.027C63.3982 67.9489 64.1581 66.8157 65.2201 66.5618Z" fill="black"/>
<path d="M65.1472 67.8229C65.145 68.0984 65.1432 68.3737 65.1479 68.6498C65.4361 68.6475 65.7243 68.6579 66.012 68.6441C66.1921 68.6359 66.3967 68.5511 66.4485 68.3608C66.5403 68.1436 66.3753 67.8827 66.1469 67.8519C65.8173 67.7922 65.4795 67.8333 65.1472 67.8229ZM64.8416 67.5754C65.2491 67.5749 65.6564 67.5724 66.0638 67.5759C66.2625 67.5764 66.481 67.6195 66.6181 67.7758C66.8391 68.0121 66.8565 68.4226 66.6246 68.6584C66.4951 68.805 66.2997 68.8591 66.1142 68.8938C66.5222 69.1594 66.7111 69.6267 66.9815 70.0126C66.8547 70.016 66.728 70.0168 66.6018 70.0173C66.4234 69.747 66.262 69.465 66.069 69.2048C65.98 69.0905 65.8771 68.9647 65.728 68.934C65.5343 68.9112 65.3392 68.9265 65.145 68.9246C65.1415 69.2891 65.1455 69.653 65.1422 70.0173C65.0415 70.016 64.9416 70.0148 64.8416 70.0143V67.5754Z" fill="black"/>
</svg>
