<svg width="86" height="86" viewBox="0 0 86 86" fill="none" xmlns="http://www.w3.org/2000/svg">
<path d="M60.3936 10.5C68.7365 10.5002 75.4998 17.2635 75.5 25.6064V60.3936C75.4998 68.7365 68.7365 75.4998 60.3936 75.5H25.6064C17.2635 75.4998 10.5002 68.7365 10.5 60.3936V25.6064C10.5002 17.2635 17.2635 10.5002 25.6064 10.5H60.3936ZM58.6201 25.918C52.8089 20.4462 38.7429 18.4653 31.5078 24.4316C26.4224 28.3979 25.8408 36.849 30.9551 41.4717C35.7291 45.8457 43.998 47.0051 47.1416 48.9482C53.244 51.9396 49.3789 57.8062 42.6953 57.1963C39.1424 56.9466 35.9827 55.9476 32.4375 53.334L26.0156 59.3164C30.7487 63.0556 36.2152 65.0379 42.6953 65.125C46.5891 65.1773 49.1811 64.7858 52.1104 63.5859C52.1104 63.5859 60.1308 60.1876 59.8984 52.9854C59.6707 45.9282 55.6556 43.708 52.1104 41.7754C46.6763 38.8131 35.1696 37.8835 37.2324 31.7559C39.6734 27.1382 47.8677 27.9514 52.1104 31.7559L58.6201 25.918Z" fill="black"/>
</svg>
