<svg width="86" height="86" viewBox="0 0 86 86" fill="none" xmlns="http://www.w3.org/2000/svg">
<g clip-path="url(#clip0_476_778)">
<path d="M61.0527 10.5C69.0317 10.5 75.5 16.9683 75.5 24.9473V61.0527C75.5 69.0317 69.0317 75.5 61.0527 75.5H24.9473C16.9683 75.5 10.5 69.0317 10.5 61.0527V24.9473C10.5 16.9683 16.9683 10.5 24.9473 10.5H61.0527Z" fill="#FCFCFC"/>
<path d="M61.0527 10.5C69.0317 10.5 75.5 16.9683 75.5 24.9473V61.0527C75.5 69.0317 69.0317 75.5 61.0527 75.5H24.9473C16.9683 75.5 10.5 69.0317 10.5 61.0527V24.9473C10.5 16.9683 16.9683 10.5 24.9473 10.5L61.0527 10.5ZM44.8027 44.2645H43.9395C43.1714 44.2645 42.543 44.8865 42.5493 45.6546V55.2078C42.5493 55.9759 43.1714 56.6043 43.9395 56.6043C44.7075 56.6043 45.3359 55.9822 45.3359 55.2078V48.9363L47.6846 52.2498C48.1733 52.9353 49.189 52.9353 49.6841 52.2498L52.0327 48.9363V55.2078C52.0327 55.9759 52.6548 56.6043 53.4292 56.6043C54.1973 56.6043 54.8257 55.9822 54.8193 55.2078V45.6546C54.8193 44.8865 54.1973 44.2581 53.4292 44.2645H52.5659C52.2358 44.2645 51.9185 44.4231 51.728 44.6961L48.6875 49.2664L45.6406 44.6961C45.4502 44.4231 45.1392 44.2645 44.8027 44.2645ZM66.3975 44.2645C65.6294 44.2645 65.001 44.8865 65.001 45.6546V51.4881C65.001 53.3226 63.9663 54.262 62.2651 54.2557C60.564 54.2557 59.5293 53.2845 59.5356 51.4056V45.6546C59.5356 44.8865 58.9136 44.2581 58.1392 44.2645C57.3711 44.2645 56.7427 44.8865 56.749 45.6546V51.469C56.749 54.8714 58.8311 56.6043 62.2334 56.6043C65.6357 56.6043 67.7939 54.8904 67.7876 51.3865V45.6546C67.7876 44.8865 67.1655 44.2581 66.3975 44.2645ZM27.24 44.2645H19.096C18.3279 44.2645 17.6995 44.8865 17.6995 45.6546C17.6995 46.4227 18.3216 47.0511 19.096 47.0511H21.7747V55.1951C21.7747 55.9632 22.3968 56.5916 23.1648 56.5916C23.9329 56.5916 24.5613 55.9695 24.5613 55.1951V47.0511H27.24C28.0081 47.0511 28.6365 46.429 28.6365 45.6546C28.6365 44.8865 28.0145 44.2581 27.24 44.2645ZM39.2942 44.2645H31.7469C30.9788 44.2645 30.3504 44.8865 30.3504 45.6546V55.1951C30.3504 55.9632 30.9725 56.5916 31.7469 56.5916H39.2942C40.0623 56.5916 40.6907 55.9695 40.6844 55.1951C40.6844 54.4271 40.0623 53.7986 39.2942 53.7986H33.137V51.8182H38.4944C39.2625 51.8182 39.8909 51.1961 39.8909 50.428C39.8909 49.66 39.2688 49.0315 38.4944 49.0315H33.137V47.0511H39.2942C40.0623 47.0511 40.6907 46.429 40.6844 45.6546C40.6844 44.8865 40.0623 44.2581 39.2942 44.2645ZM25.6785 29.7029L25.4183 29.7093C24.3328 29.7791 23.5901 30.2488 23.1712 30.8836C22.6824 30.1536 21.7684 29.6395 20.3909 29.7156L20.3592 29.7601C20.2005 30.014 19.6038 31.1502 20.5687 32.388C20.7654 32.5975 21.2479 33.1878 21.0511 33.9432L18.2518 38.469C18.0232 38.8372 18.1248 39.3133 18.4739 39.5608C19.1976 40.0687 20.6512 40.7669 23.1712 40.7669C25.6849 40.7669 27.1385 40.0687 27.8621 39.5608L27.9573 39.4783C28.2303 39.2181 28.2874 38.7991 28.0843 38.469L25.2913 33.9432L25.3104 34.0257L25.2786 33.8987C25.1263 33.2195 25.5071 32.68 25.7166 32.4388L25.7674 32.388C26.7386 31.1502 26.1355 30.0203 25.9769 29.7601L25.9515 29.7156L25.6785 29.7029ZM34.743 31.823C33.7845 29.9188 32.5403 29.595 31.9183 30.0901C31.4422 30.471 30.344 31.9754 30.2679 32.077C29.0555 33.7972 29.1253 34.2161 30.6805 35.1937C31.5564 35.7459 32.261 35.035 32.5657 34.8255C32.4197 35.7332 31.9754 37.1614 31.3089 38.1644C30.9471 37.8914 30.6805 37.6819 30.5154 37.5296C30.306 37.3392 29.9886 37.3519 29.7854 37.5486C29.6902 37.6438 29.6395 37.7708 29.6458 37.9104C29.6521 38.0438 29.7093 38.1707 29.8045 38.2596C31.4231 39.7386 33.5496 40.5765 35.8157 40.5828C38.0882 40.5828 40.2273 39.7449 41.846 38.2596C42.0555 38.0691 42.0618 37.7518 41.8714 37.5486C41.6683 37.3455 41.3509 37.3392 41.1414 37.5296C41.0145 37.6438 40.8875 37.7518 40.7542 37.8597L40.0433 36.2728C39.929 35.9998 39.8021 35.657 39.6624 35.2444C39.7322 35.073 39.8782 34.908 40.0877 34.6922C40.24 34.5398 40.367 34.3875 40.4622 34.2415C40.9319 33.4988 40.6653 33.0608 40.5193 32.7688C40.1829 32.0833 39.6561 32.3055 39.2752 32.7117C38.8055 33.2068 38.3484 33.4227 37.6121 33.5877C36.9964 33.7273 36.5203 33.6575 36.1268 33.41C35.5809 33.0735 34.743 31.823 34.743 31.823ZM52.345 29.887C50.3138 31.8167 52.2625 36.0125 48.5682 37.7962C48.1619 37.993 47.8255 37.3455 47.2796 37.3455C45.7371 37.3582 42.7918 38.7166 42.6775 39.4021C42.5823 39.9671 43.8392 40.4178 47.5462 40.4241C50.7708 40.4241 51.8118 35.5174 52.9417 35.511C54.0716 35.511 53.5447 39.9607 53.4241 40.4241H54.6048C54.5032 39.9607 54.4271 38.5643 54.4334 36.5901C54.4334 34.616 54.7889 34.178 55.0745 32.6863C55.3221 31.3914 53.4051 30.2679 52.345 29.887ZM63.9231 30.0457H60.616C58.4769 30.0457 56.6995 31.7024 56.5535 33.8353L56.3123 37.2566C56.198 38.8816 57.4866 40.2591 59.1116 40.2654H65.4212C67.0525 40.2654 68.3348 38.888 68.2269 37.2566L67.9856 33.8353C67.8333 31.7024 66.0623 30.0457 63.9231 30.0457ZM35.8284 37.9168C36.825 37.9168 37.5867 38.4056 37.866 39.3133C37.1868 39.491 36.5076 39.5799 35.8157 39.5735C34.7747 39.5735 34.4065 39.4783 33.74 39.3006C34.0066 38.5008 34.889 37.9168 35.8284 37.9168ZM60.7684 32.8831V32.9783C60.7684 33.8035 61.4412 34.4827 62.2664 34.4827C63.0916 34.4827 63.7708 33.8099 63.7708 32.9783V32.8831C63.7708 32.5149 65.1038 32.5149 65.1038 32.8831V32.9783C65.1038 34.5398 63.8343 35.8094 62.2664 35.8094C60.7049 35.8094 59.4354 34.5398 59.4354 32.9783V32.8831C59.4354 32.5149 60.762 32.5149 60.7684 32.8831Z" fill="black"/>
</g>
<defs>
<clipPath id="clip0_476_778">
<rect width="65" height="65" fill="white" transform="translate(10.5 10.5)"/>
</clipPath>
</defs>
</svg>
