<svg width="26" height="25" viewBox="0 0 26 25" fill="none" xmlns="http://www.w3.org/2000/svg">
<g clip-path="url(#clip0_476_930)">
<path d="M18.753 14.4935C18.547 14.4935 18.3456 14.4324 18.1743 14.3179C18.003 14.2035 17.8695 14.0408 17.7907 13.8505C17.7118 13.6601 17.6912 13.4507 17.7314 13.2486C17.7716 13.0465 17.8708 12.8609 18.0165 12.7153C18.1621 12.5696 18.3478 12.4704 18.5498 12.4302C18.7519 12.39 18.9613 12.4106 19.1517 12.4895C19.342 12.5683 19.5047 12.7018 19.6192 12.8731C19.7336 13.0444 19.7947 13.2458 19.7947 13.4518C19.7947 13.7281 19.685 13.993 19.4896 14.1884C19.2943 14.3837 19.0293 14.4935 18.753 14.4935ZM7.24696 14.4935C7.04094 14.4935 6.83954 14.4324 6.66824 14.3179C6.49694 14.2035 6.36343 14.0408 6.28459 13.8505C6.20575 13.6601 6.18512 13.4507 6.22531 13.2486C6.2655 13.0465 6.36471 12.8609 6.51039 12.7153C6.65607 12.5696 6.84168 12.4704 7.04374 12.4302C7.24581 12.39 7.45525 12.4106 7.64559 12.4895C7.83593 12.5683 7.99862 12.7018 8.11308 12.8731C8.22754 13.0444 8.28863 13.2458 8.28863 13.4518C8.28863 13.7281 8.17888 13.993 7.98353 14.1884C7.78818 14.3837 7.52323 14.4935 7.24696 14.4935ZM19.1263 8.22266L21.207 4.62023C21.2401 4.5709 21.2628 4.51529 21.2735 4.45685C21.2842 4.39842 21.2829 4.3384 21.2695 4.28052C21.2561 4.22263 21.2309 4.16812 21.1956 4.12035C21.1603 4.07257 21.1155 4.03256 21.0641 4.00279C21.0127 3.97302 20.9557 3.95412 20.8967 3.94726C20.8377 3.94041 20.7779 3.94575 20.721 3.96294C20.6641 3.98013 20.6114 4.00882 20.5661 4.04723C20.5207 4.08563 20.4838 4.13293 20.4575 4.1862L18.3507 7.83508C16.6678 7.08031 14.8444 6.69012 13 6.69012C11.1556 6.69012 9.33215 7.08031 7.64931 7.83508L5.54253 4.1862C5.51623 4.13293 5.47926 4.08563 5.43393 4.04723C5.38859 4.00882 5.33586 3.98013 5.27899 3.96294C5.22212 3.94575 5.16232 3.94041 5.1033 3.94726C5.04429 3.95412 4.9873 3.97302 4.93589 4.00279C4.88447 4.03256 4.83972 4.07257 4.80439 4.12035C4.76907 4.16812 4.74393 4.22263 4.73053 4.28052C4.71713 4.3384 4.71576 4.39842 4.7265 4.45685C4.73724 4.51529 4.75986 4.5709 4.79297 4.62023L6.8737 8.22266C3.30078 10.1658 0.857639 13.7826 0.5 18.0556H25.5C25.1424 13.7826 22.6988 10.1658 19.1263 8.22266Z" fill="#44AA54"/>
</g>
<defs>
<clipPath id="clip0_476_930">
<rect width="25" height="25" fill="white" transform="translate(0.5)"/>
</clipPath>
</defs>
</svg>
