<svg width="1051" height="1181" viewBox="0 0 1051 1181" fill="none" xmlns="http://www.w3.org/2000/svg">
<path d="M203.305 583L171.438 481.707H30.3106L-0.987707 583H-77.2418L55.9183 185.796H149.244L281.266 583H203.305ZM102.012 254.083H99.1669L48.5205 417.404H153.228L102.012 254.083ZM458.497 252.376V583H383.381V252.376H270.707V185.796H571.171V252.376H458.497ZM932.569 297.901H930.292L899.563 361.067L818.188 511.298L736.812 361.067L706.083 297.901H703.807V583H632.674V185.796H717.464L819.326 379.846H821.602L922.326 185.796H1003.7V583H932.569V297.901Z" fill="url(#paint0_linear_543_448)" fill-opacity="0.05"/>
<path d="M203.305 1024L171.438 922.707H30.3106L-0.987707 1024H-77.2418L55.9183 626.796H149.244L281.266 1024H203.305ZM102.012 695.083H99.1669L48.5205 858.404H153.228L102.012 695.083ZM458.497 693.376V1024H383.381V693.376H270.707V626.796H571.171V693.376H458.497ZM932.569 738.901H930.292L899.563 802.067L818.188 952.298L736.812 802.067L706.083 738.901H703.807V1024H632.674V626.796H717.464L819.326 820.846H821.602L922.326 626.796H1003.7V1024H932.569V738.901Z" fill="url(#paint1_linear_543_448)" fill-opacity="0.05"/>
<defs>
<linearGradient id="paint0_linear_543_448" x1="480.808" y1="0" x2="480.808" y2="740" gradientUnits="userSpaceOnUse">
<stop stop-color="#999999"/>
<stop offset="1" stop-color="white" stop-opacity="0.3"/>
</linearGradient>
<linearGradient id="paint1_linear_543_448" x1="480.808" y1="441" x2="480.808" y2="1181" gradientUnits="userSpaceOnUse">
<stop stop-color="#999999"/>
<stop offset="1" stop-color="white" stop-opacity="0.3"/>
</linearGradient>
</defs>
</svg>
