<svg width="552" height="348" viewBox="0 0 552 348" fill="none" xmlns="http://www.w3.org/2000/svg">
<mask id="path-1-outside-1_534_348" maskUnits="userSpaceOnUse" x="154.87" y="-20.6133" width="1465" height="275" fill="black">
<rect fill="white" x="154.87" y="-20.6133" width="1465" height="275"/>
<path d="M220.93 249.387L160.89 -15.8533H217.89L242.97 111.447L257.03 185.167H258.17L274.89 111.447L304.15 -15.8533H367.23L396.87 111.447L413.21 185.167H414.35L428.41 111.447L453.87 -15.8533H508.59L447.03 249.387H381.29L347.85 105.747L334.93 47.6067H333.79L320.49 105.747L287.05 249.387H220.93ZM701.377 249.387L682.377 186.307L593.837 186.307L574.837 249.387H516.317L603.717 -15.8533H675.157L761.417 249.387H701.377ZM638.677 36.5867H636.777L607.517 137.287L668.317 137.287L638.677 36.5867ZM798.114 249.387V-15.8533H855.874V198.087H956.954V249.387H798.114ZM999.618 249.387V-15.8533L1057.38 -15.8533V198.087H1158.46V249.387H999.618ZM1201.12 249.387V-15.8533L1381.62 -15.8533V35.4467H1258.88V89.7867H1364.14V140.707H1258.88V198.087H1381.62V249.387H1201.12ZM1542.52 35.4467V249.387H1484.76V35.4467L1412.94 35.4467V-15.8533L1614.34 -15.8533V35.4467H1542.52Z"/>
</mask>
<path d="M220.93 249.387L216.441 250.403L217.253 253.989H220.93V249.387ZM160.89 -15.8533V-20.4557H155.129L156.401 -14.8372L160.89 -15.8533ZM217.89 -15.8533L222.405 -16.7429L221.674 -20.4557H217.89V-15.8533ZM242.97 111.447L247.491 110.584L247.488 110.571L247.485 110.557L242.97 111.447ZM257.03 185.167L252.509 186.029L253.222 189.769H257.03V185.167ZM258.17 185.167V189.769H261.845L262.658 186.185L258.17 185.167ZM274.89 111.447L270.404 110.416L270.401 110.429L274.89 111.447ZM304.15 -15.8533V-20.4557H300.485L299.664 -16.8843L304.15 -15.8533ZM367.23 -15.8533L371.712 -16.897L370.884 -20.4557H367.23V-15.8533ZM396.87 111.447L401.363 110.451L401.358 110.427L401.352 110.403L396.87 111.447ZM413.21 185.167L408.716 186.163L409.516 189.769H413.21V185.167ZM414.35 185.167V189.769H418.157L418.871 186.029L414.35 185.167ZM428.41 111.447L423.897 110.544L423.893 110.564L423.889 110.584L428.41 111.447ZM453.87 -15.8533V-20.4557H450.097L449.357 -16.7559L453.87 -15.8533ZM508.59 -15.8533L513.073 -14.8127L514.383 -20.4557H508.59V-15.8533ZM447.03 249.387V253.989H450.686L451.513 250.427L447.03 249.387ZM381.29 249.387L376.807 250.43L377.636 253.989H381.29V249.387ZM347.85 105.747L343.357 106.745L343.362 106.768L343.367 106.79L347.85 105.747ZM334.93 47.6067L339.423 46.6083L338.622 43.0042H334.93V47.6067ZM333.79 47.6067V43.0042H330.121L329.303 46.5804L333.79 47.6067ZM320.49 105.747L324.972 106.79L324.974 106.782L324.976 106.773L320.49 105.747ZM287.05 249.387V253.989H290.704L291.532 250.43L287.05 249.387ZM220.93 249.387L225.419 248.371L165.379 -16.8694L160.89 -15.8533L156.401 -14.8372L216.441 250.403L220.93 249.387ZM160.89 -15.8533V-11.2508H217.89V-15.8533V-20.4557H160.89V-15.8533ZM217.89 -15.8533L213.374 -14.9636L238.454 112.336L242.97 111.447L247.485 110.557L222.405 -16.7429L217.89 -15.8533ZM242.97 111.447L238.449 112.309L252.509 186.029L257.03 185.167L261.551 184.304L247.491 110.584L242.97 111.447ZM257.03 185.167V189.769H258.17V185.167V180.564H257.03V185.167ZM258.17 185.167L262.658 186.185L279.378 112.465L274.89 111.447L270.401 110.429L253.681 184.149L258.17 185.167ZM274.89 111.447L279.375 112.478L308.635 -14.8223L304.15 -15.8533L299.664 -16.8843L270.404 110.416L274.89 111.447ZM304.15 -15.8533V-11.2508H367.23V-15.8533V-20.4557H304.15V-15.8533ZM367.23 -15.8533L362.747 -14.8096L392.387 112.49L396.87 111.447L401.352 110.403L371.712 -16.897L367.23 -15.8533ZM396.87 111.447L392.376 112.443L408.716 186.163L413.21 185.167L417.703 184.171L401.363 110.451L396.87 111.447ZM413.21 185.167V189.769H414.35V185.167V180.564H413.21V185.167ZM414.35 185.167L418.871 186.029L432.931 112.309L428.41 111.447L423.889 110.584L409.829 184.304L414.35 185.167ZM428.41 111.447L432.923 112.349L458.383 -14.9506L453.87 -15.8533L449.357 -16.7559L423.897 110.544L428.41 111.447ZM453.87 -15.8533V-11.2508H508.59V-15.8533V-20.4557H453.87V-15.8533ZM508.59 -15.8533L504.106 -16.8938L442.546 248.346L447.03 249.387L451.513 250.427L513.073 -14.8127L508.59 -15.8533ZM447.03 249.387V244.784H381.29V249.387V253.989H447.03V249.387ZM381.29 249.387L385.772 248.343L352.332 104.703L347.85 105.747L343.367 106.79L376.807 250.43L381.29 249.387ZM347.85 105.747L352.343 104.748L339.423 46.6083L334.93 47.6067L330.437 48.6051L343.357 106.745L347.85 105.747ZM334.93 47.6067V43.0042H333.79V47.6067V52.2092H334.93V47.6067ZM333.79 47.6067L329.303 46.5804L316.003 104.72L320.49 105.747L324.976 106.773L338.276 48.6331L333.79 47.6067ZM320.49 105.747L316.007 104.703L282.567 248.343L287.05 249.387L291.532 250.43L324.972 106.79L320.49 105.747ZM287.05 249.387V244.784H220.93V249.387V253.989H287.05V249.387ZM701.377 249.387L696.97 250.714L697.957 253.989H701.377V249.387ZM682.377 186.307L686.784 184.979L685.798 181.704H682.377V186.307ZM593.837 186.307V181.704H590.417L589.43 184.979L593.837 186.307ZM574.837 249.387V253.989H578.258L579.244 250.714L574.837 249.387ZM516.317 249.387L511.946 247.946L509.955 253.989H516.317V249.387ZM603.717 -15.8533V-20.4557H600.388L599.346 -17.2937L603.717 -15.8533ZM675.157 -15.8533L679.534 -17.2767L678.5 -20.4557H675.157V-15.8533ZM761.417 249.387V253.989H767.754L765.794 247.963L761.417 249.387ZM638.677 36.5867L643.093 35.2872L642.12 31.9843H638.677V36.5867ZM636.777 36.5867V31.9843H633.322L632.358 35.3025L636.777 36.5867ZM607.517 137.287L603.098 136.003L601.387 141.889H607.517V137.287ZM668.317 137.287V141.889H674.47L672.733 135.987L668.317 137.287ZM701.377 249.387L705.784 248.059L686.784 184.979L682.377 186.307L677.97 187.634L696.97 250.714L701.377 249.387ZM682.377 186.307V181.704L593.837 181.704V186.307V190.909L682.377 190.909V186.307ZM593.837 186.307L589.43 184.979L570.43 248.059L574.837 249.387L579.244 250.714L598.244 187.634L593.837 186.307ZM574.837 249.387V244.784H516.317V249.387V253.989H574.837V249.387ZM516.317 249.387L520.689 250.827L608.089 -14.4129L603.717 -15.8533L599.346 -17.2937L511.946 247.946L516.317 249.387ZM603.717 -15.8533V-11.2508H675.157V-15.8533V-20.4557H603.717V-15.8533ZM675.157 -15.8533L670.781 -14.4298L757.041 250.81L761.417 249.387L765.794 247.963L679.534 -17.2767L675.157 -15.8533ZM761.417 249.387V244.784H701.377V249.387V253.989H761.417V249.387ZM638.677 36.5867V31.9843H636.777V36.5867V41.1892H638.677V36.5867ZM636.777 36.5867L632.358 35.3025L603.098 136.003L607.517 137.287L611.937 138.571L641.197 37.8709L636.777 36.5867ZM607.517 137.287V141.889L668.317 141.889V137.287V132.684L607.517 132.684V137.287ZM668.317 137.287L672.733 135.987L643.093 35.2872L638.677 36.5867L634.262 37.8863L663.902 138.586L668.317 137.287ZM798.114 249.387H793.512V253.989H798.114V249.387ZM798.114 -15.8533V-20.4557H793.512V-15.8533H798.114ZM855.874 -15.8533H860.477V-20.4557H855.874V-15.8533ZM855.874 198.087H851.272V202.689H855.874V198.087ZM956.954 198.087H961.557V193.484H956.954V198.087ZM956.954 249.387V253.989H961.557V249.387H956.954ZM798.114 249.387H802.717V-15.8533H798.114H793.512V249.387H798.114ZM798.114 -15.8533V-11.2508H855.874V-15.8533V-20.4557H798.114V-15.8533ZM855.874 -15.8533H851.272V198.087H855.874H860.477V-15.8533H855.874ZM855.874 198.087V202.689H956.954V198.087V193.484H855.874V198.087ZM956.954 198.087H952.352V249.387H956.954H961.557V198.087H956.954ZM956.954 249.387V244.784H798.114V249.387V253.989H956.954V249.387ZM999.618 249.387H995.016V253.989H999.618V249.387ZM999.618 -15.8533V-20.4557H995.016V-15.8533H999.618ZM1057.38 -15.8533H1061.98V-20.4557H1057.38V-15.8533ZM1057.38 198.087H1052.78V202.689H1057.38V198.087ZM1158.46 198.087H1163.06V193.484H1158.46V198.087ZM1158.46 249.387V253.989H1163.06V249.387H1158.46ZM999.618 249.387H1004.22V-15.8533H999.618H995.016V249.387H999.618ZM999.618 -15.8533V-11.2508H1057.38V-15.8533V-20.4557L999.618 -20.4557V-15.8533ZM1057.38 -15.8533H1052.78V198.087H1057.38H1061.98V-15.8533H1057.38ZM1057.38 198.087V202.689H1158.46V198.087V193.484H1057.38V198.087ZM1158.46 198.087H1153.86V249.387H1158.46H1163.06V198.087H1158.46ZM1158.46 249.387V244.784H999.618V249.387V253.989H1158.46V249.387ZM1201.12 249.387H1196.52V253.989H1201.12V249.387ZM1201.12 -15.8533V-20.4557H1196.52V-15.8533H1201.12ZM1381.62 -15.8533H1386.22V-20.4557H1381.62V-15.8533ZM1381.62 35.4467V40.0492H1386.22V35.4467H1381.62ZM1258.88 35.4467V30.8442H1254.28V35.4467H1258.88ZM1258.88 89.7867H1254.28V94.3892H1258.88V89.7867ZM1364.14 89.7867H1368.74V85.1842H1364.14V89.7867ZM1364.14 140.707V145.309H1368.74V140.707H1364.14ZM1258.88 140.707V136.104H1254.28V140.707H1258.88ZM1258.88 198.087H1254.28V202.689H1258.88V198.087ZM1381.62 198.087H1386.22V193.484H1381.62V198.087ZM1381.62 249.387V253.989H1386.22V249.387H1381.62ZM1201.12 249.387H1205.72V-15.8533H1201.12H1196.52V249.387H1201.12ZM1201.12 -15.8533V-11.2508H1381.62V-15.8533V-20.4557L1201.12 -20.4557V-15.8533ZM1381.62 -15.8533H1377.02V35.4467H1381.62H1386.22V-15.8533H1381.62ZM1381.62 35.4467V30.8442H1258.88V35.4467V40.0492H1381.62V35.4467ZM1258.88 35.4467H1254.28V89.7867H1258.88H1263.48V35.4467H1258.88ZM1258.88 89.7867V94.3892H1364.14V89.7867V85.1842H1258.88V89.7867ZM1364.14 89.7867H1359.54V140.707H1364.14H1368.74V89.7867H1364.14ZM1364.14 140.707V136.104H1258.88V140.707V145.309H1364.14V140.707ZM1258.88 140.707H1254.28V198.087H1258.88H1263.48V140.707H1258.88ZM1258.88 198.087V202.689H1381.62V198.087V193.484H1258.88V198.087ZM1381.62 198.087H1377.02V249.387H1381.62H1386.22V198.087H1381.62ZM1381.62 249.387V244.784H1201.12V249.387V253.989H1381.62V249.387ZM1542.52 35.4467V30.8442H1537.92V35.4467H1542.52ZM1542.52 249.387V253.989H1547.12V249.387H1542.52ZM1484.76 249.387H1480.16V253.989H1484.76V249.387ZM1484.76 35.4467H1489.36V30.8442H1484.76V35.4467ZM1412.94 35.4467H1408.34V40.0492H1412.94V35.4467ZM1412.94 -15.8533V-20.4557H1408.34V-15.8533H1412.94ZM1614.34 -15.8533H1618.94V-20.4557H1614.34V-15.8533ZM1614.34 35.4467V40.0492H1618.94V35.4467H1614.34ZM1542.52 35.4467H1537.92V249.387H1542.52H1547.12V35.4467H1542.52ZM1542.52 249.387V244.784H1484.76V249.387V253.989H1542.52V249.387ZM1484.76 249.387H1489.36V35.4467H1484.76H1480.16V249.387H1484.76ZM1484.76 35.4467V30.8442L1412.94 30.8442V35.4467V40.0492L1484.76 40.0492V35.4467ZM1412.94 35.4467H1417.54V-15.8533H1412.94H1408.34V35.4467H1412.94ZM1412.94 -15.8533V-11.2508L1614.34 -11.2508V-15.8533V-20.4557L1412.94 -20.4557V-15.8533ZM1614.34 -15.8533H1609.74V35.4467H1614.34H1618.94V-15.8533H1614.34ZM1614.34 35.4467V30.8442H1542.52V35.4467V40.0492H1614.34V35.4467Z" fill="#E20004" fill-opacity="0.1" mask="url(#path-1-outside-1_534_348)"/>
<mask id="path-3-outside-2_534_348" maskUnits="userSpaceOnUse" x="-349.13" y="278.387" width="1465" height="275" fill="black">
<rect fill="white" x="-349.13" y="278.387" width="1465" height="275"/>
<path d="M-283.07 548.387L-343.11 283.147H-286.11L-261.03 410.447L-246.97 484.167H-245.83L-229.11 410.447L-199.85 283.147H-136.77L-107.13 410.447L-90.7903 484.167H-89.6503L-75.5903 410.447L-50.1303 283.147H4.58975L-56.9702 548.387H-122.71L-156.15 404.747L-169.07 346.607H-170.21L-183.51 404.747L-216.95 548.387H-283.07ZM197.377 548.387L178.377 485.307L89.8374 485.307L70.8374 548.387H12.3174L99.7174 283.147H171.157L257.417 548.387H197.377ZM134.677 335.587H132.777L103.517 436.287L164.317 436.287L134.677 335.587ZM294.114 548.387V283.147H351.874V497.087H452.954V548.387H294.114ZM495.618 548.387V283.147H553.378V497.087H654.458V548.387H495.618ZM697.122 548.387V283.147H877.622V334.447H754.882V388.787H860.142V439.707H754.882V497.087H877.622V548.387H697.122ZM1038.52 334.447V548.387H980.762V334.447L908.942 334.447V283.147L1110.34 283.147V334.447H1038.52Z"/>
</mask>
<path d="M-283.07 548.387L-287.559 549.403L-286.747 552.989H-283.07V548.387ZM-343.11 283.147V278.544H-348.871L-347.599 284.163L-343.11 283.147ZM-286.11 283.147L-281.595 282.257L-282.326 278.544H-286.11V283.147ZM-261.03 410.447L-256.509 409.584L-256.512 409.571L-256.515 409.557L-261.03 410.447ZM-246.97 484.167L-251.491 485.029L-250.778 488.769H-246.97V484.167ZM-245.83 484.167V488.769H-242.155L-241.342 485.185L-245.83 484.167ZM-229.11 410.447L-233.596 409.416L-233.599 409.429L-229.11 410.447ZM-199.85 283.147V278.544H-203.515L-204.336 282.116L-199.85 283.147ZM-136.77 283.147L-132.288 282.103L-133.116 278.544H-136.77V283.147ZM-107.13 410.447L-102.637 409.451L-102.642 409.427L-102.648 409.403L-107.13 410.447ZM-90.7903 484.167L-95.2837 485.163L-94.4843 488.769H-90.7903V484.167ZM-89.6503 484.167V488.769H-85.8426L-85.1293 485.029L-89.6503 484.167ZM-75.5903 410.447L-80.1034 409.544L-80.1074 409.564L-80.1112 409.584L-75.5903 410.447ZM-50.1303 283.147V278.544H-53.9034L-54.6434 282.244L-50.1303 283.147ZM4.58975 283.147L9.07306 284.187L10.3828 278.544H4.58975V283.147ZM-56.9702 548.387V552.989H-53.3136L-52.4869 549.427L-56.9702 548.387ZM-122.71 548.387L-127.193 549.43L-126.364 552.989H-122.71V548.387ZM-156.15 404.747L-160.643 405.745L-160.638 405.768L-160.633 405.79L-156.15 404.747ZM-169.07 346.607L-164.577 345.608L-165.378 342.004H-169.07V346.607ZM-170.21 346.607V342.004H-173.879L-174.697 345.58L-170.21 346.607ZM-183.51 404.747L-179.028 405.79L-179.026 405.782L-179.024 405.773L-183.51 404.747ZM-216.95 548.387V552.989H-213.296L-212.468 549.43L-216.95 548.387ZM-283.07 548.387L-278.581 547.371L-338.621 282.131L-343.11 283.147L-347.599 284.163L-287.559 549.403L-283.07 548.387ZM-343.11 283.147V287.749H-286.11V283.147V278.544H-343.11V283.147ZM-286.11 283.147L-290.626 284.036L-265.546 411.336L-261.03 410.447L-256.515 409.557L-281.595 282.257L-286.11 283.147ZM-261.03 410.447L-265.551 411.309L-251.491 485.029L-246.97 484.167L-242.449 483.304L-256.509 409.584L-261.03 410.447ZM-246.97 484.167V488.769H-245.83V484.167V479.564H-246.97V484.167ZM-245.83 484.167L-241.342 485.185L-224.622 411.465L-229.11 410.447L-233.599 409.429L-250.319 483.149L-245.83 484.167ZM-229.11 410.447L-224.625 411.478L-195.365 284.178L-199.85 283.147L-204.336 282.116L-233.596 409.416L-229.11 410.447ZM-199.85 283.147V287.749H-136.77V283.147V278.544H-199.85V283.147ZM-136.77 283.147L-141.253 284.19L-111.613 411.49L-107.13 410.447L-102.648 409.403L-132.288 282.103L-136.77 283.147ZM-107.13 410.447L-111.624 411.443L-95.2837 485.163L-90.7903 484.167L-86.2968 483.171L-102.637 409.451L-107.13 410.447ZM-90.7903 484.167V488.769H-89.6503V484.167V479.564H-90.7903V484.167ZM-89.6503 484.167L-85.1293 485.029L-71.0693 411.309L-75.5903 410.447L-80.1112 409.584L-94.1712 483.304L-89.6503 484.167ZM-75.5903 410.447L-71.0771 411.349L-45.6172 284.049L-50.1303 283.147L-54.6434 282.244L-80.1034 409.544L-75.5903 410.447ZM-50.1303 283.147V287.749H4.58975V283.147V278.544H-50.1303V283.147ZM4.58975 283.147L0.106415 282.106L-61.4536 547.346L-56.9702 548.387L-52.4869 549.427L9.07306 284.187L4.58975 283.147ZM-56.9702 548.387V543.784H-122.71V548.387V552.989H-56.9702V548.387ZM-122.71 548.387L-118.228 547.343L-151.668 403.703L-156.15 404.747L-160.633 405.79L-127.193 549.43L-122.71 548.387ZM-156.15 404.747L-151.657 403.748L-164.577 345.608L-169.07 346.607L-173.563 347.605L-160.643 405.745L-156.15 404.747ZM-169.07 346.607V342.004H-170.21V346.607V351.209H-169.07V346.607ZM-170.21 346.607L-174.697 345.58L-187.997 403.72L-183.51 404.747L-179.024 405.773L-165.724 347.633L-170.21 346.607ZM-183.51 404.747L-187.993 403.703L-221.433 547.343L-216.95 548.387L-212.468 549.43L-179.028 405.79L-183.51 404.747ZM-216.95 548.387V543.784H-283.07V548.387V552.989H-216.95V548.387ZM197.377 548.387L192.97 549.714L193.957 552.989H197.377V548.387ZM178.377 485.307L182.784 483.979L181.798 480.704H178.377V485.307ZM89.8374 485.307V480.704H86.4169L85.4305 483.979L89.8374 485.307ZM70.8374 548.387V552.989H74.2578L75.2443 549.714L70.8374 548.387ZM12.3174 548.387L7.94611 546.946L5.9549 552.989H12.3174V548.387ZM99.7174 283.147V278.544H96.388L95.3461 281.706L99.7174 283.147ZM171.157 283.147L175.534 281.723L174.5 278.544H171.157V283.147ZM257.417 548.387V552.989H263.754L261.794 546.963L257.417 548.387ZM134.677 335.587L139.093 334.287L138.12 330.984H134.677V335.587ZM132.777 335.587V330.984H129.322L128.358 334.303L132.777 335.587ZM103.517 436.287L99.0977 435.003L97.3872 440.889H103.517V436.287ZM164.317 436.287V440.889H170.47L168.733 434.987L164.317 436.287ZM197.377 548.387L201.784 547.059L182.784 483.979L178.377 485.307L173.97 486.634L192.97 549.714L197.377 548.387ZM178.377 485.307V480.704L89.8374 480.704V485.307V489.909L178.377 489.909V485.307ZM89.8374 485.307L85.4305 483.979L66.4305 547.059L70.8374 548.387L75.2443 549.714L94.2443 486.634L89.8374 485.307ZM70.8374 548.387V543.784H12.3174V548.387V552.989H70.8374V548.387ZM12.3174 548.387L16.6887 549.827L104.089 284.587L99.7174 283.147L95.3461 281.706L7.94611 546.946L12.3174 548.387ZM99.7174 283.147V287.749H171.157V283.147V278.544H99.7174V283.147ZM171.157 283.147L166.781 284.57L253.041 549.81L257.417 548.387L261.794 546.963L175.534 281.723L171.157 283.147ZM257.417 548.387V543.784H197.377V548.387V552.989H257.417V548.387ZM134.677 335.587V330.984H132.777V335.587V340.189H134.677V335.587ZM132.777 335.587L128.358 334.303L99.0977 435.003L103.517 436.287L107.937 437.571L137.197 336.871L132.777 335.587ZM103.517 436.287V440.889L164.317 440.889V436.287V431.684L103.517 431.684V436.287ZM164.317 436.287L168.733 434.987L139.093 334.287L134.677 335.587L130.262 336.886L159.902 437.586L164.317 436.287ZM294.114 548.387H289.512V552.989H294.114V548.387ZM294.114 283.147V278.544H289.512V283.147H294.114ZM351.874 283.147H356.477V278.544H351.874V283.147ZM351.874 497.087H347.272V501.689H351.874V497.087ZM452.954 497.087H457.557V492.484H452.954V497.087ZM452.954 548.387V552.989H457.557V548.387H452.954ZM294.114 548.387H298.717V283.147H294.114H289.512V548.387H294.114ZM294.114 283.147V287.749H351.874V283.147V278.544H294.114V283.147ZM351.874 283.147H347.272V497.087H351.874H356.477V283.147H351.874ZM351.874 497.087V501.689H452.954V497.087V492.484H351.874V497.087ZM452.954 497.087H448.352V548.387H452.954H457.557V497.087H452.954ZM452.954 548.387V543.784H294.114V548.387V552.989H452.954V548.387ZM495.618 548.387H491.016V552.989H495.618V548.387ZM495.618 283.147V278.544H491.016V283.147H495.618ZM553.378 283.147H557.98V278.544H553.378V283.147ZM553.378 497.087H548.776V501.689H553.378V497.087ZM654.458 497.087H659.06V492.484H654.458V497.087ZM654.458 548.387V552.989H659.06V548.387H654.458ZM495.618 548.387H500.22V283.147H495.618H491.016V548.387H495.618ZM495.618 283.147V287.749H553.378V283.147V278.544H495.618V283.147ZM553.378 283.147H548.776V497.087H553.378H557.98V283.147H553.378ZM553.378 497.087V501.689H654.458V497.087V492.484H553.378V497.087ZM654.458 497.087H649.855V548.387H654.458H659.06V497.087H654.458ZM654.458 548.387V543.784H495.618V548.387V552.989H654.458V548.387ZM697.122 548.387H692.519V552.989H697.122V548.387ZM697.122 283.147V278.544H692.519V283.147H697.122ZM877.622 283.147H882.224V278.544H877.622V283.147ZM877.622 334.447V339.049H882.224V334.447H877.622ZM754.882 334.447V329.844H750.279V334.447H754.882ZM754.882 388.787H750.279V393.389H754.882V388.787ZM860.142 388.787H864.744V384.184H860.142V388.787ZM860.142 439.707V444.309H864.744V439.707H860.142ZM754.882 439.707V435.104H750.279V439.707H754.882ZM754.882 497.087H750.279V501.689H754.882V497.087ZM877.622 497.087H882.224V492.484H877.622V497.087ZM877.622 548.387V552.989H882.224V548.387H877.622ZM697.122 548.387H701.724V283.147H697.122H692.519V548.387H697.122ZM697.122 283.147V287.749H877.622V283.147V278.544H697.122V283.147ZM877.622 283.147H873.019V334.447H877.622H882.224V283.147H877.622ZM877.622 334.447V329.844H754.882V334.447V339.049H877.622V334.447ZM754.882 334.447H750.279V388.787H754.882H759.484V334.447H754.882ZM754.882 388.787V393.389H860.142V388.787V384.184H754.882V388.787ZM860.142 388.787H855.539V439.707H860.142H864.744V388.787H860.142ZM860.142 439.707V435.104H754.882V439.707V444.309H860.142V439.707ZM754.882 439.707H750.279V497.087H754.882H759.484V439.707H754.882ZM754.882 497.087V501.689H877.622V497.087V492.484H754.882V497.087ZM877.622 497.087H873.019V548.387H877.622H882.224V497.087H877.622ZM877.622 548.387V543.784H697.122V548.387V552.989H877.622V548.387ZM1038.52 334.447V329.844H1033.92V334.447H1038.52ZM1038.52 548.387V552.989H1043.12V548.387H1038.52ZM980.762 548.387H976.16V552.989H980.762V548.387ZM980.762 334.447H985.365V329.844H980.762V334.447ZM908.942 334.447H904.34V339.049H908.942V334.447ZM908.942 283.147V278.544H904.34V283.147H908.942ZM1110.34 283.147H1114.94V278.544H1110.34V283.147ZM1110.34 334.447V339.049H1114.94V334.447H1110.34ZM1038.52 334.447H1033.92V548.387H1038.52H1043.12V334.447H1038.52ZM1038.52 548.387V543.784H980.762V548.387V552.989H1038.52V548.387ZM980.762 548.387H985.365V334.447H980.762H976.16V548.387H980.762ZM980.762 334.447V329.844L908.942 329.844V334.447V339.049L980.762 339.049V334.447ZM908.942 334.447H913.545V283.147H908.942H904.34V334.447H908.942ZM908.942 283.147V287.749L1110.34 287.749V283.147V278.544L908.942 278.544V283.147ZM1110.34 283.147H1105.74V334.447H1110.34H1114.94V283.147H1110.34ZM1110.34 334.447V329.844H1038.52V334.447V339.049H1110.34V334.447Z" fill="#E20004" fill-opacity="0.1" mask="url(#path-3-outside-2_534_348)"/>
</svg>
