<svg width="177" height="138" viewBox="0 0 177 138" fill="none" xmlns="http://www.w3.org/2000/svg">
<path d="M50.5453 15.8054C50.5453 7.91336 56.9431 1.51562 64.8351 1.51562C72.7271 1.51562 79.1249 7.91337 79.1249 15.8054V137.689H50.5453V15.8054Z" fill="#D9D9D9"/>
<path d="M0.110992 88.0954C0.110992 80.2034 6.50874 73.8057 14.4008 73.8057C22.2928 73.8057 28.6905 80.2034 28.6905 88.0954V137.689H0.110992V88.0954Z" fill="#D9D9D9"/>
<g clip-path="url(#clip0_870_415)">
<path d="M100.98 52.7908C100.98 44.8987 107.378 38.501 115.27 38.501C123.162 38.501 129.56 44.8987 129.56 52.7907V137.689H100.98V52.7908Z" fill="black"/>
<path d="M94.9539 152.436L132.684 120.296" stroke="#F9F9F9" stroke-width="1.11793" stroke-linecap="round"/>
<path d="M94.9539 68.3784L132.684 36.238" stroke="#F9F9F9" stroke-width="1.11793" stroke-linecap="round"/>
<path d="M94.9539 89.5527L132.684 57.4123" stroke="#F9F9F9" stroke-width="1.11793" stroke-linecap="round"/>
<path d="M94.9539 110.514L132.684 78.3732" stroke="#F9F9F9" stroke-width="1.11793" stroke-linecap="round"/>
<path d="M94.9539 131.475L132.684 99.3341" stroke="#F9F9F9" stroke-width="1.11793" stroke-linecap="round"/>
</g>
<path d="M151.415 103.225C151.415 95.3333 157.813 88.9355 165.705 88.9355C173.597 88.9355 179.994 95.3333 179.994 103.225V137.689H151.415V103.225Z" fill="#D9D9D9"/>
<path d="M136.869 51.9791C136.684 50.4315 138.315 49.3142 139.692 50.0457L152.582 56.8964C154.208 57.7609 153.815 60.1955 151.999 60.5036L146.412 61.4512C145.855 61.5457 145.367 61.88 145.077 62.3658L142.176 67.2326C141.233 68.8149 138.82 68.3024 138.602 66.4733L136.869 51.9791Z" fill="black"/>
<path d="M131.468 0.118652C133.783 0.118875 135.66 1.99586 135.66 4.31104V19.6821C135.66 21.9973 133.783 23.8743 131.468 23.8745H117.026L115.283 27.8999C114.796 29.0228 113.204 29.0228 112.718 27.8999L110.975 23.8745H96.5325C94.2172 23.8745 92.3402 21.9974 92.3402 19.6821V4.31104C92.3402 1.99573 94.2172 0.118652 96.5325 0.118652H131.468Z" fill="black"/>
<path d="M108.002 8.66099H103.565L103.339 11.9677H103.438C103.542 11.7604 103.655 11.5673 103.777 11.3883C103.9 11.2093 104.041 11.0586 104.201 10.9361C104.361 10.8136 104.545 10.7194 104.752 10.6535C104.969 10.5781 105.228 10.5404 105.529 10.5404C105.953 10.5404 106.349 10.6111 106.716 10.7524C107.084 10.8937 107.399 11.101 107.663 11.3742C107.936 11.638 108.148 11.963 108.299 12.3492C108.459 12.7355 108.539 13.1735 108.539 13.6634C108.539 14.1627 108.459 14.6196 108.299 15.0341C108.139 15.4486 107.903 15.8113 107.593 16.1222C107.282 16.4237 106.9 16.6592 106.448 16.8288C105.996 16.9984 105.478 17.0831 104.893 17.0831C104.441 17.0831 104.036 17.0313 103.678 16.9277C103.32 16.8335 103.005 16.7016 102.731 16.532C102.458 16.3625 102.223 16.1693 102.025 15.9527C101.827 15.7266 101.653 15.491 101.502 15.2461L102.859 14.2004C102.972 14.3888 103.089 14.5678 103.212 14.7374C103.334 14.8975 103.476 15.0388 103.636 15.1613C103.805 15.2838 103.989 15.3827 104.187 15.4581C104.394 15.524 104.634 15.557 104.908 15.557C105.463 15.557 105.883 15.4015 106.165 15.0907C106.457 14.7798 106.603 14.3558 106.603 13.8189V13.7058C106.603 13.1971 106.457 12.7967 106.165 12.5047C105.873 12.2126 105.468 12.0666 104.95 12.0666C104.545 12.0666 104.215 12.1467 103.961 12.3068C103.706 12.4576 103.504 12.6224 103.353 12.8014L101.827 12.5894L102.194 7.05004H108.002V8.66099ZM113.155 17.0831C112.523 17.0831 111.977 16.9701 111.515 16.744C111.054 16.5085 110.672 16.174 110.371 15.7407C110.069 15.3073 109.843 14.7751 109.693 14.1439C109.551 13.5127 109.481 12.792 109.481 11.9818C109.481 11.181 109.551 10.4651 109.693 9.83388C109.843 9.19326 110.069 8.65628 110.371 8.22293C110.672 7.78957 111.054 7.45985 111.515 7.23375C111.977 6.99823 112.523 6.88047 113.155 6.88047C114.408 6.88047 115.331 7.32796 115.924 8.22293C116.527 9.1179 116.829 10.3709 116.829 11.9818C116.829 13.5928 116.527 14.8457 115.924 15.7407C115.331 16.6357 114.408 17.0831 113.155 17.0831ZM113.155 15.5146C113.786 15.5146 114.224 15.2791 114.469 14.808C114.723 14.3276 114.85 13.6823 114.85 12.8721V11.0915C114.85 10.2814 114.723 9.64075 114.469 9.16971C114.224 8.68925 113.786 8.44902 113.155 8.44902C112.523 8.44902 112.081 8.68925 111.826 9.16971C111.581 9.64075 111.459 10.2814 111.459 11.0915V12.8721C111.459 13.6823 111.581 14.3276 111.826 14.808C112.081 15.2791 112.523 15.5146 113.155 15.5146ZM121.345 17.0831C120.714 17.0831 120.168 16.9701 119.706 16.744C119.244 16.5085 118.863 16.174 118.561 15.7407C118.26 15.3073 118.034 14.7751 117.883 14.1439C117.742 13.5127 117.671 12.792 117.671 11.9818C117.671 11.181 117.742 10.4651 117.883 9.83388C118.034 9.19326 118.26 8.65628 118.561 8.22293C118.863 7.78957 119.244 7.45985 119.706 7.23375C120.168 6.99823 120.714 6.88047 121.345 6.88047C122.598 6.88047 123.521 7.32796 124.115 8.22293C124.718 9.1179 125.019 10.3709 125.019 11.9818C125.019 13.5928 124.718 14.8457 124.115 15.7407C123.521 16.6357 122.598 17.0831 121.345 17.0831ZM121.345 15.5146C121.976 15.5146 122.414 15.2791 122.659 14.808C122.914 14.3276 123.041 13.6823 123.041 12.8721V11.0915C123.041 10.2814 122.914 9.64075 122.659 9.16971C122.414 8.68925 121.976 8.44902 121.345 8.44902C120.714 8.44902 120.271 8.68925 120.017 9.16971C119.772 9.64075 119.649 10.2814 119.649 11.0915V12.8721C119.649 13.6823 119.772 14.3276 120.017 14.808C120.271 15.2791 120.714 15.5146 121.345 15.5146Z" fill="white"/>
<defs>
<clipPath id="clip0_870_415">
<path d="M100.98 52.7908C100.98 44.8987 107.378 38.501 115.27 38.501C123.162 38.501 129.56 44.8987 129.56 52.7907V137.689H100.98V52.7908Z" fill="white"/>
</clipPath>
</defs>
</svg>
