<svg width="45" height="42" viewBox="0 0 45 42" fill="none" xmlns="http://www.w3.org/2000/svg">
<path d="M1.86246 18.748V0.838135H18.4013V14.9775C18.4013 22.6328 17.5158 28.1458 15.7448 31.5164C13.2882 36.1438 9.46061 39.6287 4.26188 41.9709L0.491371 35.8867C3.57633 34.6299 5.86149 32.6589 7.34684 29.9739C8.88932 27.2317 9.74625 23.4897 9.91764 18.748H1.86246ZM28.4274 18.748V0.838135H44.9662V14.9775C44.9662 22.6328 44.0807 28.1458 42.3097 31.5164C39.8532 36.1438 36.0256 39.6287 30.8268 41.9709L27.0563 35.8867C30.1413 34.6299 32.4264 32.6589 33.9118 29.9739C35.4543 27.2317 36.3112 23.4897 36.4826 18.748H28.4274Z" fill="#E20004"/>
</svg>
