<svg width="100" height="99" viewBox="0 0 100 99" fill="none" xmlns="http://www.w3.org/2000/svg">
<path d="M95.2217 69.1104C95.4765 68.5047 95.4802 67.8226 95.2321 67.2141C94.9839 66.6057 94.5042 66.1207 93.8985 65.8659C93.2928 65.6112 92.6106 65.6074 92.0022 65.8556C91.3937 66.1037 90.9088 66.5834 90.654 67.1892C86.7796 76.4016 80.1133 83.8624 71.3762 88.7645C66.5145 91.4922 61.2773 93.267 55.8087 94.0399C55.1614 94.1357 54.5783 94.4836 54.1867 95.0078C53.7951 95.5319 53.6267 96.1897 53.7183 96.8376C53.8099 97.4854 54.154 98.0708 54.6756 98.4658C55.1972 98.8608 55.8539 99.0335 56.5023 98.9461C62.583 98.0863 68.4496 96.0989 73.8008 93.0859C83.5085 87.6392 90.9157 79.348 95.2217 69.1104ZM69.9671 10.215C77.7536 14.2133 84.1447 20.3809 88.4475 28.0497C92.7779 35.7678 94.707 44.4923 94.0261 53.2778C94.0007 53.6022 94.0395 53.9285 94.1403 54.2378C94.2411 54.5472 94.4019 54.8337 94.6135 55.0809C94.8252 55.3281 95.0834 55.5311 95.3736 55.6784C95.6637 55.8257 95.9801 55.9143 96.3045 55.9392C96.9596 55.99 97.608 55.7784 98.107 55.3511C98.6061 54.9238 98.9151 54.3158 98.9659 53.6608C99.7231 43.895 97.5804 34.2006 92.7689 25.6251C87.9885 17.1049 80.8862 10.2511 72.2301 5.80669C71.9406 5.6581 71.6247 5.56797 71.3004 5.54146C70.9762 5.51495 70.6498 5.55258 70.3401 5.65218C69.7145 5.85335 69.1945 6.29478 68.8944 6.87936C68.5943 7.46394 68.5387 8.14379 68.7399 8.76935C68.8395 9.0791 68.9991 9.36619 69.2097 9.61424C69.4203 9.86229 69.6776 10.0664 69.9671 10.215ZM62.2647 7.1241C62.8925 7.30484 63.5663 7.23028 64.1394 6.91666C64.7125 6.60303 65.1386 6.07573 65.3248 5.44951C65.5111 4.8233 65.4424 4.14886 65.1339 3.573C64.8253 2.99715 64.3018 2.56647 63.6772 2.37473C50.7196 -1.47678 37.0935 0.0445021 25.3081 6.65697C24.735 6.97849 24.3132 7.5145 24.1353 8.14707C23.9575 8.77964 24.0382 9.45695 24.3597 10.03C24.6812 10.6031 25.2172 11.0249 25.8498 11.2028C26.4824 11.3807 27.1597 11.2999 27.7327 10.9784C38.3393 5.02739 50.6034 3.65892 62.2647 7.1241ZM52.9676 89.2009C52.7602 88.5778 52.3145 88.0621 51.7279 87.7666C51.1413 87.4711 50.4616 87.4199 49.8374 87.6242C42.0303 90.2 35.3132 90.9938 29.8713 89.9834C29.5502 89.9211 29.22 89.9229 28.8997 89.9888C28.5794 90.0548 28.2753 90.1835 28.005 90.3675C27.7346 90.5515 27.5034 90.7872 27.3246 91.061C27.1458 91.3349 27.023 91.6414 26.9633 91.9629C26.9035 92.2844 26.908 92.6146 26.9765 92.9344C27.0449 93.2542 27.1761 93.5572 27.3622 93.8261C27.5484 94.0949 27.786 94.3243 28.0612 94.5009C28.3365 94.6775 28.6439 94.7978 28.9659 94.855C35.2365 96.0198 42.7816 95.1705 51.39 92.3316C52.014 92.1252 52.5307 91.6796 52.8265 91.0927C53.1223 90.5057 53.173 89.8253 52.9676 89.2009Z" fill="white" fill-opacity="0.5"/>
<path d="M89.0755 46.6781C89.0543 46.3501 88.9682 46.0296 88.8219 45.7352C88.6757 45.4409 88.4724 45.1785 88.2238 44.9635C87.9753 44.7485 87.6864 44.5851 87.374 44.4828C87.0617 44.3805 86.7321 44.3414 86.4045 44.3677C86.0768 44.3941 85.7577 44.4853 85.4657 44.6362C85.1737 44.7871 84.9147 44.9945 84.7036 45.2465C84.4926 45.4985 84.3338 45.7899 84.2365 46.1039C84.1392 46.4178 84.1053 46.748 84.1368 47.0751C85.2175 60.5416 78.3046 73.5134 66.4785 80.1487C65.6142 80.6336 63.8148 81.6432 61.3625 82.8544C61.0605 83.0031 60.7921 83.2118 60.5735 83.4678C60.355 83.7238 60.1909 84.0216 60.0914 84.3431C59.9919 84.6647 59.9589 85.0031 59.9946 85.3378C60.0303 85.6725 60.1339 85.9964 60.299 86.2897C60.6096 86.8425 61.1205 87.2551 61.7262 87.4425C62.332 87.6299 62.9866 87.5778 63.5551 87.2969C66.1253 86.0287 68.0017 84.9759 68.9516 84.443C82.4111 76.8912 90.3099 62.0674 89.0755 46.6781ZM32.582 19.6212C49.2619 10.2626 70.446 16.219 79.8046 32.8989C80.1261 33.472 80.6621 33.8939 81.2947 34.0717C81.9273 34.2496 82.6046 34.1689 83.1777 33.8473C83.7507 33.5258 84.1726 32.9898 84.3504 32.3572C84.5283 31.7247 84.4476 31.0474 84.1261 30.4743C73.4305 11.4115 49.2202 4.60424 30.1574 15.2998C25.6216 17.8447 19.8901 20.4945 15.8027 18.3822C15.2188 18.0805 14.5391 18.023 13.9129 18.2225C13.2867 18.422 12.7654 18.8621 12.4637 19.4459C12.162 20.0298 12.1046 20.7095 12.304 21.3357C12.5035 21.9619 12.9436 22.4832 13.5274 22.7849C19.7175 25.9835 26.9624 22.7742 32.582 19.6212Z" fill="white" fill-opacity="0.5"/>
<path d="M75.483 35.3238C72.8997 30.7139 69.1333 26.8767 64.5724 24.2079C64.2912 24.0363 63.9786 23.9225 63.653 23.8732C63.3273 23.8238 62.9951 23.8399 62.6757 23.9205C62.3563 24.001 62.0562 24.1445 61.7929 24.3424C61.5296 24.5404 61.3085 24.7888 61.1423 25.0732C60.9762 25.3577 60.8685 25.6724 60.8254 25.9989C60.7824 26.3255 60.8049 26.6574 60.8916 26.9751C60.9783 27.2929 61.1275 27.5902 61.3305 27.8496C61.5335 28.109 61.7862 28.3253 62.0738 28.4859C65.8727 30.7105 69.0098 33.9078 71.1616 37.7484C77.8463 49.6627 73.5918 64.7941 61.6775 71.4789C52.3259 76.7258 34.1174 84.8568 17.2365 80.3622C16.6042 80.2009 15.9337 80.2956 15.3708 80.6257C14.8078 80.9559 14.3979 81.4948 14.23 82.1254C14.0621 82.756 14.1497 83.4274 14.4739 83.9938C14.7982 84.5602 15.3327 84.9757 15.9616 85.1503C34.535 90.0952 54.0954 81.4148 64.1022 75.8003C78.3992 67.7786 83.5047 49.6209 75.483 35.3238ZM54.8332 20.612C48.038 19.3904 41.0295 20.5679 35.0065 23.9429C34.4335 24.2644 34.0116 24.8004 33.8338 25.433C33.6559 26.0656 33.7366 26.7429 34.0581 27.316C34.3797 27.889 34.9157 28.3109 35.5482 28.4887C36.1808 28.6666 36.8581 28.5859 37.4312 28.2644C42.4498 25.4517 48.2898 24.4704 53.952 25.4882C54.2722 25.5461 54.6007 25.5403 54.9186 25.4712C55.2365 25.4021 55.5378 25.2711 55.8051 25.0856C56.0724 24.9001 56.3006 24.6638 56.4765 24.3902C56.6525 24.1165 56.7729 23.8109 56.8307 23.4907C56.8886 23.1705 56.8828 22.8421 56.8137 22.5241C56.7447 22.2062 56.6136 21.9049 56.4282 21.6376C56.2427 21.3703 56.0063 21.1422 55.7327 20.9662C55.459 20.7902 55.1534 20.6698 54.8332 20.612ZM28.9783 32.0468C29.5932 31.8261 30.0961 31.3714 30.3774 30.7818C30.6588 30.1921 30.6958 29.5153 30.4805 28.8984C30.2653 28.2816 29.8151 27.7748 29.2279 27.4882C28.6408 27.2017 27.9643 27.1587 27.3456 27.3685C23.4106 28.7422 13.7754 31.4482 9.29399 26.9183C9.06664 26.6808 8.79429 26.4909 8.49282 26.3598C8.19135 26.2286 7.8668 26.1587 7.53806 26.1543C7.20932 26.1498 6.88298 26.2108 6.57806 26.3337C6.27313 26.4566 5.99572 26.639 5.76198 26.8702C5.52825 27.1014 5.34287 27.3768 5.21664 27.6804C5.09042 27.984 5.02587 28.3096 5.02676 28.6384C5.02766 28.9672 5.09398 29.2925 5.22186 29.5953C5.34974 29.8982 5.53663 30.1726 5.77162 30.4025C10.3929 35.0745 18.6351 35.658 28.9783 32.0468Z" fill="white" fill-opacity="0.5"/>
<path d="M53.0184 67.7053C52.4345 66.4681 50.9772 65.9164 49.7332 66.486C39.0958 71.3634 23.353 75.7996 8.75737 69.2353C8.46059 69.1019 8.14044 69.0282 7.81519 69.0185C7.48994 69.0087 7.16597 69.0632 6.86176 69.1787C6.55755 69.2942 6.27907 69.4685 6.04221 69.6916C5.80535 69.9147 5.61477 70.1823 5.48133 70.4791C5.34789 70.7758 5.27421 71.096 5.2645 71.4212C5.25479 71.7465 5.30922 72.0705 5.42472 72.3747C5.54021 72.6789 5.7145 72.9574 5.93761 73.1942C6.16073 73.4311 6.42832 73.6217 6.7251 73.7551C23.0156 81.0821 40.2277 76.2953 51.7983 70.991C52.3957 70.717 52.8599 70.217 53.0887 69.6008C53.3176 68.9846 53.2923 68.3028 53.0184 67.7053ZM42.2805 36.9071C49.4291 32.8963 58.5079 35.449 62.5188 42.5975C65.3124 47.5767 64.9853 53.8069 61.686 58.4705C61.4964 58.736 61.3612 59.0364 61.288 59.3543C61.2148 59.6722 61.2051 60.0014 61.2595 60.3231C61.3138 60.6447 61.4312 60.9525 61.6048 61.2287C61.7784 61.5049 62.0049 61.744 62.2712 61.9325C62.5374 62.121 62.8383 62.255 63.1565 62.3268C63.4747 62.3987 63.804 62.407 64.1254 62.3513C64.4469 62.2956 64.7541 62.177 65.0296 62.0023C65.3051 61.8275 65.5433 61.6001 65.7307 61.333C70.1286 55.1155 70.5645 46.8106 66.8402 40.1729C61.4925 30.6415 49.3873 27.2379 39.8559 32.5856C35.6494 34.9458 14.2471 46.213 5.95735 36.23C5.74945 35.9797 5.49429 35.7728 5.20643 35.6211C4.91857 35.4694 4.60365 35.3759 4.27965 35.3459C3.62529 35.2853 2.97368 35.4872 2.46815 35.907C2.21783 36.1149 2.01093 36.3701 1.85922 36.658C1.70752 36.9458 1.614 37.2607 1.58401 37.5847C1.52344 38.2391 1.72528 38.8907 2.14514 39.3962C12.6733 52.0745 35.527 40.6963 42.2805 36.9071ZM23.0412 64.2767C23.0348 63.6197 22.7677 62.9921 22.2986 62.532C21.8295 62.0719 21.1968 61.817 20.5398 61.8234C14.5267 61.8812 9.37884 60.1979 4.8057 56.6751C4.54789 56.4766 4.25348 56.3307 3.93931 56.2459C3.62513 56.1611 3.29733 56.139 2.97461 56.1809C2.65189 56.2228 2.34058 56.3278 2.05846 56.49C1.77633 56.6522 1.52893 56.8684 1.33035 57.1262C1.13177 57.384 0.985906 57.6784 0.901106 57.9926C0.816306 58.3067 0.794217 58.6346 0.836101 58.9573C0.877985 59.28 0.98302 59.5913 1.14521 59.8734C1.30741 60.1555 1.52358 60.403 1.78139 60.6015C7.26839 64.8275 13.42 66.8476 20.5871 66.7787C20.9125 66.7756 21.2342 66.7085 21.5337 66.5811C21.8331 66.4537 22.1046 66.2685 22.3325 66.0362C22.5604 65.8038 22.7403 65.5289 22.8619 65.227C22.9835 64.9251 23.0445 64.6022 23.0412 64.2767Z" fill="white" fill-opacity="0.5"/>
<path d="M27.069 63.7725C27.1244 64.4271 27.4375 65.0329 27.9393 65.4569C28.4412 65.8808 29.0908 66.0882 29.7455 66.0334C42.0322 65.001 51.7256 60.0169 54.404 58.5141C59.1697 55.8402 60.8715 49.7876 58.1977 45.022C55.5238 40.2563 49.4712 38.5544 44.7055 41.2283C44.1324 41.5498 43.7106 42.0859 43.5327 42.7184C43.3548 43.351 43.4356 44.0283 43.7571 44.6014C44.0786 45.1744 44.6146 45.5963 45.2472 45.7742C45.8797 45.952 46.5571 45.8713 47.1301 45.5498C49.513 44.2128 52.5393 45.0637 53.8762 47.4466C55.2132 49.8294 54.3622 52.8557 51.9794 54.1927C49.5205 55.5723 40.6222 60.1467 29.3299 61.0961C29.0056 61.1231 28.6898 61.2139 28.4007 61.3631C28.1115 61.5123 27.8546 61.717 27.6446 61.9656C27.4346 62.2142 27.2757 62.5017 27.1769 62.8118C27.0782 63.1218 27.0415 63.4483 27.069 63.7725ZM34.3354 51.4126C34.6447 51.3023 34.9289 51.1316 35.1716 50.9105C35.4143 50.6893 35.6106 50.4222 35.7491 50.1245C35.8877 49.8269 35.9657 49.5046 35.9786 49.1766C35.9915 48.8485 35.9391 48.5211 35.8244 48.2135C35.7097 47.9059 35.535 47.6241 35.3105 47.3846C35.0859 47.145 34.816 46.9525 34.5164 46.8182C34.2168 46.6839 33.8935 46.6105 33.5653 46.6022C33.2371 46.594 32.9105 46.651 32.6045 46.7701C22.6682 50.4746 9.76229 53.1964 4.70213 45.1275C4.35167 44.5738 3.7961 44.1814 3.15703 44.0364C2.51797 43.8913 1.84746 44.0053 1.29228 44.3535C0.737096 44.7017 0.342466 45.2556 0.194762 45.8941C0.0470586 46.5325 0.158318 47.2035 0.504183 47.7601C5.91255 56.3848 17.6108 57.6474 34.3354 51.4126Z" fill="white" fill-opacity="0.5"/>
</svg>
