<svg width="941" height="757" viewBox="0 0 941 757" fill="none" xmlns="http://www.w3.org/2000/svg">
<path d="M939 255.29V19.3791C939 9.91789 931.33 2.24805 921.869 2.24805H630.148C625.533 2.24805 621.113 4.11006 617.89 7.41245L592.854 33.059C589.63 36.3614 585.21 38.2234 580.595 38.2234H358.62C354.005 38.2234 349.585 36.3614 346.361 33.059L321.326 7.41245C318.102 4.11006 313.682 2.24805 309.067 2.24805H18.6311C9.16984 2.24805 1.5 9.91791 1.5 19.3792V255.29M939 255.29H753.984C744.523 255.29 736.853 262.96 736.853 272.422V407.757M939 255.29V407.757M1.5 255.29H183.09C192.551 255.29 200.221 262.96 200.221 272.422V407.757M1.5 255.29V407.757M1.5 407.757V484.847M1.5 407.757H112.096M939 407.757V483.991M939 407.757H821.464M1.5 484.847V738.388C1.5 747.849 9.16986 755.519 18.6311 755.519H921.869C931.33 755.519 939 747.849 939 738.388V483.991M1.5 484.847H66.2415C72.9761 484.847 79.0859 480.901 81.8562 474.763L112.096 407.757M939 483.991H867.344C860.641 483.991 854.554 480.082 851.765 473.987L821.464 407.757M821.464 407.757H736.853M821.464 407.757L800.96 362.942C798.172 356.847 792.085 352.938 785.382 352.938H147.899C141.165 352.938 135.055 356.884 132.285 363.022L112.096 407.757M736.853 407.757V479.28C736.853 488.741 729.183 496.411 719.722 496.411H217.352C207.891 496.411 200.221 488.741 200.221 479.28V407.757M736.853 407.757H200.221M200.221 407.757H112.096" stroke="url(#paint0_linear_726_419)" stroke-opacity="0.5" stroke-width="2.56967"/>
<defs>
<linearGradient id="paint0_linear_726_419" x1="470.25" y1="62.9935" x2="470.25" y2="755.516" gradientUnits="userSpaceOnUse">
<stop stop-color="white" stop-opacity="0.1"/>
<stop offset="0.395" stop-color="white" stop-opacity="0.5"/>
<stop offset="0.635" stop-color="white" stop-opacity="0.5"/>
<stop offset="1" stop-color="white" stop-opacity="0"/>
</linearGradient>
</defs>
</svg>
