<svg width="81" height="81" viewBox="0 0 81 81" fill="none" xmlns="http://www.w3.org/2000/svg">
<rect width="81" height="81" fill="#E20004"/>
<path d="M25.0945 58.5062C39.2183 70.9581 61.9366 62.7958 64.4609 44.0882C51.9598 49.0928 40.4804 52.9058 25.0945 58.5062Z" fill="white"/>
<path d="M26.8375 57.8154C40.5406 68.8133 62.1771 59.4594 64.4609 44.0882C53.9257 48.2739 39.804 53.1313 26.8375 57.8154Z" fill="white"/>
<path d="M48.3537 36.7668C48.1134 38.0775 39.3778 39.4328 17.3415 44.6311C13.6753 22.5871 40.3603 7.69243 57.5492 23.8382C50.0967 24.4936 44.524 25.0148 40.3603 25.566C31.4052 27.0555 29.2416 27.6486 29.2416 28.247C29.2416 28.7832 33.6788 29.8338 38.4371 31.5239C43.5614 33.3439 49.075 35.5156 48.3537 36.7668Z" fill="white"/>
<path d="M40.3001 36.4026L17.0409 41.7051C16.2595 22.5207 37.5956 10.4263 53.6426 20.8197C43.9062 21.5079 38.0764 22.2049 29.9627 24.2156C29.2415 24.3944 26.9513 25.2478 27.1379 26.5125C27.3245 27.7772 29.6021 28.5977 29.6021 28.5977L40.3001 32.232C40.3001 32.232 44.3269 33.4832 44.3269 34.496C44.3269 35.5089 40.3001 36.4026 40.3001 36.4026Z" fill="white"/>
<path d="M63.8599 34.5556C62.8382 30.683 61.3958 28.4786 59.0518 25.3805C53.582 26.0166 50.5235 26.3876 45.1684 27.2274C45.1684 27.2274 42.3436 27.8232 42.3436 28.2998C42.3436 29.0148 45.1684 29.6702 45.1684 29.6702C52.4621 31.4682 56.5536 32.5175 63.8599 34.5556Z" fill="white"/>
<path d="M63.3791 33.1257C62.5172 29.8566 61.06 27.9958 59.0827 25.3805C54.4685 25.9174 51.8884 26.2306 47.371 26.9396C47.371 26.9396 44.9881 27.2228 44.9881 27.8263C44.9881 28.4298 47.371 29.0016 47.371 29.0016C53.7015 30.5164 57.2673 31.3455 63.3791 33.1257Z" fill="white"/>
</svg>
