<svg width="58" height="60" viewBox="0 0 58 60" fill="none" xmlns="http://www.w3.org/2000/svg">
<path d="M40.4762 46.0752H30.9524L20.3571 53.4753C18.7857 54.5752 16.6667 53.4002 16.6667 51.4002V46.0752C9.52381 46.0752 4.7619 41.0752 4.7619 33.5752V18.5752C4.7619 11.0752 9.52381 6.0752 16.6667 6.0752H40.4762C47.619 6.0752 52.381 11.0752 52.381 18.5752V33.5752C52.381 41.0752 47.619 46.0752 40.4762 46.0752Z" fill="white" fill-opacity="0.2"/>
<path d="M28.5716 30.2744C27.5954 30.2744 26.7859 29.4244 26.7859 28.3994V27.8745C26.7859 24.9745 28.8096 23.5495 29.5715 22.9995C30.4525 22.3745 30.7382 21.9495 30.7382 21.2995C30.7382 20.0495 29.762 19.0244 28.5716 19.0244C27.3811 19.0244 26.405 20.0495 26.405 21.2995C26.405 22.3245 25.5954 23.1745 24.6193 23.1745C23.6431 23.1745 22.8335 22.3245 22.8335 21.2995C22.8335 17.9745 25.4049 15.2744 28.5716 15.2744C31.7382 15.2744 34.3096 17.9745 34.3096 21.2995C34.3096 24.1495 32.3097 25.5745 31.5716 26.0995C30.643 26.7495 30.3573 27.1745 30.3573 27.8745V28.3994C30.3573 29.4494 29.5478 30.2744 28.5716 30.2744Z" fill="white"/>
<path d="M28.5714 36.5C27.5714 36.5 26.7857 35.65 26.7857 34.625C26.7857 33.6 27.5952 32.75 28.5714 32.75C29.5476 32.75 30.3571 33.6 30.3571 34.625C30.3571 35.65 29.5714 36.5 28.5714 36.5Z" fill="white"/>
</svg>
