<svg width="31" height="31" viewBox="0 0 31 31" fill="none" xmlns="http://www.w3.org/2000/svg">
<path d="M26.2422 8.45607L15.9557 2.82771C15.6808 2.67585 15.3719 2.59619 15.0579 2.59619C14.7439 2.59619 14.435 2.67585 14.1602 2.82771L3.8737 8.4584C3.57993 8.61914 3.33471 8.85579 3.16364 9.14365C2.99256 9.43152 2.90191 9.76003 2.90115 10.0949L2.90115 21.2744C2.90191 21.6093 2.99256 21.9378 3.16364 22.2257C3.33471 22.5136 3.57993 22.7502 3.8737 22.9109L14.1602 28.5416C14.435 28.6935 14.7439 28.7731 15.0579 28.7731C15.3719 28.7731 15.6808 28.6935 15.9557 28.5416L26.2422 22.9109C26.5359 22.7502 26.7811 22.5136 26.9522 22.2257C27.1233 21.9378 27.2139 21.6093 27.2147 21.2744V10.0961C27.2146 9.76061 27.1242 9.43136 26.9531 9.14282C26.782 8.85429 26.5364 8.61708 26.2422 8.45607ZM15.0579 4.4642L24.449 9.60745L20.9692 11.5128L11.5769 6.36954L15.0579 4.4642ZM15.0579 14.7507L5.66682 9.60745L9.62946 7.43794L19.0206 12.5812L15.0579 14.7507ZM4.77143 11.2439L14.1228 16.3615V26.3896L4.77143 21.2756V11.2439ZM25.3444 21.2709L15.9931 26.3896V16.3662L19.7336 14.3194V18.4912C19.7336 18.7393 19.8321 18.9771 20.0075 19.1525C20.1829 19.3279 20.4207 19.4264 20.6687 19.4264C20.9168 19.4264 21.1546 19.3279 21.33 19.1525C21.5054 18.9771 21.6039 18.7393 21.6039 18.4912V13.2954L25.3444 11.2439V21.2698V21.2709Z" fill="black"/>
</svg>
