<svg width="444" height="76" viewBox="0 0 444 76" fill="none" xmlns="http://www.w3.org/2000/svg">
<g clip-path="url(#clip0_534_382)">
<rect x="5" y="5" width="434" height="66" rx="33" fill="#222222"/>
<g style="mix-blend-mode:plus-lighter" opacity="0.2">
<path d="M299.675 4.90039V6.74316H300.086V7.1543L301.929 7.1543V10.4287H299.675V14.1143L301.929 14.1143V17.8008L299.675 17.8008V21.4863H301.929V25.1719H299.675V28.8574H301.929V32.543H299.675V36.2295H301.929V39.915H299.675V43.6006H301.929V47.2861H299.675V50.9717H301.929V54.6582H299.675V58.3437H301.929V62.0293H299.675V65.7148H301.929V69.4004H299.675V73.0869H301.929V76.3613H299.954V76.7725H299.675V78.6152H296.005V76.3613H294.03C293.432 76.3613 292.836 76.3533 292.242 76.3369L292.18 78.5879C290.942 78.5537 289.714 78.4854 288.494 78.3838L288.681 76.1396C287.49 76.0405 286.309 75.909 285.138 75.7451L284.825 77.9756C283.601 77.8042 282.388 77.5981 281.186 77.3604L281.623 75.1514C280.453 74.9199 279.294 74.6561 278.148 74.3613L277.587 76.5439H277.586C276.389 76.2361 275.207 75.8939 274.037 75.5215L274.721 73.376C273.585 73.0142 272.463 72.6211 271.356 72.1982L270.552 74.3027C269.399 73.8623 268.262 73.39 267.141 72.8877L268.063 70.833C266.976 70.346 265.905 69.8295 264.852 69.2842L263.816 71.2832C262.721 70.7164 261.643 70.1215 260.585 69.4961H260.586L261.733 67.5566C260.708 66.951 259.703 66.3167 258.716 65.6562L257.462 67.5283C256.438 66.8429 255.434 66.1299 254.452 65.3896L255.809 63.5908C254.859 62.8747 253.929 62.1324 253.022 61.3652L251.568 63.0859H251.567C250.626 62.291 249.709 61.4697 248.815 60.624L250.363 58.9873C249.5 58.1703 248.658 57.3297 247.841 56.4658L246.204 58.0137C245.359 57.1195 244.537 56.2022 243.742 55.2617H243.743L245.464 53.8076C244.697 52.9001 243.955 51.9705 243.238 51.0205L241.439 52.376C240.698 51.3938 239.985 50.39 239.3 49.3662L241.172 48.1133C240.512 47.1269 239.878 46.121 239.273 45.0967L237.332 46.2432C236.707 45.1853 236.112 44.1075 235.545 43.0127L237.545 41.9775C237 40.9241 236.483 39.8533 235.996 38.7666L233.941 39.6875C233.438 38.5666 232.966 37.4294 232.526 36.2764L234.63 35.4736C234.207 34.3665 233.815 33.2442 233.453 32.1084L231.307 32.791C230.934 31.6217 230.592 30.4388 230.284 29.2422L232.467 28.6807C232.172 27.5347 231.909 26.3761 231.678 25.2061L229.468 25.6426C229.23 24.4407 229.024 23.2273 228.853 22.0029L231.084 21.6914C230.92 20.5205 230.789 19.3392 230.69 18.1484L228.445 18.334C228.343 17.1146 228.274 15.8858 228.239 14.6484L230.492 14.5869C230.484 14.2899 230.478 13.9924 230.474 13.6943L230.468 12.7988V10.8242H228.214V7.1543H230.057V6.875H230.468V4.90039L233.742 4.90039V7.1543L237.428 7.1543V4.90039H241.114V7.1543L244.8 7.1543V4.90039L248.486 4.90039V7.1543H252.171V4.90039L255.857 4.90039V7.1543L259.543 7.1543V4.90039H263.229V7.1543L266.914 7.1543V4.90039L270.6 4.90039V7.1543H274.285V4.90039L277.972 4.90039V7.1543L281.657 7.1543V4.90039H285.343V7.1543L289.029 7.1543V4.90039L292.714 4.90039V7.1543H296.401V4.90039L299.675 4.90039Z" stroke="#A3A3A3" stroke-opacity="0.3" stroke-width="4.50698" stroke-dasharray="3.61 3.61"/>
<path fill-rule="evenodd" clip-rule="evenodd" d="M221.022 4.90039L147.308 4.90039V78.6151H155.206C191.555 78.6151 221.022 49.148 221.022 12.7984V4.90039Z" fill="#A3A3A3" fill-opacity="0.2"/>
<path fill-rule="evenodd" clip-rule="evenodd" d="M136.52 78.6143L63.7047 78.6143L63.7047 4.89956H71.5064C107.413 4.89956 136.52 34.3667 136.52 70.7163V78.6143Z" fill="#A3A3A3" fill-opacity="0.2"/>
<path fill-rule="evenodd" clip-rule="evenodd" d="M-18.9997 78.6143L54.715 78.6143L54.715 4.89956H46.817C10.4675 4.89956 -18.9997 34.3667 -18.9997 70.7163V78.6143Z" fill="#A3A3A3" fill-opacity="0.2"/>
<path d="M394.079 78.6143V76.7715H393.667V76.3604H391.825V73.0859H394.079V69.4004H391.825V65.7139H394.079V62.0283H391.825V58.3428H394.079V54.6572H391.825V50.9717H394.079V47.2852H391.825V43.5996H394.079V39.9141H391.825V36.2285H394.079V32.543H391.825V28.8564H394.079V25.1709H391.825V21.4854H394.079V17.7998H391.825V14.1143H394.079V10.4277H391.825V7.15332H393.799V6.74219H394.079V4.89941H397.748V7.15332H399.723C400.321 7.15332 400.917 7.16134 401.511 7.17773L401.574 4.92676C402.811 4.96093 404.04 5.0293 405.259 5.13086L405.073 7.375C406.263 7.47418 407.445 7.60566 408.616 7.76953L408.928 5.53906C410.153 5.71043 411.366 5.91652 412.568 6.1543L412.13 8.36328C413.301 8.5948 414.46 8.85853 415.606 9.15332L416.166 6.9707H416.167C417.364 7.2785 418.547 7.62077 419.716 7.99316L419.033 10.1387C420.168 10.5004 421.291 10.8935 422.398 11.3164L423.202 9.21191C424.355 9.65233 425.492 10.1246 426.613 10.627L425.691 12.6816C426.778 13.1687 427.848 13.6852 428.902 14.2305L429.938 12.2314C431.033 12.7982 432.11 13.3932 433.168 14.0186H433.167L432.021 15.958C433.045 16.5636 434.051 17.1979 435.038 17.8584L436.291 15.9863C437.315 16.6718 438.319 17.3847 439.301 18.125L437.945 19.9238C438.895 20.6399 439.824 21.3822 440.732 22.1494L442.186 20.4287H442.187C443.127 21.2236 444.045 22.045 444.939 22.8906L443.39 24.5273C444.254 25.3443 445.096 26.185 445.913 27.0488L447.549 25.501C448.395 26.3951 449.216 27.3125 450.011 28.2529H450.01L448.289 29.707C449.057 30.6146 449.799 31.5441 450.515 32.4941L452.315 31.1387C453.055 32.1208 453.768 33.1246 454.454 34.1484L452.581 35.4014C453.242 36.3878 453.875 37.3937 454.481 38.418L456.421 37.2715C457.047 38.3294 457.642 39.4071 458.208 40.502L456.208 41.5371C456.754 42.5906 457.27 43.6613 457.757 44.748L459.813 43.8271C460.315 44.948 460.788 46.0853 461.228 47.2383L459.123 48.041C459.546 49.1481 459.938 50.2704 460.3 51.4062L462.447 50.7236C462.819 51.8929 463.161 53.0758 463.469 54.2725L461.287 54.834C461.581 55.9799 461.844 57.1385 462.076 58.3086L464.286 57.8721C464.523 59.0739 464.729 60.2873 464.901 61.5117L462.669 61.8232C462.833 62.9941 462.965 64.1755 463.064 65.3662L465.309 65.1807C465.411 66.4001 465.48 67.6288 465.514 68.8662L463.261 68.9277C463.269 69.2247 463.276 69.5223 463.28 69.8203L463.286 70.7158V72.6904H465.539V76.3604H463.697V76.6396H463.286V78.6143H460.011V76.3604H456.326V78.6143H452.639V76.3604H448.954V78.6143H445.268V76.3604H441.582V78.6143H437.897V76.3604H434.21V78.6143H430.525V76.3604H426.839V78.6143H423.154V76.3604L419.468 76.3604V78.6143H415.782V76.3604H412.096V78.6143H408.411V76.3604H404.725V78.6143H401.039V76.3604H397.353V78.6143H394.079Z" stroke="#A3A3A3" stroke-opacity="0.3" stroke-width="4.50698" stroke-dasharray="3.61 3.61"/>
<path fill-rule="evenodd" clip-rule="evenodd" d="M310.019 78.6143L382.835 78.6143V4.89956H375.033C339.127 4.89956 310.019 34.3667 310.019 70.7163V78.6143Z" fill="#A3A3A3" fill-opacity="0.2"/>
</g>
<path d="M357.503 -68.6748C344.774 -34.8623 337.741 -18.0006 330.649 -18.0006C323.558 -18.0006 316.525 -34.8623 303.854 -68.6748C316.525 -34.8623 322.57 -17.0193 319.024 -7.65166C315.479 1.71592 302.401 2.69729 277 2.69729C303.331 2.69729 316.409 3.67865 319.373 14.0276C322.163 23.6628 316.118 41.4167 303.854 74.0694C316.583 40.2569 323.616 23.3952 330.708 23.3952C337.799 23.3952 344.832 40.2569 357.561 74.0694C344.076 38.1157 338.148 20.2727 343.146 11.3512C347.564 3.50022 360.584 2.69729 384.415 2.69729C357.561 2.69729 344.483 1.62671 341.868 -9.34675C339.484 -19.1604 345.529 -36.825 357.503 -68.6748Z" fill="#808080"/>
<path d="M162.846 25C150.117 47.0294 143.084 58.015 135.993 58.015C128.901 58.015 121.868 47.0294 109.197 25C121.868 47.0294 127.913 58.6544 124.368 64.7575C120.822 70.8606 107.744 71.5 82.3431 71.5C108.674 71.5 121.752 72.1394 124.716 78.8819C127.506 85.1594 121.461 96.7262 109.197 118C121.926 95.9706 128.959 84.985 136.051 84.985C143.142 84.985 150.175 95.9706 162.904 118C149.419 94.5756 143.491 82.9506 148.489 77.1381C152.907 72.0231 165.927 71.5 189.758 71.5C162.904 71.5 149.826 70.8025 147.211 63.6531C144.827 57.2594 150.872 45.7506 162.846 25Z" fill="#808080"/>
</g>
<rect x="2.5" y="2.5" width="439" height="71" rx="35.5" stroke="white" stroke-opacity="0.5" stroke-width="5"/>
<defs>
<clipPath id="clip0_534_382">
<rect x="5" y="5" width="434" height="66" rx="33" fill="white"/>
</clipPath>
</defs>
</svg>
