<svg width="24" height="24" viewBox="0 0 24 24" fill="none" xmlns="http://www.w3.org/2000/svg">
<path d="M4.39789 20.5462C11.1554 26.5038 22.025 22.5986 23.2327 13.6479C17.2516 16.0424 11.7593 17.8667 4.39789 20.5462Z" fill="white"/>
<path d="M5.23181 20.2157C11.788 25.4776 22.14 21.0023 23.2327 13.6479C18.1921 15.6506 11.4356 17.9746 5.23181 20.2157Z" fill="white"/>
<path d="M15.5262 10.1445C15.4113 10.7717 11.2317 11.4201 0.688469 13.9072C-1.06563 3.36029 11.7018 -3.76603 19.9258 3.9589C16.3602 4.27246 13.6939 4.52181 11.7018 4.78555C7.41724 5.49818 6.38204 5.78197 6.38204 6.06829C6.38204 6.32484 8.50501 6.82747 10.7816 7.63608C13.2334 8.5069 15.8713 9.54593 15.5262 10.1445Z" fill="white"/>
<path d="M11.6728 9.97063L0.544463 12.5076C0.170638 3.32889 10.3788 -2.45769 18.0565 2.51501C13.3981 2.8443 10.6089 3.17776 6.72688 4.13982C6.38181 4.22533 5.28609 4.63364 5.37537 5.23874C5.46466 5.84385 6.55435 6.23643 6.55435 6.23643L11.6728 7.97525C11.6728 7.97525 13.5994 8.57387 13.5994 9.05846C13.5994 9.54305 11.6728 9.97063 11.6728 9.97063Z" fill="white"/>
<path d="M22.9451 9.08708C22.4563 7.23424 21.7662 6.17954 20.6447 4.69727C18.0277 5.0016 16.5643 5.1791 14.0022 5.58093C14.0022 5.58093 12.6507 5.86598 12.6507 6.09402C12.6507 6.43609 14.0022 6.74965 14.0022 6.74965C17.4919 7.60992 19.4495 8.11194 22.9451 9.08708Z" fill="white"/>
<path d="M22.7151 8.40295C22.3027 6.83886 21.6055 5.94854 20.6595 4.69727C18.4519 4.95417 17.2174 5.10401 15.0561 5.44322C15.0561 5.44322 13.916 5.57871 13.916 5.86746C13.916 6.15622 15.0561 6.42979 15.0561 6.42979C18.0848 7.15452 19.7909 7.55121 22.7151 8.40295Z" fill="white"/>
</svg>
