<svg width="552" height="348" viewBox="0 0 552 348" fill="none" xmlns="http://www.w3.org/2000/svg">
<g clip-path="url(#clip0_529_254)">
<rect x="0.894104" y="0.616211" width="550.306" height="347.275" rx="27.2159" fill="white"/>
<g filter="url(#filter1_f_529_254)">
<path d="M207.716 305.665C84.3418 324.091 -9.25681 227.555 -20.6061 206.525L-20.6061 458.881L551.2 458.881V83.3516C504.134 200.517 331.09 287.239 207.716 305.665Z" fill="url(#paint0_linear_529_254)"/>
</g>
<mask id="path-3-outside-1_529_254" maskUnits="userSpaceOnUse" x="154.894" y="-20.3838" width="1465" height="275" fill="black">
<rect fill="white" x="154.894" y="-20.3838" width="1465" height="275"/>
<path d="M220.954 249.616L160.914 -15.6238H217.914L242.994 111.676L257.054 185.396H258.194L274.914 111.676L304.174 -15.6238H367.254L396.894 111.676L413.234 185.396H414.374L428.434 111.676L453.894 -15.6238H508.614L447.054 249.616H381.314L347.874 105.976L334.954 47.8362H333.814L320.514 105.976L287.074 249.616H220.954ZM701.402 249.616L682.402 186.536L593.862 186.536L574.862 249.616H516.342L603.742 -15.6238H675.182L761.442 249.616H701.402ZM638.702 36.8162H636.802L607.542 137.516L668.342 137.516L638.702 36.8162ZM798.138 249.616V-15.6238H855.898V198.316H956.978V249.616H798.138ZM999.642 249.616V-15.6238L1057.4 -15.6238V198.316H1158.48V249.616H999.642ZM1201.15 249.616V-15.6238L1381.65 -15.6238V35.6762H1258.91V90.0162H1364.17V140.936H1258.91V198.316H1381.65V249.616H1201.15ZM1542.55 35.6762V249.616H1484.79V35.6762L1412.97 35.6762V-15.6238L1614.37 -15.6238V35.6762H1542.55Z"/>
</mask>
<path d="M220.954 249.616L216.465 250.632L217.277 254.219H220.954V249.616ZM160.914 -15.6238V-20.2263H155.153L156.425 -14.6077L160.914 -15.6238ZM217.914 -15.6238L222.43 -16.5134L221.698 -20.2263H217.914V-15.6238ZM242.994 111.676L247.515 110.814L247.512 110.8L247.51 110.787L242.994 111.676ZM257.054 185.396L252.533 186.258L253.246 189.999H257.054V185.396ZM258.194 185.396V189.999H261.869L262.682 186.414L258.194 185.396ZM274.914 111.676L270.428 110.645L270.425 110.658L274.914 111.676ZM304.174 -15.6238V-20.2263H300.509L299.688 -16.6548L304.174 -15.6238ZM367.254 -15.6238L371.736 -16.6675L370.908 -20.2263H367.254V-15.6238ZM396.894 111.676L401.387 110.68L401.382 110.656L401.376 110.633L396.894 111.676ZM413.234 185.396L408.74 186.392L409.54 189.999H413.234V185.396ZM414.374 185.396V189.999H418.182L418.895 186.258L414.374 185.396ZM428.434 111.676L423.921 110.774L423.917 110.794L423.913 110.814L428.434 111.676ZM453.894 -15.6238V-20.2263H450.121L449.381 -16.5264L453.894 -15.6238ZM508.614 -15.6238L513.097 -14.5832L514.407 -20.2263H508.614V-15.6238ZM447.054 249.616V254.219H450.711L451.537 250.657L447.054 249.616ZM381.314 249.616L376.831 250.66L377.66 254.219H381.314V249.616ZM347.874 105.976L343.381 106.975L343.386 106.997L343.391 107.02L347.874 105.976ZM334.954 47.8362L339.447 46.8378L338.646 43.2337H334.954V47.8362ZM333.814 47.8362V43.2337H330.145L329.327 46.8099L333.814 47.8362ZM320.514 105.976L324.997 107.02L324.999 107.011L325.001 107.003L320.514 105.976ZM287.074 249.616V254.219H290.728L291.557 250.66L287.074 249.616ZM220.954 249.616L225.443 248.6L165.403 -16.6399L160.914 -15.6238L156.425 -14.6077L216.465 250.632L220.954 249.616ZM160.914 -15.6238V-11.0213H217.914V-15.6238V-20.2263H160.914V-15.6238ZM217.914 -15.6238L213.398 -14.7341L238.478 112.566L242.994 111.676L247.51 110.787L222.43 -16.5134L217.914 -15.6238ZM242.994 111.676L238.473 112.538L252.533 186.258L257.054 185.396L261.575 184.534L247.515 110.814L242.994 111.676ZM257.054 185.396V189.999H258.194V185.396V180.794H257.054V185.396ZM258.194 185.396L262.682 186.414L279.402 112.694L274.914 111.676L270.425 110.658L253.705 184.378L258.194 185.396ZM274.914 111.676L279.399 112.707L308.659 -14.5928L304.174 -15.6238L299.688 -16.6548L270.428 110.645L274.914 111.676ZM304.174 -15.6238V-11.0213H367.254V-15.6238V-20.2263H304.174V-15.6238ZM367.254 -15.6238L362.771 -14.5801L392.411 112.72L396.894 111.676L401.376 110.633L371.736 -16.6675L367.254 -15.6238ZM396.894 111.676L392.4 112.672L408.74 186.392L413.234 185.396L417.727 184.4L401.387 110.68L396.894 111.676ZM413.234 185.396V189.999H414.374V185.396V180.794H413.234V185.396ZM414.374 185.396L418.895 186.258L432.955 112.538L428.434 111.676L423.913 110.814L409.853 184.534L414.374 185.396ZM428.434 111.676L432.947 112.579L458.407 -14.7212L453.894 -15.6238L449.381 -16.5264L423.921 110.774L428.434 111.676ZM453.894 -15.6238V-11.0213H508.614V-15.6238V-20.2263H453.894V-15.6238ZM508.614 -15.6238L504.131 -16.6643L442.571 248.576L447.054 249.616L451.537 250.657L513.097 -14.5832L508.614 -15.6238ZM447.054 249.616V245.014H381.314V249.616V254.219H447.054V249.616ZM381.314 249.616L385.797 248.573L352.357 104.933L347.874 105.976L343.391 107.02L376.831 250.66L381.314 249.616ZM347.874 105.976L352.367 104.978L339.447 46.8378L334.954 47.8362L330.461 48.8346L343.381 106.975L347.874 105.976ZM334.954 47.8362V43.2337H333.814V47.8362V52.4387H334.954V47.8362ZM333.814 47.8362L329.327 46.8099L316.027 104.95L320.514 105.976L325.001 107.003L338.301 48.8626L333.814 47.8362ZM320.514 105.976L316.031 104.933L282.591 248.573L287.074 249.616L291.557 250.66L324.997 107.02L320.514 105.976ZM287.074 249.616V245.014H220.954V249.616V254.219H287.074V249.616ZM701.402 249.616L696.995 250.944L697.981 254.219H701.402V249.616ZM682.402 186.536L686.808 185.209L685.822 181.934H682.402V186.536ZM593.862 186.536V181.934H590.441L589.455 185.209L593.862 186.536ZM574.862 249.616V254.219H578.282L579.268 250.944L574.862 249.616ZM516.342 249.616L511.97 248.176L509.979 254.219H516.342V249.616ZM603.742 -15.6238V-20.2263H600.412L599.37 -17.0642L603.742 -15.6238ZM675.182 -15.6238L679.558 -17.0472L678.524 -20.2263H675.182V-15.6238ZM761.442 249.616V254.219H767.778L765.818 248.193L761.442 249.616ZM638.702 36.8162L643.117 35.5167L642.145 32.2137H638.702V36.8162ZM636.802 36.8162V32.2137H633.346L632.382 35.532L636.802 36.8162ZM607.542 137.516L603.122 136.232L601.411 142.119H607.542V137.516ZM668.342 137.516V142.119H674.494L672.757 136.217L668.342 137.516ZM701.402 249.616L705.808 248.289L686.808 185.209L682.402 186.536L677.995 187.864L696.995 250.944L701.402 249.616ZM682.402 186.536V181.934L593.862 181.934V186.536V191.139L682.402 191.139V186.536ZM593.862 186.536L589.455 185.209L570.455 248.289L574.862 249.616L579.268 250.944L598.268 187.864L593.862 186.536ZM574.862 249.616V245.014H516.342V249.616V254.219H574.862V249.616ZM516.342 249.616L520.713 251.057L608.113 -14.1834L603.742 -15.6238L599.37 -17.0642L511.97 248.176L516.342 249.616ZM603.742 -15.6238V-11.0213H675.182V-15.6238V-20.2263H603.742V-15.6238ZM675.182 -15.6238L670.805 -14.2004L757.065 251.04L761.442 249.616L765.818 248.193L679.558 -17.0472L675.182 -15.6238ZM761.442 249.616V245.014H701.402V249.616V254.219H761.442V249.616ZM638.702 36.8162V32.2137H636.802V36.8162V41.4187H638.702V36.8162ZM636.802 36.8162L632.382 35.532L603.122 136.232L607.542 137.516L611.961 138.8L641.221 38.1004L636.802 36.8162ZM607.542 137.516V142.119L668.342 142.119V137.516V132.914L607.542 132.914V137.516ZM668.342 137.516L672.757 136.217L643.117 35.5167L638.702 36.8162L634.286 38.1158L663.926 138.816L668.342 137.516ZM798.138 249.616H793.536V254.219H798.138V249.616ZM798.138 -15.6238V-20.2263H793.536V-15.6238H798.138ZM855.898 -15.6238H860.501V-20.2263H855.898V-15.6238ZM855.898 198.316H851.296V202.919H855.898V198.316ZM956.978 198.316H961.581V193.714H956.978V198.316ZM956.978 249.616V254.219H961.581V249.616H956.978ZM798.138 249.616H802.741V-15.6238H798.138H793.536V249.616H798.138ZM798.138 -15.6238V-11.0213H855.898V-15.6238V-20.2263H798.138V-15.6238ZM855.898 -15.6238H851.296V198.316H855.898H860.501V-15.6238H855.898ZM855.898 198.316V202.919H956.978V198.316V193.714H855.898V198.316ZM956.978 198.316H952.376V249.616H956.978H961.581V198.316H956.978ZM956.978 249.616V245.014H798.138V249.616V254.219H956.978V249.616ZM999.642 249.616H995.04V254.219H999.642V249.616ZM999.642 -15.6238V-20.2263H995.04V-15.6238H999.642ZM1057.4 -15.6238H1062V-20.2263H1057.4V-15.6238ZM1057.4 198.316H1052.8V202.919H1057.4V198.316ZM1158.48 198.316H1163.08V193.714H1158.48V198.316ZM1158.48 249.616V254.219H1163.08V249.616H1158.48ZM999.642 249.616H1004.24V-15.6238H999.642H995.04V249.616H999.642ZM999.642 -15.6238V-11.0213H1057.4V-15.6238V-20.2263L999.642 -20.2263V-15.6238ZM1057.4 -15.6238H1052.8V198.316H1057.4H1062V-15.6238H1057.4ZM1057.4 198.316V202.919H1158.48V198.316V193.714H1057.4V198.316ZM1158.48 198.316H1153.88V249.616H1158.48H1163.08V198.316H1158.48ZM1158.48 249.616V245.014H999.642V249.616V254.219H1158.48V249.616ZM1201.15 249.616H1196.54V254.219H1201.15V249.616ZM1201.15 -15.6238V-20.2263H1196.54V-15.6238H1201.15ZM1381.65 -15.6238H1386.25V-20.2263H1381.65V-15.6238ZM1381.65 35.6762V40.2787H1386.25V35.6762H1381.65ZM1258.91 35.6762V31.0737H1254.3V35.6762H1258.91ZM1258.91 90.0162H1254.3V94.6187H1258.91V90.0162ZM1364.17 90.0162H1368.77V85.4137H1364.17V90.0162ZM1364.17 140.936V145.539H1368.77V140.936H1364.17ZM1258.91 140.936V136.334H1254.3V140.936H1258.91ZM1258.91 198.316H1254.3V202.919H1258.91V198.316ZM1381.65 198.316H1386.25V193.714H1381.65V198.316ZM1381.65 249.616V254.219H1386.25V249.616H1381.65ZM1201.15 249.616H1205.75V-15.6238H1201.15H1196.54V249.616H1201.15ZM1201.15 -15.6238V-11.0213H1381.65V-15.6238V-20.2263L1201.15 -20.2263V-15.6238ZM1381.65 -15.6238H1377.04V35.6762H1381.65H1386.25V-15.6238H1381.65ZM1381.65 35.6762V31.0737H1258.91V35.6762V40.2787H1381.65V35.6762ZM1258.91 35.6762H1254.3V90.0162H1258.91H1263.51V35.6762H1258.91ZM1258.91 90.0162V94.6187H1364.17V90.0162V85.4137H1258.91V90.0162ZM1364.17 90.0162H1359.56V140.936H1364.17H1368.77V90.0162H1364.17ZM1364.17 140.936V136.334H1258.91V140.936V145.539H1364.17V140.936ZM1258.91 140.936H1254.3V198.316H1258.91H1263.51V140.936H1258.91ZM1258.91 198.316V202.919H1381.65V198.316V193.714H1258.91V198.316ZM1381.65 198.316H1377.04V249.616H1381.65H1386.25V198.316H1381.65ZM1381.65 249.616V245.014H1201.15V249.616V254.219H1381.65V249.616ZM1542.55 35.6762V31.0737H1537.94V35.6762H1542.55ZM1542.55 249.616V254.219H1547.15V249.616H1542.55ZM1484.79 249.616H1480.18V254.219H1484.79V249.616ZM1484.79 35.6762H1489.39V31.0737H1484.79V35.6762ZM1412.97 35.6762H1408.36V40.2787H1412.97V35.6762ZM1412.97 -15.6238V-20.2263H1408.36V-15.6238H1412.97ZM1614.37 -15.6238H1618.97V-20.2263H1614.37V-15.6238ZM1614.37 35.6762V40.2787H1618.97V35.6762H1614.37ZM1542.55 35.6762H1537.94V249.616H1542.55H1547.15V35.6762H1542.55ZM1542.55 249.616V245.014H1484.79V249.616V254.219H1542.55V249.616ZM1484.79 249.616H1489.39V35.6762H1484.79H1480.18V249.616H1484.79ZM1484.79 35.6762V31.0737L1412.97 31.0737V35.6762V40.2787L1484.79 40.2787V35.6762ZM1412.97 35.6762H1417.57V-15.6238H1412.97H1408.36V35.6762H1412.97ZM1412.97 -15.6238V-11.0213L1614.37 -11.0213V-15.6238V-20.2263L1412.97 -20.2263V-15.6238ZM1614.37 -15.6238H1609.76V35.6762H1614.37H1618.97V-15.6238H1614.37ZM1614.37 35.6762V31.0737H1542.55V35.6762V40.2787H1614.37V35.6762Z" fill="#E20004" fill-opacity="0.1" mask="url(#path-3-outside-1_529_254)"/>
<mask id="path-5-outside-2_529_254" maskUnits="userSpaceOnUse" x="-349.106" y="278.616" width="1465" height="275" fill="black">
<rect fill="white" x="-349.106" y="278.616" width="1465" height="275"/>
<path d="M-283.046 548.616L-343.086 283.376H-286.086L-261.006 410.676L-246.946 484.396H-245.806L-229.086 410.676L-199.826 283.376H-136.746L-107.106 410.676L-90.7661 484.396H-89.6261L-75.5661 410.676L-50.1061 283.376H4.61392L-56.9461 548.616H-122.686L-156.126 404.976L-169.046 346.836H-170.186L-183.486 404.976L-216.926 548.616H-283.046ZM197.402 548.616L178.402 485.536L89.8615 485.536L70.8615 548.616H12.3415L99.7415 283.376H171.182L257.442 548.616H197.402ZM134.702 335.816H132.802L103.542 436.516L164.342 436.516L134.702 335.816ZM294.138 548.616V283.376H351.898V497.316H452.978V548.616H294.138ZM495.642 548.616V283.376H553.402V497.316H654.482V548.616H495.642ZM697.146 548.616V283.376H877.646V334.676H754.906V389.016H860.166V439.936H754.906V497.316H877.646V548.616H697.146ZM1038.55 334.676V548.616H980.786V334.676L908.966 334.676V283.376L1110.37 283.376V334.676H1038.55Z"/>
</mask>
<path d="M-283.046 548.616L-287.535 549.632L-286.723 553.219H-283.046V548.616ZM-343.086 283.376V278.774H-348.847L-347.575 284.392L-343.086 283.376ZM-286.086 283.376L-281.57 282.487L-282.302 278.774H-286.086V283.376ZM-261.006 410.676L-256.485 409.814L-256.488 409.8L-256.49 409.787L-261.006 410.676ZM-246.946 484.396L-251.467 485.258L-250.754 488.999H-246.946V484.396ZM-245.806 484.396V488.999H-242.131L-241.318 485.414L-245.806 484.396ZM-229.086 410.676L-233.572 409.645L-233.575 409.658L-229.086 410.676ZM-199.826 283.376V278.774H-203.491L-204.312 282.345L-199.826 283.376ZM-136.746 283.376L-132.264 282.333L-133.092 278.774H-136.746V283.376ZM-107.106 410.676L-102.613 409.68L-102.618 409.656L-102.624 409.633L-107.106 410.676ZM-90.7661 484.396L-95.2595 485.392L-94.4601 488.999H-90.7661V484.396ZM-89.6261 484.396V488.999H-85.8184L-85.1051 485.258L-89.6261 484.396ZM-75.5661 410.676L-80.0792 409.774L-80.0832 409.794L-80.0871 409.814L-75.5661 410.676ZM-50.1061 283.376V278.774H-53.8792L-54.6192 282.474L-50.1061 283.376ZM4.61392 283.376L9.09723 284.417L10.4069 278.774H4.61392V283.376ZM-56.9461 548.616V553.219H-53.2895L-52.4628 549.657L-56.9461 548.616ZM-122.686 548.616L-127.169 549.66L-126.34 553.219H-122.686V548.616ZM-156.126 404.976L-160.619 405.975L-160.614 405.997L-160.609 406.02L-156.126 404.976ZM-169.046 346.836L-164.553 345.838L-165.354 342.234H-169.046V346.836ZM-170.186 346.836V342.234H-173.855L-174.673 345.81L-170.186 346.836ZM-183.486 404.976L-179.003 406.02L-179.001 406.011L-178.999 406.003L-183.486 404.976ZM-216.926 548.616V553.219H-213.272L-212.443 549.66L-216.926 548.616ZM-283.046 548.616L-278.557 547.6L-338.597 282.36L-343.086 283.376L-347.575 284.392L-287.535 549.632L-283.046 548.616ZM-343.086 283.376V287.979H-286.086V283.376V278.774H-343.086V283.376ZM-286.086 283.376L-290.602 284.266L-265.522 411.566L-261.006 410.676L-256.49 409.787L-281.57 282.487L-286.086 283.376ZM-261.006 410.676L-265.527 411.538L-251.467 485.258L-246.946 484.396L-242.425 483.534L-256.485 409.814L-261.006 410.676ZM-246.946 484.396V488.999H-245.806V484.396V479.794H-246.946V484.396ZM-245.806 484.396L-241.318 485.414L-224.598 411.694L-229.086 410.676L-233.575 409.658L-250.295 483.378L-245.806 484.396ZM-229.086 410.676L-224.601 411.707L-195.341 284.407L-199.826 283.376L-204.312 282.345L-233.572 409.645L-229.086 410.676ZM-199.826 283.376V287.979H-136.746V283.376V278.774H-199.826V283.376ZM-136.746 283.376L-141.229 284.42L-111.589 411.72L-107.106 410.676L-102.624 409.633L-132.264 282.333L-136.746 283.376ZM-107.106 410.676L-111.6 411.672L-95.2595 485.392L-90.7661 484.396L-86.2727 483.4L-102.613 409.68L-107.106 410.676ZM-90.7661 484.396V488.999H-89.6261V484.396V479.794H-90.7661V484.396ZM-89.6261 484.396L-85.1051 485.258L-71.0451 411.538L-75.5661 410.676L-80.0871 409.814L-94.1471 483.534L-89.6261 484.396ZM-75.5661 410.676L-71.053 411.579L-45.593 284.279L-50.1061 283.376L-54.6192 282.474L-80.0792 409.774L-75.5661 410.676ZM-50.1061 283.376V287.979H4.61392V283.376V278.774H-50.1061V283.376ZM4.61392 283.376L0.130585 282.336L-61.4294 547.576L-56.9461 548.616L-52.4628 549.657L9.09723 284.417L4.61392 283.376ZM-56.9461 548.616V544.014H-122.686V548.616V553.219H-56.9461V548.616ZM-122.686 548.616L-118.203 547.573L-151.643 403.933L-156.126 404.976L-160.609 406.02L-127.169 549.66L-122.686 548.616ZM-156.126 404.976L-151.633 403.978L-164.553 345.838L-169.046 346.836L-173.539 347.835L-160.619 405.975L-156.126 404.976ZM-169.046 346.836V342.234H-170.186V346.836V351.439H-169.046V346.836ZM-170.186 346.836L-174.673 345.81L-187.973 403.95L-183.486 404.976L-178.999 406.003L-165.699 347.863L-170.186 346.836ZM-183.486 404.976L-187.969 403.933L-221.409 547.573L-216.926 548.616L-212.443 549.66L-179.003 406.02L-183.486 404.976ZM-216.926 548.616V544.014H-283.046V548.616V553.219H-216.926V548.616ZM197.402 548.616L192.995 549.944L193.981 553.219H197.402V548.616ZM178.402 485.536L182.808 484.209L181.822 480.934H178.402V485.536ZM89.8615 485.536V480.934H86.4411L85.4546 484.209L89.8615 485.536ZM70.8615 548.616V553.219H74.282L75.2685 549.944L70.8615 548.616ZM12.3416 548.616L7.97028 547.176L5.97906 553.219H12.3416V548.616ZM99.7415 283.376V278.774H96.4122L95.3703 281.936L99.7415 283.376ZM171.182 283.376L175.558 281.953L174.524 278.774H171.182V283.376ZM257.442 548.616V553.219H263.778L261.818 547.193L257.442 548.616ZM134.702 335.816L139.117 334.517L138.145 331.214H134.702V335.816ZM132.802 335.816V331.214H129.346L128.382 334.532L132.802 335.816ZM103.542 436.516L99.1219 435.232L97.4114 441.119H103.542V436.516ZM164.342 436.516V441.119H170.494L168.757 435.217L164.342 436.516ZM197.402 548.616L201.808 547.289L182.808 484.209L178.402 485.536L173.995 486.864L192.995 549.944L197.402 548.616ZM178.402 485.536V480.934L89.8615 480.934V485.536V490.139L178.402 490.139V485.536ZM89.8615 485.536L85.4546 484.209L66.4546 547.289L70.8615 548.616L75.2685 549.944L94.2685 486.864L89.8615 485.536ZM70.8615 548.616V544.014H12.3416V548.616V553.219H70.8615V548.616ZM12.3416 548.616L16.7128 550.057L104.113 284.817L99.7415 283.376L95.3703 281.936L7.97028 547.176L12.3416 548.616ZM99.7415 283.376V287.979H171.182V283.376V278.774H99.7415V283.376ZM171.182 283.376L166.805 284.8L253.065 550.04L257.442 548.616L261.818 547.193L175.558 281.953L171.182 283.376ZM257.442 548.616V544.014H197.402V548.616V553.219H257.442V548.616ZM134.702 335.816V331.214H132.802V335.816V340.419H134.702V335.816ZM132.802 335.816L128.382 334.532L99.1219 435.232L103.542 436.516L107.961 437.8L137.221 337.1L132.802 335.816ZM103.542 436.516V441.119L164.342 441.119V436.516V431.914L103.542 431.914V436.516ZM164.342 436.516L168.757 435.217L139.117 334.517L134.702 335.816L130.286 337.116L159.926 437.816L164.342 436.516ZM294.138 548.616H289.536V553.219H294.138V548.616ZM294.138 283.376V278.774H289.536V283.376H294.138ZM351.898 283.376H356.501V278.774H351.898V283.376ZM351.898 497.316H347.296V501.919H351.898V497.316ZM452.978 497.316H457.581V492.714H452.978V497.316ZM452.978 548.616V553.219H457.581V548.616H452.978ZM294.138 548.616H298.741V283.376H294.138H289.536V548.616H294.138ZM294.138 283.376V287.979H351.898V283.376V278.774H294.138V283.376ZM351.898 283.376H347.296V497.316H351.898H356.501V283.376H351.898ZM351.898 497.316V501.919H452.978V497.316V492.714H351.898V497.316ZM452.978 497.316H448.376V548.616H452.978H457.581V497.316H452.978ZM452.978 548.616V544.014H294.138V548.616V553.219H452.978V548.616ZM495.642 548.616H491.04V553.219H495.642V548.616ZM495.642 283.376V278.774H491.04V283.376H495.642ZM553.402 283.376H558.005V278.774H553.402V283.376ZM553.402 497.316H548.8V501.919H553.402V497.316ZM654.482 497.316H659.085V492.714H654.482V497.316ZM654.482 548.616V553.219H659.085V548.616H654.482ZM495.642 548.616H500.245V283.376H495.642H491.04V548.616H495.642ZM495.642 283.376V287.979H553.402V283.376V278.774H495.642V283.376ZM553.402 283.376H548.8V497.316H553.402H558.005V283.376H553.402ZM553.402 497.316V501.919H654.482V497.316V492.714H553.402V497.316ZM654.482 497.316H649.88V548.616H654.482H659.085V497.316H654.482ZM654.482 548.616V544.014H495.642V548.616V553.219H654.482V548.616ZM697.146 548.616H692.543V553.219H697.146V548.616ZM697.146 283.376V278.774H692.543V283.376H697.146ZM877.646 283.376H882.248V278.774H877.646V283.376ZM877.646 334.676V339.279H882.248V334.676H877.646ZM754.906 334.676V330.074H750.303V334.676H754.906ZM754.906 389.016H750.303V393.619H754.906V389.016ZM860.166 389.016H864.768V384.414H860.166V389.016ZM860.166 439.936V444.539H864.768V439.936H860.166ZM754.906 439.936V435.334H750.303V439.936H754.906ZM754.906 497.316H750.303V501.919H754.906V497.316ZM877.646 497.316H882.248V492.714H877.646V497.316ZM877.646 548.616V553.219H882.248V548.616H877.646ZM697.146 548.616H701.748V283.376H697.146H692.543V548.616H697.146ZM697.146 283.376V287.979H877.646V283.376V278.774H697.146V283.376ZM877.646 283.376H873.043V334.676H877.646H882.248V283.376H877.646ZM877.646 334.676V330.074H754.906V334.676V339.279H877.646V334.676ZM754.906 334.676H750.303V389.016H754.906H759.508V334.676H754.906ZM754.906 389.016V393.619H860.166V389.016V384.414H754.906V389.016ZM860.166 389.016H855.563V439.936H860.166H864.768V389.016H860.166ZM860.166 439.936V435.334H754.906V439.936V444.539H860.166V439.936ZM754.906 439.936H750.303V497.316H754.906H759.508V439.936H754.906ZM754.906 497.316V501.919H877.646V497.316V492.714H754.906V497.316ZM877.646 497.316H873.043V548.616H877.646H882.248V497.316H877.646ZM877.646 548.616V544.014H697.146V548.616V553.219H877.646V548.616ZM1038.55 334.676V330.074H1033.94V334.676H1038.55ZM1038.55 548.616V553.219H1043.15V548.616H1038.55ZM980.786 548.616H976.184V553.219H980.786V548.616ZM980.786 334.676H985.389V330.074H980.786V334.676ZM908.966 334.676H904.364V339.279H908.966V334.676ZM908.966 283.376V278.774H904.364V283.376H908.966ZM1110.37 283.376H1114.97V278.774H1110.37V283.376ZM1110.37 334.676V339.279H1114.97V334.676H1110.37ZM1038.55 334.676H1033.94V548.616H1038.55H1043.15V334.676H1038.55ZM1038.55 548.616V544.014H980.786V548.616V553.219H1038.55V548.616ZM980.786 548.616H985.389V334.676H980.786H976.184V548.616H980.786ZM980.786 334.676V330.074L908.966 330.074V334.676V339.279L980.786 339.279V334.676ZM908.966 334.676H913.569V283.376H908.966H904.364V334.676H908.966ZM908.966 283.376V287.979L1110.37 287.979V283.376V278.774L908.966 278.774V283.376ZM1110.37 283.376H1105.76V334.676H1110.37H1114.97V283.376H1110.37ZM1110.37 334.676V330.074H1038.55V334.676V339.279H1110.37V334.676Z" fill="#E20004" fill-opacity="0.1" mask="url(#path-5-outside-2_529_254)"/>
<rect x="28.1097" y="239.352" width="73.3295" height="23.4432" rx="11.7216" fill="black"/>
<path d="M37.4448 256.073V246.575H41.5272C42.4072 246.575 43.0876 246.833 43.5684 247.351C44.0492 247.868 44.2896 248.562 44.2896 249.433C44.2896 250.303 44.0492 250.997 43.5684 251.515C43.0876 252.032 42.4072 252.29 41.5272 252.29H38.9825V256.073H37.4448ZM38.9825 250.943H41.4319C41.822 250.943 42.1259 250.843 42.3437 250.644C42.5614 250.435 42.6703 250.14 42.6703 249.759V249.106C42.6703 248.725 42.5614 248.435 42.3437 248.235C42.1259 248.026 41.822 247.922 41.4319 247.922H38.9825V250.943ZM47.378 256.073C46.8699 256.073 46.4889 255.946 46.2349 255.692C45.99 255.429 45.8675 255.066 45.8675 254.604V246.003H47.3508V254.862H48.3305V256.073H47.378ZM54.9325 256.073C54.5424 256.073 54.243 255.964 54.0344 255.747C53.8257 255.52 53.6987 255.234 53.6534 254.889H53.5853C53.4492 255.334 53.1998 255.67 52.8369 255.896C52.474 256.123 52.034 256.237 51.5169 256.237C50.7821 256.237 50.2151 256.046 49.8159 255.665C49.4258 255.284 49.2308 254.771 49.2308 254.127C49.2308 253.42 49.4848 252.889 49.9928 252.535C50.5099 252.181 51.2629 252.004 52.2517 252.004H53.5309V251.406C53.5309 250.97 53.413 250.635 53.1771 250.399C52.9412 250.163 52.5738 250.045 52.0748 250.045C51.6575 250.045 51.3173 250.136 51.0542 250.317C50.7912 250.499 50.5689 250.73 50.3875 251.011L49.5029 250.208C49.7388 249.809 50.0699 249.482 50.4963 249.228C50.9227 248.965 51.4806 248.834 52.1701 248.834C53.0864 248.834 53.7894 249.047 54.2793 249.473C54.7692 249.9 55.0142 250.512 55.0142 251.31V254.862H55.7626V256.073H54.9325ZM51.9388 255.107C52.4014 255.107 52.7825 255.007 53.0818 254.808C53.3812 254.599 53.5309 254.322 53.5309 253.978V252.957H52.279C51.2538 252.957 50.7413 253.275 50.7413 253.91V254.155C50.7413 254.472 50.8456 254.712 51.0542 254.876C51.272 255.03 51.5668 255.107 51.9388 255.107ZM59.136 256.073C58.6189 256.073 58.2288 255.942 57.9657 255.679C57.7026 255.406 57.5711 255.025 57.5711 254.536V250.208H56.4688V248.997H57.0676C57.3125 248.997 57.4804 248.943 57.5711 248.834C57.6709 248.725 57.7208 248.548 57.7208 248.303V247.065H59.0543V248.997H60.5376V250.208H59.0543V254.862H60.4287V256.073H59.136ZM62.895 247.732C62.5865 247.732 62.3597 247.659 62.2146 247.514C62.0785 247.369 62.0105 247.183 62.0105 246.956V246.725C62.0105 246.498 62.0785 246.312 62.2146 246.167C62.3597 246.022 62.5865 245.949 62.895 245.949C63.2034 245.949 63.4257 246.022 63.5618 246.167C63.6978 246.312 63.7659 246.498 63.7659 246.725V246.956C63.7659 247.183 63.6978 247.369 63.5618 247.514C63.4257 247.659 63.2034 247.732 62.895 247.732ZM62.1465 248.997H63.6298V256.073H62.1465L62.1465 248.997ZM65.7479 256.073V248.997H67.2311V250.167H67.2992C67.4534 249.786 67.6847 249.469 67.9932 249.215C68.3107 248.961 68.7416 248.834 69.2859 248.834C70.0117 248.834 70.5741 249.074 70.9733 249.555C71.3815 250.027 71.5857 250.703 71.5857 251.583V256.073H70.1024V251.773C70.1024 250.666 69.6579 250.113 68.7688 250.113C68.5783 250.113 68.3878 250.14 68.1973 250.195C68.0158 250.24 67.8526 250.313 67.7074 250.412C67.5622 250.512 67.4443 250.639 67.3536 250.793C67.2719 250.948 67.2311 251.129 67.2311 251.338V256.073H65.7479ZM77.928 254.903H77.8736C77.8101 255.075 77.7239 255.243 77.6151 255.406C77.5153 255.57 77.3837 255.715 77.2204 255.842C77.0662 255.96 76.8757 256.055 76.6489 256.128C76.4312 256.2 76.1771 256.237 75.8868 256.237C75.152 256.237 74.5805 256.001 74.1722 255.529C73.7731 255.057 73.5735 254.381 73.5735 253.501V248.997H75.0568V253.311C75.0568 254.409 75.5104 254.957 76.4176 254.957C76.6081 254.957 76.794 254.935 76.9755 254.889C77.1569 254.835 77.3157 254.758 77.4518 254.658C77.5969 254.558 77.7103 254.431 77.792 254.277C77.8827 254.123 77.928 253.941 77.928 253.733V248.997H79.4113V256.073H77.928V254.903ZM81.5352 256.073V248.997H83.0185V250.167H83.0865C83.1591 249.986 83.2453 249.814 83.3451 249.65C83.4539 249.487 83.5809 249.346 83.7261 249.228C83.8803 249.101 84.0572 249.006 84.2568 248.943C84.4655 248.87 84.7059 248.834 84.978 248.834C85.4588 248.834 85.8852 248.952 86.2572 249.188C86.6291 249.423 86.9013 249.786 87.0736 250.276H87.1145C87.2415 249.877 87.4864 249.537 87.8493 249.256C88.2122 248.974 88.6794 248.834 89.2509 248.834C89.9585 248.834 90.5074 249.074 90.8975 249.555C91.2876 250.027 91.4826 250.703 91.4826 251.583V256.073H89.9994V251.76C89.9994 251.215 89.895 250.807 89.6864 250.535C89.4777 250.254 89.1466 250.113 88.693 250.113C88.5025 250.113 88.321 250.14 88.1487 250.195C87.9763 250.24 87.8221 250.313 87.686 250.412C87.559 250.512 87.4547 250.639 87.373 250.793C87.2914 250.948 87.2505 251.124 87.2505 251.324V256.073H85.7673V251.76C85.7673 250.662 85.3364 250.113 84.4745 250.113C84.2931 250.113 84.1116 250.14 83.9302 250.195C83.7578 250.24 83.6036 250.313 83.4675 250.412C83.3315 250.512 83.2226 250.639 83.1409 250.793C83.0593 250.948 83.0185 251.124 83.0185 251.324V256.073H81.5352Z" fill="white"/>
<path d="M41.6633 279.256H33.3352L32.7909 286.495H32.9814C33.435 285.86 33.943 285.352 34.5055 284.971C35.0861 284.59 35.8753 284.399 36.8733 284.399C37.6897 284.399 38.4427 284.535 39.1322 284.808C39.8217 285.08 40.4204 285.47 40.9284 285.978C41.4365 286.468 41.8266 287.076 42.0987 287.801C42.389 288.527 42.5342 289.353 42.5342 290.278C42.5342 291.203 42.389 292.056 42.0987 292.836C41.8084 293.598 41.382 294.261 40.8196 294.823C40.2752 295.367 39.6039 295.794 38.8056 296.102C38.0254 296.411 37.1363 296.565 36.1384 296.565C35.3401 296.565 34.6325 296.474 34.0156 296.293C33.4168 296.111 32.8816 295.866 32.4099 295.558C31.9381 295.249 31.5208 294.905 31.1579 294.524C30.8132 294.143 30.4957 293.743 30.2054 293.326L31.92 292.02C32.1558 292.401 32.4008 292.746 32.6548 293.054C32.927 293.362 33.2173 293.626 33.5257 293.843C33.8523 294.061 34.2242 294.233 34.6416 294.36C35.0589 294.469 35.5578 294.524 36.1384 294.524C37.4448 294.524 38.4336 294.179 39.105 293.489C39.7763 292.8 40.112 291.829 40.112 290.577V290.305C40.112 289.053 39.7763 288.083 39.105 287.393C38.4336 286.704 37.4448 286.359 36.1384 286.359C35.2675 286.359 34.5781 286.522 34.07 286.849C33.5801 287.157 33.1356 287.529 32.7364 287.965L30.8041 287.692L31.4845 277.242H41.6633V279.256ZM51.532 285.297C52.8202 285.297 53.7819 285.007 54.4169 284.427C55.0701 283.828 55.3967 283.066 55.3967 282.14V281.95C55.3967 280.952 55.0791 280.208 54.4441 279.718C53.8272 279.21 53.0107 278.956 51.9947 278.956C51.0149 278.956 50.2166 279.174 49.5997 279.609C48.9828 280.027 48.4747 280.598 48.0756 281.324L46.3882 280.018C46.6241 279.637 46.9053 279.265 47.2319 278.902C47.5766 278.521 47.9758 278.185 48.4294 277.895C48.883 277.604 49.4092 277.369 50.0079 277.187C50.6067 277.006 51.2871 276.915 52.0491 276.915C52.8474 276.915 53.6004 277.024 54.308 277.242C55.0156 277.441 55.6235 277.75 56.1315 278.167C56.6577 278.566 57.0659 279.065 57.3562 279.664C57.6647 280.263 57.8189 280.943 57.8189 281.705C57.8189 282.322 57.7191 282.875 57.5195 283.365C57.3381 283.855 57.084 284.281 56.7575 284.644C56.4309 285.007 56.0408 285.316 55.5872 285.57C55.1517 285.824 54.68 286.014 54.1719 286.141V286.25C54.68 286.359 55.1699 286.54 55.6416 286.794C56.1315 287.03 56.5579 287.348 56.9208 287.747C57.3018 288.128 57.6011 288.6 57.8189 289.162C58.0547 289.706 58.1727 290.332 58.1727 291.04C58.1727 291.857 58.0185 292.609 57.71 293.299C57.4016 293.97 56.9661 294.551 56.4036 295.041C55.8412 295.513 55.1608 295.884 54.3625 296.157C53.5641 296.429 52.6841 296.565 51.7225 296.565C50.906 296.565 50.1803 296.474 49.5452 296.293C48.9102 296.111 48.3477 295.866 47.8579 295.558C47.368 295.249 46.9325 294.905 46.5515 294.524C46.1886 294.143 45.862 293.743 45.5717 293.326L47.2863 292.02C47.5222 292.401 47.7762 292.746 48.0484 293.054C48.3387 293.362 48.6562 293.626 49.0009 293.843C49.3457 294.061 49.7358 294.233 50.1712 294.36C50.6067 294.469 51.1147 294.524 51.6953 294.524C53.0379 294.524 54.054 294.224 54.7435 293.626C55.4329 293.009 55.7777 292.138 55.7777 291.013V290.795C55.7777 289.67 55.4329 288.808 54.7435 288.21C54.054 287.593 53.0379 287.284 51.6953 287.284H49.4636V285.297H51.532ZM70.9535 296.238V292.51H61.7818V290.496L69.7288 277.242H73.1308V290.605H75.8796V292.51H73.1308V296.238H70.9535ZM63.9318 290.605H70.9535V279.011H70.8174L63.9318 290.605ZM91.5726 296.238H79.1077V293.898L85.3129 288.182C86.2019 287.366 86.9458 286.504 87.5446 285.597C88.1433 284.672 88.4427 283.746 88.4427 282.821V282.494C88.4427 281.442 88.1524 280.589 87.5718 279.936C86.9912 279.283 86.1112 278.956 84.9319 278.956C84.3513 278.956 83.8432 279.038 83.4078 279.201C82.9723 279.364 82.5913 279.591 82.2647 279.882C81.9563 280.172 81.6932 280.517 81.4755 280.916C81.2759 281.297 81.1126 281.714 80.9856 282.168L78.9444 281.378C79.1258 280.816 79.3708 280.272 79.6792 279.745C80.0058 279.201 80.405 278.72 80.8767 278.303C81.3666 277.886 81.9472 277.55 82.6185 277.296C83.308 277.042 84.1154 276.915 85.0407 276.915C85.9661 276.915 86.7916 277.051 87.5174 277.323C88.2431 277.595 88.851 277.976 89.3408 278.466C89.8307 278.956 90.2027 279.537 90.4567 280.208C90.7289 280.879 90.8649 281.623 90.8649 282.44C90.8649 283.184 90.7561 283.873 90.5383 284.508C90.3388 285.143 90.0575 285.751 89.6947 286.332C89.3318 286.894 88.8872 287.448 88.3611 287.992C87.853 288.536 87.2997 289.08 86.7009 289.625L81.5843 294.224H91.5726V296.238ZM108.009 296.565C107.029 296.565 106.14 296.402 105.342 296.075C104.562 295.73 103.891 295.249 103.328 294.633C102.784 293.998 102.366 293.226 102.076 292.319C101.786 291.412 101.641 290.396 101.641 289.271C101.641 287.856 101.849 286.531 102.267 285.297C102.684 284.046 103.219 282.912 103.872 281.896C104.544 280.861 105.279 279.954 106.077 279.174C106.875 278.376 107.655 277.731 108.417 277.242H111.357C110.341 277.985 109.434 278.711 108.635 279.419C107.837 280.126 107.138 280.87 106.54 281.651C105.941 282.413 105.433 283.238 105.016 284.127C104.598 284.998 104.263 285.987 104.009 287.094L104.145 287.148C104.598 286.368 105.179 285.724 105.886 285.216C106.612 284.69 107.556 284.427 108.717 284.427C109.533 284.427 110.286 284.563 110.976 284.835C111.665 285.107 112.255 285.497 112.745 286.005C113.235 286.513 113.616 287.13 113.888 287.856C114.178 288.582 114.323 289.389 114.323 290.278C114.323 291.203 114.169 292.056 113.861 292.836C113.57 293.598 113.144 294.261 112.582 294.823C112.037 295.367 111.375 295.794 110.595 296.102C109.815 296.411 108.953 296.565 108.009 296.565ZM107.982 294.578C109.234 294.578 110.205 294.233 110.894 293.544C111.602 292.854 111.956 291.866 111.956 290.577V290.36C111.956 289.071 111.602 288.083 110.894 287.393C110.205 286.704 109.234 286.359 107.982 286.359C106.73 286.359 105.75 286.704 105.043 287.393C104.353 288.083 104.009 289.071 104.009 290.36V290.577C104.009 291.866 104.353 292.854 105.043 293.544C105.75 294.233 106.73 294.578 107.982 294.578ZM123.24 285.297C124.528 285.297 125.489 285.007 126.124 284.427C126.778 283.828 127.104 283.066 127.104 282.14V281.95C127.104 280.952 126.787 280.208 126.152 279.718C125.535 279.21 124.718 278.956 123.702 278.956C122.722 278.956 121.924 279.174 121.307 279.609C120.69 280.027 120.182 280.598 119.783 281.324L118.096 280.018C118.332 279.637 118.613 279.265 118.939 278.902C119.284 278.521 119.683 278.185 120.137 277.895C120.591 277.604 121.117 277.369 121.715 277.187C122.314 277.006 122.995 276.915 123.757 276.915C124.555 276.915 125.308 277.024 126.016 277.242C126.723 277.441 127.331 277.75 127.839 278.167C128.365 278.566 128.773 279.065 129.064 279.664C129.372 280.263 129.526 280.943 129.526 281.705C129.526 282.322 129.427 282.875 129.227 283.365C129.046 283.855 128.792 284.281 128.465 284.644C128.138 285.007 127.748 285.316 127.295 285.57C126.859 285.824 126.388 286.014 125.879 286.141V286.25C126.388 286.359 126.877 286.54 127.349 286.794C127.839 287.03 128.265 287.348 128.628 287.747C129.009 288.128 129.309 288.6 129.526 289.162C129.762 289.706 129.88 290.332 129.88 291.04C129.88 291.857 129.726 292.609 129.418 293.299C129.109 293.97 128.674 294.551 128.111 295.041C127.549 295.513 126.868 295.884 126.07 296.157C125.272 296.429 124.392 296.565 123.43 296.565C122.614 296.565 121.888 296.474 121.253 296.293C120.618 296.111 120.055 295.866 119.565 295.558C119.075 295.249 118.64 294.905 118.259 294.524C117.896 294.143 117.57 293.743 117.279 293.326L118.994 292.02C119.23 292.401 119.484 292.746 119.756 293.054C120.046 293.362 120.364 293.626 120.708 293.843C121.053 294.061 121.443 294.233 121.879 294.36C122.314 294.469 122.822 294.524 123.403 294.524C124.745 294.524 125.762 294.224 126.451 293.626C127.14 293.009 127.485 292.138 127.485 291.013V290.795C127.485 289.67 127.14 288.808 126.451 288.21C125.762 287.593 124.745 287.284 123.403 287.284H121.171V285.297H123.24ZM137.218 296.238L144.485 279.201H136.374V282.739H134.333V277.242H146.798V279.256L139.667 296.238H137.218ZM155.877 285.297C157.166 285.297 158.127 285.007 158.762 284.427C159.415 283.828 159.742 283.066 159.742 282.14V281.95C159.742 280.952 159.424 280.208 158.789 279.718C158.173 279.21 157.356 278.956 156.34 278.956C155.36 278.956 154.562 279.174 153.945 279.609C153.328 280.027 152.82 280.598 152.421 281.324L150.734 280.018C150.969 279.637 151.251 279.265 151.577 278.902C151.922 278.521 152.321 278.185 152.775 277.895C153.228 277.604 153.755 277.369 154.353 277.187C154.952 277.006 155.632 276.915 156.394 276.915C157.193 276.915 157.946 277.024 158.653 277.242C159.361 277.441 159.969 277.75 160.477 278.167C161.003 278.566 161.411 279.065 161.702 279.664C162.01 280.263 162.164 280.943 162.164 281.705C162.164 282.322 162.064 282.875 161.865 283.365C161.683 283.855 161.429 284.281 161.103 284.644C160.776 285.007 160.386 285.316 159.933 285.57C159.497 285.824 159.025 286.014 158.517 286.141V286.25C159.025 286.359 159.515 286.54 159.987 286.794C160.477 287.03 160.903 287.348 161.266 287.747C161.647 288.128 161.946 288.6 162.164 289.162C162.4 289.706 162.518 290.332 162.518 291.04C162.518 291.857 162.364 292.609 162.055 293.299C161.747 293.97 161.311 294.551 160.749 295.041C160.187 295.513 159.506 295.884 158.708 296.157C157.909 296.429 157.029 296.565 156.068 296.565C155.251 296.565 154.526 296.474 153.891 296.293C153.256 296.111 152.693 295.866 152.203 295.558C151.713 295.249 151.278 294.905 150.897 294.524C150.534 294.143 150.207 293.743 149.917 293.326L151.632 292.02C151.868 292.401 152.122 292.746 152.394 293.054C152.684 293.362 153.002 293.626 153.346 293.843C153.691 294.061 154.081 294.233 154.517 294.36C154.952 294.469 155.46 294.524 156.041 294.524C157.383 294.524 158.399 294.224 159.089 293.626C159.778 293.009 160.123 292.138 160.123 291.013V290.795C160.123 289.67 159.778 288.808 159.089 288.21C158.399 287.593 157.383 287.284 156.041 287.284H153.809V285.297H155.877ZM176.288 296.238L183.554 279.201H175.444V282.739H173.403V277.242L185.868 277.242V279.256L178.737 296.238H176.288ZM194.947 285.297C196.235 285.297 197.197 285.007 197.832 284.427C198.485 283.828 198.812 283.066 198.812 282.14V281.95C198.812 280.952 198.494 280.208 197.859 279.718C197.242 279.21 196.426 278.956 195.41 278.956C194.43 278.956 193.632 279.174 193.015 279.609C192.398 280.027 191.89 280.598 191.491 281.324L189.803 280.018C190.039 279.637 190.32 279.265 190.647 278.902C190.992 278.521 191.391 278.185 191.844 277.895C192.298 277.604 192.824 277.369 193.423 277.187C194.022 277.006 194.702 276.915 195.464 276.915C196.262 276.915 197.015 277.024 197.723 277.242C198.431 277.441 199.039 277.75 199.547 278.167C200.073 278.566 200.481 279.065 200.771 279.664C201.08 280.263 201.234 280.943 201.234 281.705C201.234 282.322 201.134 282.875 200.935 283.365C200.753 283.855 200.499 284.281 200.173 284.644C199.846 285.007 199.456 285.316 199.002 285.57C198.567 285.824 198.095 286.014 197.587 286.141V286.25C198.095 286.359 198.585 286.54 199.057 286.794C199.547 287.03 199.973 287.348 200.336 287.747C200.717 288.128 201.016 288.6 201.234 289.162C201.47 289.706 201.588 290.332 201.588 291.04C201.588 291.857 201.434 292.609 201.125 293.299C200.817 293.97 200.381 294.551 199.819 295.041C199.256 295.513 198.576 295.884 197.778 296.157C196.979 296.429 196.099 296.565 195.138 296.565C194.321 296.565 193.595 296.474 192.96 296.293C192.325 296.111 191.763 295.866 191.273 295.558C190.783 295.249 190.348 294.905 189.967 294.524C189.604 294.143 189.277 293.743 188.987 293.326L190.701 292.02C190.937 292.401 191.191 292.746 191.463 293.054C191.754 293.362 192.071 293.626 192.416 293.843C192.761 294.061 193.151 294.233 193.586 294.36C194.022 294.469 194.53 294.524 195.11 294.524C196.453 294.524 197.469 294.224 198.159 293.626C198.848 293.009 199.193 292.138 199.193 291.013V290.795C199.193 289.67 198.848 288.808 198.159 288.21C197.469 287.593 196.453 287.284 195.11 287.284H192.879V285.297H194.947ZM212.327 296.565C211.239 296.565 210.286 296.429 209.47 296.157C208.653 295.866 207.964 295.476 207.401 294.986C206.857 294.496 206.44 293.916 206.149 293.245C205.877 292.573 205.741 291.847 205.741 291.067C205.741 289.761 206.095 288.727 206.803 287.965C207.51 287.203 208.436 286.667 209.579 286.359V286.141C208.581 285.796 207.782 285.243 207.184 284.481C206.603 283.701 206.313 282.766 206.313 281.678C206.313 280.226 206.839 279.074 207.891 278.221C208.944 277.35 210.422 276.915 212.327 276.915C214.232 276.915 215.711 277.35 216.764 278.221C217.816 279.074 218.342 280.226 218.342 281.678C218.342 282.766 218.043 283.701 217.444 284.481C216.863 285.243 216.074 285.796 215.076 286.141V286.359C216.219 286.667 217.145 287.203 217.852 287.965C218.56 288.727 218.914 289.761 218.914 291.067C218.914 291.847 218.768 292.573 218.478 293.245C218.206 293.916 217.789 294.496 217.226 294.986C216.682 295.476 216.002 295.866 215.185 296.157C214.369 296.429 213.416 296.565 212.327 296.565ZM212.327 294.578C213.652 294.578 214.677 294.288 215.403 293.707C216.129 293.108 216.491 292.265 216.491 291.176V290.605C216.491 289.516 216.129 288.681 215.403 288.101C214.677 287.502 213.652 287.203 212.327 287.203C211.003 287.203 209.978 287.502 209.252 288.101C208.526 288.681 208.163 289.516 208.163 290.605V291.176C208.163 292.265 208.526 293.108 209.252 293.707C209.978 294.288 211.003 294.578 212.327 294.578ZM212.327 285.297C213.525 285.297 214.432 285.043 215.049 284.535C215.666 284.027 215.974 283.284 215.974 282.304V281.896C215.974 280.916 215.666 280.172 215.049 279.664C214.432 279.156 213.525 278.902 212.327 278.902C211.13 278.902 210.223 279.156 209.606 279.664C208.989 280.172 208.68 280.916 208.68 281.896V282.304C208.68 283.284 208.989 284.027 209.606 284.535C210.223 285.043 211.13 285.297 212.327 285.297ZM234.988 296.238H222.523V293.898L228.728 288.182C229.617 287.366 230.361 286.504 230.96 285.597C231.558 284.672 231.858 283.746 231.858 282.821V282.494C231.858 281.442 231.567 280.589 230.987 279.936C230.406 279.283 229.526 278.956 228.347 278.956C227.766 278.956 227.258 279.038 226.823 279.201C226.387 279.364 226.006 279.591 225.68 279.882C225.371 280.172 225.108 280.517 224.89 280.916C224.691 281.297 224.528 281.714 224.401 282.168L222.359 281.378C222.541 280.816 222.786 280.272 223.094 279.745C223.421 279.201 223.82 278.72 224.292 278.303C224.782 277.886 225.362 277.55 226.034 277.296C226.723 277.042 227.53 276.915 228.456 276.915C229.381 276.915 230.207 277.051 230.932 277.323C231.658 277.595 232.266 277.976 232.756 278.466C233.246 278.956 233.618 279.537 233.872 280.208C234.144 280.879 234.28 281.623 234.28 282.44C234.28 283.184 234.171 283.873 233.953 284.508C233.754 285.143 233.473 285.751 233.11 286.332C232.747 286.894 232.302 287.448 231.776 287.992C231.268 288.536 230.715 289.08 230.116 289.625L224.999 294.224H234.988V296.238ZM247.995 296.238L255.262 279.201H247.151V282.739H245.11V277.242H257.575V279.256L250.445 296.238H247.995ZM274.057 296.238H261.592V293.898L267.798 288.182C268.687 287.366 269.431 286.504 270.029 285.597C270.628 284.672 270.927 283.746 270.927 282.821V282.494C270.927 281.442 270.637 280.589 270.057 279.936C269.476 279.283 268.596 278.956 267.417 278.956C266.836 278.956 266.328 279.038 265.893 279.201C265.457 279.364 265.076 279.591 264.749 279.882C264.441 280.172 264.178 280.517 263.96 280.916C263.761 281.297 263.597 281.714 263.47 282.168L261.429 281.378C261.611 280.816 261.856 280.272 262.164 279.745C262.491 279.201 262.89 278.72 263.361 278.303C263.851 277.886 264.432 277.55 265.103 277.296C265.793 277.042 266.6 276.915 267.525 276.915C268.451 276.915 269.276 277.051 270.002 277.323C270.728 277.595 271.336 277.976 271.826 278.466C272.315 278.956 272.687 279.537 272.941 280.208C273.214 280.879 273.35 281.623 273.35 282.44C273.35 283.184 273.241 283.873 273.023 284.508C272.824 285.143 272.542 285.751 272.179 286.332C271.817 286.894 271.372 287.448 270.846 287.992C270.338 288.536 269.784 289.08 269.186 289.625L264.069 294.224H274.057V296.238ZM284.035 296.565C282.946 296.565 281.994 296.429 281.177 296.157C280.361 295.866 279.671 295.476 279.109 294.986C278.565 294.496 278.147 293.916 277.857 293.245C277.585 292.573 277.449 291.847 277.449 291.067C277.449 289.761 277.802 288.727 278.51 287.965C279.218 287.203 280.143 286.667 281.286 286.359V286.141C280.288 285.796 279.49 285.243 278.891 284.481C278.31 283.701 278.02 282.766 278.02 281.678C278.02 280.226 278.546 279.074 279.599 278.221C280.651 277.35 282.13 276.915 284.035 276.915C285.94 276.915 287.419 277.35 288.471 278.221C289.523 279.074 290.05 280.226 290.05 281.678C290.05 282.766 289.75 283.701 289.151 284.481C288.571 285.243 287.782 285.796 286.784 286.141V286.359C287.927 286.667 288.852 287.203 289.56 287.965C290.267 288.727 290.621 289.761 290.621 291.067C290.621 291.847 290.476 292.573 290.186 293.245C289.914 293.916 289.496 294.496 288.934 294.986C288.389 295.476 287.709 295.866 286.893 296.157C286.076 296.429 285.124 296.565 284.035 296.565ZM284.035 294.578C285.359 294.578 286.385 294.288 287.11 293.707C287.836 293.108 288.199 292.265 288.199 291.176V290.605C288.199 289.516 287.836 288.681 287.11 288.101C286.385 287.502 285.359 287.203 284.035 287.203C282.71 287.203 281.685 287.502 280.96 288.101C280.234 288.681 279.871 289.516 279.871 290.605V291.176C279.871 292.265 280.234 293.108 280.96 293.707C281.685 294.288 282.71 294.578 284.035 294.578ZM284.035 285.297C285.232 285.297 286.14 285.043 286.756 284.535C287.373 284.027 287.682 283.284 287.682 282.304V281.896C287.682 280.916 287.373 280.172 286.756 279.664C286.14 279.156 285.232 278.902 284.035 278.902C282.837 278.902 281.93 279.156 281.313 279.664C280.696 280.172 280.388 280.916 280.388 281.896V282.304C280.388 283.284 280.696 284.027 281.313 284.535C281.93 285.043 282.837 285.297 284.035 285.297ZM296.952 296.238L304.218 279.201H296.108V282.739H294.067V277.242H306.532V279.256L299.401 296.238H296.952Z" fill="black"/>
<path d="M41.3693 319.773H41.2822L40.1065 322.189L36.993 327.937L33.8795 322.189L32.7038 319.773H32.6167L32.6167 330.681H29.8951L29.8951 315.483H33.1392L37.0366 322.908H37.1236L40.9774 315.483H44.0909V330.681H41.3693V319.773ZM53.6362 330.942C52.6347 330.942 51.7275 330.775 50.9146 330.441C50.1018 330.107 49.4051 329.607 48.8244 328.939C48.2584 328.271 47.8156 327.451 47.4963 326.479C47.177 325.506 47.0173 324.374 47.0173 323.082C47.0173 321.805 47.177 320.68 47.4963 319.707C47.8156 318.72 48.2584 317.893 48.8244 317.225C49.4051 316.557 50.1018 316.057 50.9146 315.723C51.7275 315.389 52.6347 315.222 53.6362 315.222C54.6378 315.222 55.545 315.389 56.3578 315.723C57.1707 316.057 57.8674 316.557 58.448 317.225C59.0286 317.893 59.4713 318.72 59.7761 319.707C60.0955 320.68 60.2551 321.805 60.2551 323.082C60.2551 324.374 60.0955 325.506 59.7761 326.479C59.4713 327.451 59.0286 328.271 58.448 328.939C57.8674 329.607 57.1707 330.107 56.3578 330.441C55.545 330.775 54.6378 330.942 53.6362 330.942ZM53.6362 328.395C54.7249 328.395 55.5885 328.032 56.2272 327.306C56.8804 326.58 57.2069 325.564 57.2069 324.258V321.906C57.2069 320.6 56.8804 319.584 56.2272 318.858C55.5885 318.132 54.7249 317.769 53.6362 317.769C52.5476 317.769 51.6767 318.132 51.0235 318.858C50.3848 319.584 50.0655 320.6 50.0655 321.906V324.258C50.0655 325.564 50.3848 326.58 51.0235 327.306C51.6767 328.032 52.5476 328.395 53.6362 328.395ZM72.3807 324.258H66.0448V330.681H63.1708L63.1708 315.483H66.0448V321.71H72.3807V315.483H75.2547V330.681H72.3807V324.258ZM88.2258 330.681L87.0065 326.805H81.6069L80.4094 330.681H77.4918L82.5866 315.483H86.1574L91.2086 330.681H88.2258ZM84.3502 318.096H84.2414L82.3036 324.345H86.3098L84.3502 318.096ZM104.923 319.773H104.836L103.66 322.189L100.546 327.937L97.4329 322.189L96.2572 319.773H96.1701V330.681H93.4485V315.483H96.6926L100.59 322.908H100.677L104.531 315.483H107.644V330.681H104.923V319.773ZM122.698 319.773H122.611L121.435 322.189L118.322 327.937L115.208 322.189L114.033 319.773H113.945V330.681H111.224V315.483H114.468L118.365 322.908H118.452L122.306 315.483H125.42V330.681H122.698V319.773ZM138.405 330.681L137.186 326.805H131.786L130.589 330.681H127.671L132.766 315.483H136.337L141.388 330.681H138.405ZM134.53 318.096H134.421L132.483 324.345H136.489L134.53 318.096ZM143.628 315.483H149.158C150.145 315.483 151.038 315.643 151.836 315.962C152.649 316.282 153.338 316.761 153.905 317.399C154.485 318.023 154.928 318.815 155.233 319.773C155.552 320.716 155.712 321.819 155.712 323.082C155.712 324.345 155.552 325.455 155.233 326.413C154.928 327.357 154.485 328.148 153.905 328.786C153.338 329.411 152.649 329.882 151.836 330.202C151.038 330.521 150.145 330.681 149.158 330.681H143.628V315.483ZM149.158 328.133C150.232 328.133 151.081 327.821 151.705 327.197C152.344 326.558 152.663 325.586 152.663 324.279V321.884C152.663 320.578 152.344 319.613 151.705 318.989C151.081 318.35 150.232 318.031 149.158 318.031H146.502V328.133H149.158ZM168.683 323.8L166.659 326.195V330.681H163.785V315.483H166.659V322.973H166.767L168.923 320.121L172.69 315.483L175.999 315.483L170.708 321.819L176.435 330.681H173.016L168.683 323.8ZM187.751 324.258H181.415V330.681L178.541 330.681V315.483H181.415V321.71H187.751V315.483H190.625V330.681H187.751V324.258ZM203.596 330.681L202.376 326.805H196.977L195.779 330.681H192.862L197.957 315.483H201.527L206.579 330.681H203.596ZM199.72 318.096H199.611L197.673 324.345H201.68L199.72 318.096ZM208.818 330.681V315.483H211.692V328.133H217.68V330.681H208.818ZM219.541 330.681V328.373H221.544V317.791H219.541V315.483H226.443V317.791H224.418V328.373H226.443V330.681H219.541ZM229.379 315.483H234.909C235.896 315.483 236.789 315.643 237.587 315.962C238.4 316.282 239.09 316.761 239.656 317.399C240.237 318.023 240.679 318.815 240.984 319.773C241.303 320.716 241.463 321.819 241.463 323.082C241.463 324.345 241.303 325.455 240.984 326.413C240.679 327.357 240.237 328.148 239.656 328.786C239.09 329.411 238.4 329.882 237.587 330.202C236.789 330.521 235.896 330.681 234.909 330.681H229.379V315.483ZM234.909 328.133C235.984 328.133 236.833 327.821 237.457 327.197C238.096 326.558 238.415 325.586 238.415 324.279V321.884C238.415 320.578 238.096 319.613 237.457 318.989C236.833 318.35 235.984 318.031 234.909 318.031H232.253V328.133L234.909 328.133Z" fill="black"/>
<path d="M463.751 280.801V267.534H471.848V268.94H465.348V273.388H471.468V274.794H465.348V279.394H471.848V280.801H463.751ZM473.464 280.801L477.094 275.859L473.616 270.993H475.403L477.893 274.642H477.95L480.535 270.993H482.226L478.767 275.745L482.302 280.801H480.516L477.969 276.961H477.912L475.156 280.801H473.464ZM484.314 270.993H485.835V272.59H485.911C486.164 271.969 486.532 271.513 487.013 271.221C487.507 270.917 488.097 270.765 488.781 270.765C489.389 270.765 489.94 270.885 490.435 271.126C490.929 271.367 491.347 271.709 491.689 272.152C492.044 272.596 492.31 273.134 492.487 273.768C492.677 274.402 492.772 275.111 492.772 275.897C492.772 276.683 492.677 277.392 492.487 278.026C492.31 278.659 492.044 279.198 491.689 279.641C491.347 280.085 490.929 280.427 490.435 280.668C489.94 280.908 489.389 281.029 488.781 281.029C487.45 281.029 486.494 280.421 485.911 279.204H485.835V284.602H484.314V270.993ZM488.363 279.66C489.224 279.66 489.902 279.394 490.397 278.862C490.891 278.317 491.138 277.608 491.138 276.733V275.061C491.138 274.186 490.891 273.483 490.397 272.951C489.902 272.406 489.224 272.133 488.363 272.133C488.021 272.133 487.691 272.184 487.374 272.285C487.07 272.374 486.804 272.501 486.576 272.666C486.348 272.83 486.164 273.033 486.025 273.274C485.898 273.502 485.835 273.749 485.835 274.015V277.665C485.835 277.981 485.898 278.266 486.025 278.52C486.164 278.761 486.348 278.97 486.576 279.147C486.804 279.312 487.07 279.439 487.374 279.527C487.691 279.616 488.021 279.66 488.363 279.66ZM496.1 268.693C495.771 268.693 495.53 268.617 495.378 268.465C495.239 268.3 495.169 268.091 495.169 267.838V267.591C495.169 267.337 495.239 267.135 495.378 266.982C495.53 266.818 495.771 266.735 496.1 266.735C496.43 266.735 496.664 266.818 496.803 266.982C496.956 267.135 497.032 267.337 497.032 267.591V267.838C497.032 268.091 496.956 268.3 496.803 268.465C496.664 268.617 496.43 268.693 496.1 268.693ZM495.34 270.993H496.86V280.801H495.34V270.993ZM500.092 280.801V270.993H501.612V272.799H501.707C501.885 272.33 502.202 271.912 502.658 271.544C503.114 271.177 503.741 270.993 504.539 270.993H505.129V272.514H504.235C503.412 272.514 502.765 272.672 502.297 272.989C501.84 273.293 501.612 273.679 501.612 274.148V280.801H500.092ZM513.301 270.993H514.803L510.412 283.082C510.298 283.373 510.184 283.614 510.07 283.804C509.956 284.007 509.816 284.165 509.652 284.279C509.487 284.393 509.278 284.476 509.024 284.526C508.784 284.577 508.486 284.602 508.131 284.602H507.352V283.272H508.891L509.633 281.181L505.964 270.993H507.485L509.842 277.665L510.298 279.261H510.393L510.925 277.665L513.301 270.993Z" fill="black"/>
<path d="M463.965 309.232V306.903H468.145V296.103H467.949L464.64 300.023L462.854 298.52L466.621 294.035H470.954V306.903H474.438V309.232H463.965ZM486.927 309.232H476.389V306.576L481.157 302.396C481.97 301.685 482.565 301.046 482.942 300.48C483.32 299.899 483.508 299.275 483.508 298.607V298.324C483.508 297.657 483.29 297.149 482.855 296.8C482.42 296.437 481.89 296.256 481.266 296.256C480.482 296.256 479.887 296.481 479.48 296.931C479.074 297.366 478.784 297.896 478.609 298.52L476.127 297.562C476.287 297.054 476.512 296.575 476.802 296.125C477.093 295.661 477.455 295.254 477.891 294.906C478.341 294.558 478.863 294.282 479.458 294.079C480.054 293.875 480.736 293.774 481.505 293.774C482.303 293.774 483.015 293.89 483.639 294.122C484.263 294.34 484.786 294.652 485.206 295.058C485.642 295.465 485.969 295.944 486.186 296.495C486.419 297.047 486.535 297.649 486.535 298.303C486.535 298.941 486.433 299.522 486.23 300.044C486.027 300.567 485.751 301.068 485.402 301.547C485.054 302.011 484.648 302.461 484.183 302.897C483.719 303.317 483.225 303.746 482.703 304.181L479.502 306.816H486.927V309.232ZM488.203 312.52L494.451 293.121H496.781L490.532 312.52H488.203ZM509.486 309.232H498.948V306.576L503.716 302.396C504.529 301.685 505.124 301.046 505.502 300.48C505.879 299.899 506.068 299.275 506.068 298.607V298.324C506.068 297.657 505.85 297.149 505.414 296.8C504.979 296.437 504.449 296.256 503.825 296.256C503.041 296.256 502.446 296.481 502.04 296.931C501.633 297.366 501.343 297.896 501.169 298.52L498.687 297.562C498.846 297.054 499.071 296.575 499.362 296.125C499.652 295.661 500.015 295.254 500.45 294.906C500.9 294.558 501.423 294.282 502.018 294.079C502.613 293.875 503.295 293.774 504.065 293.774C504.863 293.774 505.574 293.89 506.198 294.122C506.822 294.34 507.345 294.652 507.766 295.058C508.201 295.465 508.528 295.944 508.746 296.495C508.978 297.047 509.094 297.649 509.094 298.303C509.094 298.941 508.992 299.522 508.789 300.044C508.586 300.567 508.31 301.068 507.962 301.547C507.614 302.011 507.207 302.461 506.743 302.897C506.278 303.317 505.785 303.746 505.262 304.181L502.061 306.816H509.486V309.232ZM522.65 299.74C522.65 300.828 522.483 301.859 522.149 302.831C521.83 303.789 521.409 304.675 520.886 305.488C520.364 306.286 519.776 307.004 519.123 307.643C518.484 308.267 517.845 308.797 517.207 309.232H513.331C514.217 308.594 515.015 307.977 515.726 307.382C516.437 306.787 517.054 306.184 517.577 305.575C518.114 304.965 518.549 304.334 518.883 303.68C519.232 303.013 519.493 302.294 519.667 301.525L519.493 301.481C519.348 301.772 519.174 302.055 518.97 302.33C518.782 302.606 518.549 302.846 518.274 303.049C517.998 303.252 517.679 303.419 517.316 303.55C516.953 303.666 516.532 303.724 516.053 303.724C515.414 303.724 514.826 303.615 514.289 303.397C513.752 303.18 513.28 302.868 512.874 302.461C512.482 302.04 512.17 301.547 511.938 300.981C511.72 300.4 511.611 299.747 511.611 299.021C511.611 298.252 511.742 297.548 512.003 296.909C512.264 296.27 512.635 295.719 513.114 295.254C513.593 294.79 514.166 294.427 514.834 294.166C515.516 293.904 516.278 293.774 517.12 293.774C517.991 293.774 518.767 293.919 519.449 294.209C520.132 294.485 520.712 294.884 521.191 295.407C521.67 295.915 522.033 296.539 522.28 297.279C522.527 298.005 522.65 298.825 522.65 299.74ZM517.12 301.503C517.933 301.503 518.564 301.285 519.014 300.85C519.464 300.4 519.689 299.761 519.689 298.934V298.607C519.689 297.78 519.464 297.149 519.014 296.713C518.564 296.263 517.933 296.038 517.12 296.038C516.321 296.038 515.69 296.263 515.225 296.713C514.775 297.149 514.551 297.78 514.551 298.607V298.934C514.551 299.761 514.775 300.4 515.225 300.85C515.69 301.285 516.321 301.503 517.12 301.503Z" fill="black"/>
<path d="M34.8322 79.928C49.4106 92.7807 72.8602 84.3557 75.4657 65.0459C62.5622 70.2116 50.7134 74.1473 34.8322 79.928Z" fill="#E20004"/>
<path d="M36.6311 79.215C50.7753 90.5669 73.1082 80.9119 75.4656 65.0459C64.5912 69.3664 50.0149 74.3801 36.6311 79.215Z" fill="#E20004"/>
<path d="M58.8399 57.4882C58.5919 58.8412 49.5751 60.2401 26.8294 65.6057C23.0452 42.8521 50.5892 27.4781 68.3314 44.1435C60.639 44.82 54.8869 45.358 50.5892 45.9269C41.3458 47.4643 39.1126 48.0766 39.1126 48.6943C39.1126 49.2477 43.6926 50.3321 48.6041 52.0766C53.8933 53.9552 59.5844 56.1968 58.8399 57.4882Z" fill="#E20004"/>
<path d="M50.5272 57.113L26.5193 62.5862C25.7128 42.7844 47.7357 30.3006 64.2992 41.0286C54.2494 41.7389 48.2319 42.4583 39.857 44.5338C39.1126 44.7183 36.7487 45.5992 36.9413 46.9046C37.134 48.2101 39.4848 49.057 39.4848 49.057L50.5272 52.8083C50.5272 52.8083 54.6836 54.0997 54.6836 55.1451C54.6836 56.1906 50.5272 57.113 50.5272 57.113Z" fill="#E20004"/>
<path d="M74.845 55.2068C73.7904 51.2095 72.3016 48.9341 69.8822 45.7363C64.2363 46.3929 61.0793 46.7758 55.5519 47.6427C55.5519 47.6427 52.6362 48.2577 52.6362 48.7496C52.6362 49.4876 55.5519 50.1641 55.5519 50.1641C63.0803 52.02 67.3036 53.103 74.845 55.2068Z" fill="#E20004"/>
<path d="M74.3491 53.7299C73.4594 50.3556 71.9553 48.4348 69.9143 45.7354C65.1517 46.2896 62.4885 46.6129 57.8257 47.3446C57.8257 47.3446 55.3661 47.6369 55.3661 48.2599C55.3661 48.8828 57.8257 49.473 57.8257 49.473C64.3599 51.0365 68.0405 51.8924 74.3491 53.7299Z" fill="#E20004"/>
<path d="M511.355 72.4658C516.454 65.8796 516.454 57.2793 511.355 50.6931M505.749 69.5628C509.486 64.7184 509.486 58.4224 505.749 53.578M500.142 65.5711C502.011 63.158 502.011 60.0009 500.142 57.5878" stroke="#FF0000" stroke-width="2.72159" stroke-linecap="round" stroke-linejoin="round"/>
<path d="M489.51 67.0229V56.1365C489.51 47.0646 493.139 43.4358 502.211 43.4358H513.097C522.169 43.4358 525.798 47.0646 525.798 56.1365V67.0229C525.798 76.0948 522.169 79.7236 513.097 79.7236H502.211C493.139 79.7236 489.51 76.0948 489.51 67.0229Z" stroke="#FF0000" stroke-width="2.72159" stroke-linecap="round" stroke-linejoin="round"/>
</g>
<defs>
<filter id="filter1_f_529_254" x="-164.809" y="-60.8517" width="860.213" height="663.936" filterUnits="userSpaceOnUse" color-interpolation-filters="sRGB">
<feFlood flood-opacity="0" result="BackgroundImageFix"/>
<feBlend mode="normal" in="SourceGraphic" in2="BackgroundImageFix" result="shape"/>
<feGaussianBlur stdDeviation="72.1016" result="effect1_foregroundBlur_529_254"/>
</filter>
<linearGradient id="paint0_linear_529_254" x1="265.297" y1="210.531" x2="265.297" y2="329.699" gradientUnits="userSpaceOnUse">
<stop stop-color="#500000"/>
<stop offset="1" stop-color="#E20004"/>
</linearGradient>
<clipPath id="clip0_529_254">
<rect x="0.894104" y="0.616211" width="550.306" height="347.275" rx="27.2159" fill="white"/>
</clipPath>
</defs>
</svg>
