<svg width="35" height="37" viewBox="0 0 35 37" fill="none" xmlns="http://www.w3.org/2000/svg">
<path d="M17.5184 34.462C26.2322 34.462 33.296 27.3981 33.296 18.6844C33.296 9.97062 26.2322 2.90674 17.5184 2.90674C8.80467 2.90674 1.74078 9.97062 1.74078 18.6844C1.74078 27.3981 8.80467 34.462 17.5184 34.462Z" fill="white"/>
<path d="M27.518 9.85467C27.4938 9.86577 27.4727 9.88264 27.4566 9.90379C27.4386 9.92323 27.425 9.94625 27.4167 9.97133C27.4122 9.99673 27.4122 10.0227 27.4167 10.0481C27.4191 10.0748 27.4264 10.1008 27.4381 10.1248C27.491 10.229 27.5113 10.3467 27.4965 10.4626C27.4817 10.5751 27.436 10.6814 27.3645 10.7696C27.3477 10.7893 27.3352 10.8124 27.3278 10.8372C27.3204 10.8621 27.3183 10.8882 27.3215 10.9139C27.3243 10.9397 27.3322 10.9647 27.3449 10.9874C27.3575 11.0101 27.3746 11.03 27.3952 11.0459C27.4344 11.0791 27.4851 11.0957 27.5364 11.0919C27.5623 11.0903 27.5876 11.0835 27.6108 11.0719C27.634 11.0603 27.6546 11.0441 27.6715 11.0244C27.7961 10.8749 27.8749 10.6926 27.8987 10.4994C27.9208 10.3052 27.8856 10.1089 27.7974 9.93449C27.7737 9.8882 27.733 9.85295 27.6838 9.83625C27.6282 9.82016 27.5686 9.82679 27.518 9.85467Z" fill="#FF6C37"/>
<path d="M19.7904 1.29506C16.3878 0.862798 12.9335 1.44894 9.864 2.9794C6.7945 4.50986 4.2476 6.91594 2.54522 9.89353C0.842835 12.8711 0.061382 16.2866 0.299628 19.7082C0.537875 23.1298 1.78513 26.4039 3.88374 29.1169C5.98235 31.8298 8.83813 33.8597 12.0901 34.95C15.3421 36.0403 18.8443 36.142 22.1541 35.2424C25.4639 34.3428 28.4327 32.4821 30.6853 29.8956C32.9379 27.3091 34.3732 24.1129 34.8097 20.7108C35.3898 16.145 34.1338 11.5355 31.3177 7.89506C28.5015 4.25458 24.3555 1.88077 19.7904 1.29506ZM23.3671 12.1174C23.0441 12.1204 22.7352 12.2506 22.5075 12.4797L16.0601 18.9271L14.6847 17.5516C21.0369 11.2148 22.1851 11.1534 23.3671 12.1174ZM16.3241 19.142L22.7531 12.7253C22.8584 12.6203 22.9882 12.5431 23.1307 12.5007C23.2733 12.4583 23.4242 12.4521 23.5698 12.4826C23.7153 12.513 23.8511 12.5792 23.9647 12.6752C24.0783 12.7712 24.1663 12.8939 24.2206 13.0323C24.2644 13.1458 24.2853 13.2669 24.282 13.3885C24.2783 13.5109 24.249 13.6311 24.1961 13.7416C24.1435 13.8523 24.0694 13.9515 23.9781 14.0332L17.1746 19.9924L16.3241 19.142ZM16.8031 20.1459L15.2097 20.4959C15.201 20.4998 15.1916 20.5018 15.182 20.5018C15.1725 20.5018 15.1631 20.4998 15.1544 20.4959C15.1363 20.4889 15.1212 20.4759 15.1114 20.4591C15.1056 20.4411 15.1056 20.4218 15.1114 20.4038C15.1151 20.3847 15.1236 20.3667 15.136 20.3516L16.057 19.4306L16.8031 20.1459ZM12.7443 19.4828L14.4298 17.788L15.704 19.056L12.8364 19.6701C12.8138 19.6791 12.7885 19.6791 12.7658 19.6701C12.7436 19.6597 12.7253 19.6425 12.7136 19.6209C12.7064 19.599 12.7064 19.5753 12.7136 19.5534C12.7142 19.5267 12.7252 19.5014 12.7443 19.4828ZM7.46361 28.242C7.44312 28.2396 7.42384 28.2311 7.40835 28.2174C7.39099 28.2061 7.37716 28.1902 7.36843 28.1714C7.36057 28.1517 7.36057 28.1297 7.36843 28.11C7.37326 28.0906 7.38275 28.0727 7.39607 28.0578L8.76536 26.6885L10.5369 28.4569L7.46361 28.242ZM10.9759 26.4244C10.9116 26.4586 10.86 26.5124 10.8285 26.578C10.7969 26.645 10.7893 26.7209 10.807 26.7929L11.0987 28.0424C11.1111 28.0793 11.1111 28.1192 11.0987 28.156C11.0834 28.1916 11.0563 28.2209 11.0219 28.2389C10.988 28.2597 10.9476 28.2674 10.9083 28.2604C10.8706 28.2561 10.8351 28.24 10.807 28.2144L9.0294 26.4398L14.4605 21.0025L17.0978 20.4376L18.3627 21.7025C16.5421 23.2898 14.0645 24.8801 10.9759 26.4214V26.4244ZM18.6176 21.4692L17.3895 20.2411L24.2053 14.2911C24.2696 14.2366 24.3273 14.1748 24.3772 14.1069C24.1623 16.0534 21.4391 18.7981 18.6206 21.4753L18.6176 21.4692ZM23.9105 12.1266C23.4253 11.6473 23.1449 10.9985 23.1283 10.3166C23.1117 9.63474 23.3603 8.97303 23.8216 8.47068C24.283 7.96834 24.9212 7.66454 25.6021 7.6232C26.2829 7.58185 26.9532 7.80619 27.4719 8.24901L25.1355 10.5793C25.1205 10.5957 25.1081 10.6143 25.0987 10.6345C25.0886 10.6556 25.0834 10.6787 25.0834 10.7021C25.0834 10.7255 25.0886 10.7485 25.0987 10.7696C25.1081 10.7898 25.1205 10.8085 25.1355 10.8249L26.9408 12.6271C26.4472 12.8703 25.8898 12.9529 25.3468 12.8631C24.8039 12.7733 24.3027 12.5158 23.9136 12.1266H23.9105ZM27.6439 12.1266C27.5236 12.242 27.392 12.3449 27.2509 12.4337L25.504 10.7021L27.7237 8.48541C28.181 8.98703 28.4267 9.64598 28.4096 10.3245C28.3924 11.0031 28.1137 11.6488 27.6316 12.1266H27.6439Z" fill="#FF6500"/>
</svg>
