<svg width="612" height="408" viewBox="0 0 612 408" fill="none" xmlns="http://www.w3.org/2000/svg">
<g filter="url(#filter0_d_534_346)">
<g clip-path="url(#clip0_534_346)">
<rect x="60.87" y="30.3867" width="550.306" height="347.275" rx="27.2159" fill="black"/>
<g filter="url(#filter1_f_534_346)">
<path d="M267.691 335.436C144.317 353.862 50.7187 257.326 39.3694 236.297L39.3694 488.652L611.176 488.652V113.123C564.109 230.288 391.065 317.01 267.691 335.436Z" fill="url(#paint0_linear_534_346)"/>
</g>
<mask id="path-3-outside-1_534_346" maskUnits="userSpaceOnUse" x="214.87" y="9.38672" width="1465" height="275" fill="black">
<rect fill="white" x="214.87" y="9.38672" width="1465" height="275"/>
<path d="M280.93 279.387L220.89 14.1467H277.89L302.97 141.447L317.03 215.167H318.17L334.89 141.447L364.15 14.1467H427.23L456.87 141.447L473.21 215.167H474.35L488.41 141.447L513.87 14.1467H568.59L507.03 279.387H441.29L407.85 135.747L394.93 77.6067H393.79L380.49 135.747L347.05 279.387H280.93ZM761.377 279.387L742.377 216.307L653.837 216.307L634.837 279.387H576.317L663.717 14.1467H735.157L821.417 279.387H761.377ZM698.677 66.5867H696.777L667.517 167.287L728.317 167.287L698.677 66.5867ZM858.114 279.387V14.1467H915.874V228.087H1016.95V279.387H858.114ZM1059.62 279.387V14.1467L1117.38 14.1467V228.087H1218.46V279.387H1059.62ZM1261.12 279.387V14.1467L1441.62 14.1467V65.4467H1318.88V119.787H1424.14V170.707H1318.88V228.087H1441.62V279.387H1261.12ZM1602.52 65.4467V279.387H1544.76V65.4467L1472.94 65.4467V14.1467L1674.34 14.1467V65.4467H1602.52Z"/>
</mask>
<path d="M280.93 279.387L276.441 280.403L277.253 283.989H280.93V279.387ZM220.89 14.1467V9.54425H215.129L216.401 15.1628L220.89 14.1467ZM277.89 14.1467L282.405 13.2571L281.674 9.54425H277.89V14.1467ZM302.97 141.447L307.491 140.584L307.488 140.571L307.485 140.557L302.97 141.447ZM317.03 215.167L312.509 216.029L313.222 219.769H317.03V215.167ZM318.17 215.167V219.769H321.845L322.658 216.185L318.17 215.167ZM334.89 141.447L330.404 140.416L330.401 140.429L334.89 141.447ZM364.15 14.1467V9.54425H360.485L359.664 13.1157L364.15 14.1467ZM427.23 14.1467L431.712 13.103L430.884 9.54425H427.23V14.1467ZM456.87 141.447L461.363 140.451L461.358 140.427L461.352 140.403L456.87 141.447ZM473.21 215.167L468.716 216.163L469.516 219.769H473.21V215.167ZM474.35 215.167V219.769H478.157L478.871 216.029L474.35 215.167ZM488.41 141.447L483.897 140.544L483.893 140.564L483.889 140.584L488.41 141.447ZM513.87 14.1467V9.54425H510.097L509.357 13.2441L513.87 14.1467ZM568.59 14.1467L573.073 15.1873L574.383 9.54425H568.59V14.1467ZM507.03 279.387V283.989H510.686L511.513 280.427L507.03 279.387ZM441.29 279.387L436.807 280.43L437.636 283.989H441.29V279.387ZM407.85 135.747L403.357 136.745L403.362 136.768L403.367 136.79L407.85 135.747ZM394.93 77.6067L399.423 76.6083L398.622 73.0042H394.93V77.6067ZM393.79 77.6067V73.0042H390.121L389.303 76.5804L393.79 77.6067ZM380.49 135.747L384.972 136.79L384.974 136.782L384.976 136.773L380.49 135.747ZM347.05 279.387V283.989H350.704L351.532 280.43L347.05 279.387ZM280.93 279.387L285.419 278.371L225.379 13.1306L220.89 14.1467L216.401 15.1628L276.441 280.403L280.93 279.387ZM220.89 14.1467V18.7492H277.89V14.1467V9.54425H220.89V14.1467ZM277.89 14.1467L273.374 15.0364L298.454 142.336L302.97 141.447L307.485 140.557L282.405 13.2571L277.89 14.1467ZM302.97 141.447L298.449 142.309L312.509 216.029L317.03 215.167L321.551 214.304L307.491 140.584L302.97 141.447ZM317.03 215.167V219.769H318.17V215.167V210.564H317.03V215.167ZM318.17 215.167L322.658 216.185L339.378 142.465L334.89 141.447L330.401 140.429L313.681 214.149L318.17 215.167ZM334.89 141.447L339.375 142.478L368.635 15.1777L364.15 14.1467L359.664 13.1157L330.404 140.416L334.89 141.447ZM364.15 14.1467V18.7492H427.23V14.1467V9.54425H364.15V14.1467ZM427.23 14.1467L422.747 15.1904L452.387 142.49L456.87 141.447L461.352 140.403L431.712 13.103L427.23 14.1467ZM456.87 141.447L452.376 142.443L468.716 216.163L473.21 215.167L477.703 214.171L461.363 140.451L456.87 141.447ZM473.21 215.167V219.769H474.35V215.167V210.564H473.21V215.167ZM474.35 215.167L478.871 216.029L492.931 142.309L488.41 141.447L483.889 140.584L469.829 214.304L474.35 215.167ZM488.41 141.447L492.923 142.349L518.383 15.0494L513.87 14.1467L509.357 13.2441L483.897 140.544L488.41 141.447ZM513.87 14.1467V18.7492H568.59V14.1467V9.54425H513.87V14.1467ZM568.59 14.1467L564.106 13.1062L502.546 278.346L507.03 279.387L511.513 280.427L573.073 15.1873L568.59 14.1467ZM507.03 279.387V274.784H441.29V279.387V283.989H507.03V279.387ZM441.29 279.387L445.772 278.343L412.332 134.703L407.85 135.747L403.367 136.79L436.807 280.43L441.29 279.387ZM407.85 135.747L412.343 134.748L399.423 76.6083L394.93 77.6067L390.437 78.6051L403.357 136.745L407.85 135.747ZM394.93 77.6067V73.0042H393.79V77.6067V82.2092H394.93V77.6067ZM393.79 77.6067L389.303 76.5804L376.003 134.72L380.49 135.747L384.976 136.773L398.276 78.6331L393.79 77.6067ZM380.49 135.747L376.007 134.703L342.567 278.343L347.05 279.387L351.532 280.43L384.972 136.79L380.49 135.747ZM347.05 279.387V274.784H280.93V279.387V283.989H347.05V279.387ZM761.377 279.387L756.97 280.714L757.957 283.989H761.377V279.387ZM742.377 216.307L746.784 214.979L745.798 211.704H742.377V216.307ZM653.837 216.307V211.704H650.417L649.43 214.979L653.837 216.307ZM634.837 279.387V283.989H638.258L639.244 280.714L634.837 279.387ZM576.317 279.387L571.946 277.946L569.955 283.989H576.317V279.387ZM663.717 14.1467V9.54425H660.388L659.346 12.7063L663.717 14.1467ZM735.157 14.1467L739.534 12.7233L738.5 9.54425H735.157V14.1467ZM821.417 279.387V283.989H827.754L825.794 277.963L821.417 279.387ZM698.677 66.5867L703.093 65.2872L702.12 61.9843H698.677V66.5867ZM696.777 66.5867V61.9843H693.322L692.358 65.3025L696.777 66.5867ZM667.517 167.287L663.098 166.003L661.387 171.889H667.517V167.287ZM728.317 167.287V171.889H734.47L732.733 165.987L728.317 167.287ZM761.377 279.387L765.784 278.059L746.784 214.979L742.377 216.307L737.97 217.634L756.97 280.714L761.377 279.387ZM742.377 216.307V211.704L653.837 211.704V216.307V220.909L742.377 220.909V216.307ZM653.837 216.307L649.43 214.979L630.43 278.059L634.837 279.387L639.244 280.714L658.244 217.634L653.837 216.307ZM634.837 279.387V274.784H576.317V279.387V283.989H634.837V279.387ZM576.317 279.387L580.689 280.827L668.089 15.5871L663.717 14.1467L659.346 12.7063L571.946 277.946L576.317 279.387ZM663.717 14.1467V18.7492H735.157V14.1467V9.54425H663.717V14.1467ZM735.157 14.1467L730.781 15.5702L817.041 280.81L821.417 279.387L825.794 277.963L739.534 12.7233L735.157 14.1467ZM821.417 279.387V274.784H761.377V279.387V283.989H821.417V279.387ZM698.677 66.5867V61.9843H696.777V66.5867V71.1892H698.677V66.5867ZM696.777 66.5867L692.358 65.3025L663.098 166.003L667.517 167.287L671.937 168.571L701.197 67.8709L696.777 66.5867ZM667.517 167.287V171.889L728.317 171.889V167.287V162.684L667.517 162.684V167.287ZM728.317 167.287L732.733 165.987L703.093 65.2872L698.677 66.5867L694.262 67.8863L723.902 168.586L728.317 167.287ZM858.114 279.387H853.512V283.989H858.114V279.387ZM858.114 14.1467V9.54425H853.512V14.1467H858.114ZM915.874 14.1467H920.477V9.54425H915.874V14.1467ZM915.874 228.087H911.272V232.689H915.874V228.087ZM1016.95 228.087H1021.56V223.484H1016.95V228.087ZM1016.95 279.387V283.989H1021.56V279.387H1016.95ZM858.114 279.387H862.717V14.1467H858.114H853.512V279.387H858.114ZM858.114 14.1467V18.7492H915.874V14.1467V9.54425H858.114V14.1467ZM915.874 14.1467H911.272V228.087H915.874H920.477V14.1467H915.874ZM915.874 228.087V232.689H1016.95V228.087V223.484H915.874V228.087ZM1016.95 228.087H1012.35V279.387H1016.95H1021.56V228.087H1016.95ZM1016.95 279.387V274.784H858.114V279.387V283.989H1016.95V279.387ZM1059.62 279.387H1055.02V283.989H1059.62V279.387ZM1059.62 14.1467V9.54425H1055.02V14.1467H1059.62ZM1117.38 14.1467H1121.98V9.54425H1117.38V14.1467ZM1117.38 228.087H1112.78V232.689H1117.38V228.087ZM1218.46 228.087H1223.06V223.484H1218.46V228.087ZM1218.46 279.387V283.989H1223.06V279.387H1218.46ZM1059.62 279.387H1064.22V14.1467H1059.62H1055.02V279.387H1059.62ZM1059.62 14.1467V18.7492H1117.38V14.1467V9.54425L1059.62 9.54425V14.1467ZM1117.38 14.1467H1112.78V228.087H1117.38H1121.98V14.1467H1117.38ZM1117.38 228.087V232.689H1218.46V228.087V223.484H1117.38V228.087ZM1218.46 228.087H1213.86V279.387H1218.46H1223.06V228.087H1218.46ZM1218.46 279.387V274.784H1059.62V279.387V283.989H1218.46V279.387ZM1261.12 279.387H1256.52V283.989H1261.12V279.387ZM1261.12 14.1467V9.54425H1256.52V14.1467H1261.12ZM1441.62 14.1467H1446.22V9.54425H1441.62V14.1467ZM1441.62 65.4467V70.0492H1446.22V65.4467H1441.62ZM1318.88 65.4467V60.8442H1314.28V65.4467H1318.88ZM1318.88 119.787H1314.28V124.389H1318.88V119.787ZM1424.14 119.787H1428.74V115.184H1424.14V119.787ZM1424.14 170.707V175.309H1428.74V170.707H1424.14ZM1318.88 170.707V166.104H1314.28V170.707H1318.88ZM1318.88 228.087H1314.28V232.689H1318.88V228.087ZM1441.62 228.087H1446.22V223.484H1441.62V228.087ZM1441.62 279.387V283.989H1446.22V279.387H1441.62ZM1261.12 279.387H1265.72V14.1467H1261.12H1256.52V279.387H1261.12ZM1261.12 14.1467V18.7492H1441.62V14.1467V9.54425L1261.12 9.54425V14.1467ZM1441.62 14.1467H1437.02V65.4467H1441.62H1446.22V14.1467H1441.62ZM1441.62 65.4467V60.8442H1318.88V65.4467V70.0492H1441.62V65.4467ZM1318.88 65.4467H1314.28V119.787H1318.88H1323.48V65.4467H1318.88ZM1318.88 119.787V124.389H1424.14V119.787V115.184H1318.88V119.787ZM1424.14 119.787H1419.54V170.707H1424.14H1428.74V119.787H1424.14ZM1424.14 170.707V166.104H1318.88V170.707V175.309H1424.14V170.707ZM1318.88 170.707H1314.28V228.087H1318.88H1323.48V170.707H1318.88ZM1318.88 228.087V232.689H1441.62V228.087V223.484H1318.88V228.087ZM1441.62 228.087H1437.02V279.387H1441.62H1446.22V228.087H1441.62ZM1441.62 279.387V274.784H1261.12V279.387V283.989H1441.62V279.387ZM1602.52 65.4467V60.8442H1597.92V65.4467H1602.52ZM1602.52 279.387V283.989H1607.12V279.387H1602.52ZM1544.76 279.387H1540.16V283.989H1544.76V279.387ZM1544.76 65.4467H1549.36V60.8442H1544.76V65.4467ZM1472.94 65.4467H1468.34V70.0492H1472.94V65.4467ZM1472.94 14.1467V9.54425H1468.34V14.1467H1472.94ZM1674.34 14.1467H1678.94V9.54425H1674.34V14.1467ZM1674.34 65.4467V70.0492H1678.94V65.4467H1674.34ZM1602.52 65.4467H1597.92V279.387H1602.52H1607.12V65.4467H1602.52ZM1602.52 279.387V274.784H1544.76V279.387V283.989H1602.52V279.387ZM1544.76 279.387H1549.36V65.4467H1544.76H1540.16V279.387H1544.76ZM1544.76 65.4467V60.8442L1472.94 60.8442V65.4467V70.0492L1544.76 70.0492V65.4467ZM1472.94 65.4467H1477.54V14.1467H1472.94H1468.34V65.4467H1472.94ZM1472.94 14.1467V18.7492L1674.34 18.7492V14.1467V9.54425L1472.94 9.54425V14.1467ZM1674.34 14.1467H1669.74V65.4467H1674.34H1678.94V14.1467H1674.34ZM1674.34 65.4467V60.8442H1602.52V65.4467V70.0492H1674.34V65.4467Z" fill="#E20004" fill-opacity="0.1" mask="url(#path-3-outside-1_534_346)"/>
<mask id="path-5-outside-2_534_346" maskUnits="userSpaceOnUse" x="-289.13" y="308.387" width="1465" height="275" fill="black">
<rect fill="white" x="-289.13" y="308.387" width="1465" height="275"/>
<path d="M-223.07 578.387L-283.11 313.147H-226.11L-201.03 440.447L-186.97 514.167H-185.83L-169.11 440.447L-139.85 313.147H-76.7703L-47.1303 440.447L-30.7903 514.167H-29.6503L-15.5903 440.447L9.86973 313.147H64.5897L3.02975 578.387H-62.7103L-96.1503 434.747L-109.07 376.607H-110.21L-123.51 434.747L-156.95 578.387H-223.07ZM257.377 578.387L238.377 515.307H149.837L130.837 578.387H72.3174L159.717 313.147H231.157L317.417 578.387H257.377ZM194.677 365.587H192.777L163.517 466.287L224.317 466.287L194.677 365.587ZM354.114 578.387V313.147H411.874V527.087H512.954V578.387H354.114ZM555.618 578.387V313.147H613.378V527.087H714.458V578.387H555.618ZM757.122 578.387V313.147H937.622V364.447H814.882V418.787H920.142V469.707H814.882V527.087H937.622V578.387H757.122ZM1098.52 364.447V578.387H1040.76V364.447L968.942 364.447V313.147L1170.34 313.147V364.447H1098.52Z"/>
</mask>
<path d="M-223.07 578.387L-227.559 579.403L-226.747 582.989H-223.07V578.387ZM-283.11 313.147V308.544H-288.871L-287.599 314.163L-283.11 313.147ZM-226.11 313.147L-221.595 312.257L-222.326 308.544H-226.11V313.147ZM-201.03 440.447L-196.509 439.584L-196.512 439.571L-196.515 439.557L-201.03 440.447ZM-186.97 514.167L-191.491 515.029L-190.778 518.769H-186.97V514.167ZM-185.83 514.167V518.769H-182.155L-181.342 515.185L-185.83 514.167ZM-169.11 440.447L-173.596 439.416L-173.599 439.429L-169.11 440.447ZM-139.85 313.147V308.544H-143.515L-144.336 312.116L-139.85 313.147ZM-76.7703 313.147L-72.2877 312.103L-73.1163 308.544H-76.7703V313.147ZM-47.1302 440.447L-42.6368 439.451L-42.6421 439.427L-42.6477 439.403L-47.1302 440.447ZM-30.7903 514.167L-35.2837 515.163L-34.4843 518.769H-30.7903V514.167ZM-29.6503 514.167V518.769H-25.8426L-25.1293 515.029L-29.6503 514.167ZM-15.5903 440.447L-20.1034 439.544L-20.1074 439.564L-20.1112 439.584L-15.5903 440.447ZM9.86972 313.147V308.544H6.09659L5.35663 312.244L9.86972 313.147ZM64.5898 313.147L69.0731 314.187L70.3828 308.544H64.5898V313.147ZM3.02975 578.387V582.989H6.68637L7.51306 579.427L3.02975 578.387ZM-62.7103 578.387L-67.1929 579.43L-66.3643 582.989H-62.7103V578.387ZM-96.1503 434.747L-100.643 435.745L-100.638 435.768L-100.633 435.79L-96.1503 434.747ZM-109.07 376.607L-104.577 375.608L-105.378 372.004H-109.07V376.607ZM-110.21 376.607V372.004H-113.879L-114.697 375.58L-110.21 376.607ZM-123.51 434.747L-119.028 435.79L-119.026 435.782L-119.024 435.773L-123.51 434.747ZM-156.95 578.387V582.989H-153.296L-152.468 579.43L-156.95 578.387ZM-223.07 578.387L-218.581 577.371L-278.621 312.131L-283.11 313.147L-287.599 314.163L-227.559 579.403L-223.07 578.387ZM-283.11 313.147V317.749H-226.11V313.147V308.544H-283.11V313.147ZM-226.11 313.147L-230.626 314.036L-205.546 441.336L-201.03 440.447L-196.515 439.557L-221.595 312.257L-226.11 313.147ZM-201.03 440.447L-205.551 441.309L-191.491 515.029L-186.97 514.167L-182.449 513.304L-196.509 439.584L-201.03 440.447ZM-186.97 514.167V518.769H-185.83V514.167V509.564H-186.97V514.167ZM-185.83 514.167L-181.342 515.185L-164.622 441.465L-169.11 440.447L-173.599 439.429L-190.319 513.149L-185.83 514.167ZM-169.11 440.447L-164.625 441.478L-135.365 314.178L-139.85 313.147L-144.336 312.116L-173.596 439.416L-169.11 440.447ZM-139.85 313.147V317.749H-76.7703V313.147V308.544H-139.85V313.147ZM-76.7703 313.147L-81.2528 314.19L-51.6128 441.49L-47.1302 440.447L-42.6477 439.403L-72.2877 312.103L-76.7703 313.147ZM-47.1302 440.447L-51.6237 441.443L-35.2837 515.163L-30.7903 514.167L-26.2968 513.171L-42.6368 439.451L-47.1302 440.447ZM-30.7903 514.167V518.769H-29.6503V514.167V509.564H-30.7903V514.167ZM-29.6503 514.167L-25.1293 515.029L-11.0693 441.309L-15.5903 440.447L-20.1112 439.584L-34.1712 513.304L-29.6503 514.167ZM-15.5903 440.447L-11.0771 441.349L14.3828 314.049L9.86972 313.147L5.35663 312.244L-20.1034 439.544L-15.5903 440.447ZM9.86972 313.147V317.749H64.5898V313.147V308.544H9.86972V313.147ZM64.5898 313.147L60.1064 312.106L-1.45355 577.346L3.02975 578.387L7.51306 579.427L69.0731 314.187L64.5898 313.147ZM3.02975 578.387V573.784H-62.7103V578.387V582.989H3.02975V578.387ZM-62.7103 578.387L-58.2276 577.343L-91.6676 433.703L-96.1503 434.747L-100.633 435.79L-67.1929 579.43L-62.7103 578.387ZM-96.1503 434.747L-91.6574 433.748L-104.577 375.608L-109.07 376.607L-113.563 377.605L-100.643 435.745L-96.1503 434.747ZM-109.07 376.607V372.004H-110.21V376.607V381.209H-109.07V376.607ZM-110.21 376.607L-114.697 375.58L-127.997 433.72L-123.51 434.747L-119.024 435.773L-105.724 377.633L-110.21 376.607ZM-123.51 434.747L-127.993 433.703L-161.433 577.343L-156.95 578.387L-152.468 579.43L-119.028 435.79L-123.51 434.747ZM-156.95 578.387V573.784H-223.07V578.387V582.989H-156.95V578.387ZM257.377 578.387L252.97 579.714L253.957 582.989H257.377V578.387ZM238.377 515.307L242.784 513.979L241.798 510.704H238.377V515.307ZM149.837 515.307V510.704H146.417L145.43 513.979L149.837 515.307ZM130.837 578.387V582.989H134.258L135.244 579.714L130.837 578.387ZM72.3174 578.387L67.9461 576.946L65.9549 582.989H72.3174V578.387ZM159.717 313.147V308.544H156.388L155.346 311.706L159.717 313.147ZM231.157 313.147L235.534 311.723L234.5 308.544H231.157V313.147ZM317.417 578.387V582.989H323.754L321.794 576.963L317.417 578.387ZM194.677 365.587L199.093 364.287L198.12 360.984H194.677V365.587ZM192.777 365.587V360.984H189.322L188.358 364.303L192.777 365.587ZM163.517 466.287L159.098 465.003L157.387 470.889H163.517V466.287ZM224.317 466.287V470.889H230.47L228.733 464.987L224.317 466.287ZM257.377 578.387L261.784 577.059L242.784 513.979L238.377 515.307L233.97 516.634L252.97 579.714L257.377 578.387ZM238.377 515.307V510.704L149.837 510.704V515.307V519.909H238.377V515.307ZM149.837 515.307L145.43 513.979L126.43 577.059L130.837 578.387L135.244 579.714L154.244 516.634L149.837 515.307ZM130.837 578.387V573.784H72.3174V578.387V582.989H130.837V578.387ZM72.3174 578.387L76.6887 579.827L164.089 314.587L159.717 313.147L155.346 311.706L67.9461 576.946L72.3174 578.387ZM159.717 313.147V317.749H231.157V313.147V308.544H159.717V313.147ZM231.157 313.147L226.781 314.57L313.041 579.81L317.417 578.387L321.794 576.963L235.534 311.723L231.157 313.147ZM317.417 578.387V573.784H257.377V578.387V582.989H317.417V578.387ZM194.677 365.587V360.984H192.777V365.587V370.189H194.677V365.587ZM192.777 365.587L188.358 364.303L159.098 465.003L163.517 466.287L167.937 467.571L197.197 366.871L192.777 365.587ZM163.517 466.287V470.889L224.317 470.889V466.287V461.684L163.517 461.684V466.287ZM224.317 466.287L228.733 464.987L199.093 364.287L194.677 365.587L190.262 366.886L219.902 467.586L224.317 466.287ZM354.114 578.387H349.512V582.989H354.114V578.387ZM354.114 313.147V308.544H349.512V313.147H354.114ZM411.874 313.147H416.477V308.544H411.874V313.147ZM411.874 527.087H407.272V531.689H411.874V527.087ZM512.954 527.087H517.557V522.484H512.954V527.087ZM512.954 578.387V582.989H517.557V578.387H512.954ZM354.114 578.387H358.717V313.147H354.114H349.512V578.387H354.114ZM354.114 313.147V317.749H411.874V313.147V308.544H354.114V313.147ZM411.874 313.147H407.272V527.087H411.874H416.477V313.147H411.874ZM411.874 527.087V531.689H512.954V527.087V522.484H411.874V527.087ZM512.954 527.087H508.352V578.387H512.954H517.557V527.087H512.954ZM512.954 578.387V573.784H354.114V578.387V582.989H512.954V578.387ZM555.618 578.387H551.016V582.989H555.618V578.387ZM555.618 313.147V308.544H551.016V313.147H555.618ZM613.378 313.147H617.98V308.544H613.378V313.147ZM613.378 527.087H608.776V531.689H613.378V527.087ZM714.458 527.087H719.06V522.484H714.458V527.087ZM714.458 578.387V582.989H719.06V578.387H714.458ZM555.618 578.387H560.22V313.147H555.618H551.016V578.387H555.618ZM555.618 313.147V317.749H613.378V313.147V308.544H555.618V313.147ZM613.378 313.147H608.776V527.087H613.378H617.98V313.147H613.378ZM613.378 527.087V531.689H714.458V527.087V522.484H613.378V527.087ZM714.458 527.087H709.855V578.387H714.458H719.06V527.087H714.458ZM714.458 578.387V573.784H555.618V578.387V582.989H714.458V578.387ZM757.122 578.387H752.519V582.989H757.122V578.387ZM757.122 313.147V308.544H752.519V313.147H757.122ZM937.622 313.147H942.224V308.544H937.622V313.147ZM937.622 364.447V369.049H942.224V364.447H937.622ZM814.882 364.447V359.844H810.279V364.447H814.882ZM814.882 418.787H810.279V423.389H814.882V418.787ZM920.142 418.787H924.744V414.184H920.142V418.787ZM920.142 469.707V474.309H924.744V469.707H920.142ZM814.882 469.707V465.104H810.279V469.707H814.882ZM814.882 527.087H810.279V531.689H814.882V527.087ZM937.622 527.087H942.224V522.484H937.622V527.087ZM937.622 578.387V582.989H942.224V578.387H937.622ZM757.122 578.387H761.724V313.147H757.122H752.519V578.387H757.122ZM757.122 313.147V317.749H937.622V313.147V308.544H757.122V313.147ZM937.622 313.147H933.019V364.447H937.622H942.224V313.147H937.622ZM937.622 364.447V359.844H814.882V364.447V369.049H937.622V364.447ZM814.882 364.447H810.279V418.787H814.882H819.484V364.447H814.882ZM814.882 418.787V423.389H920.142V418.787V414.184H814.882V418.787ZM920.142 418.787H915.539V469.707H920.142H924.744V418.787H920.142ZM920.142 469.707V465.104H814.882V469.707V474.309H920.142V469.707ZM814.882 469.707H810.279V527.087H814.882H819.484V469.707H814.882ZM814.882 527.087V531.689H937.622V527.087V522.484H814.882V527.087ZM937.622 527.087H933.019V578.387H937.622H942.224V527.087H937.622ZM937.622 578.387V573.784H757.122V578.387V582.989H937.622V578.387ZM1098.52 364.447V359.844H1093.92V364.447H1098.52ZM1098.52 578.387V582.989H1103.12V578.387H1098.52ZM1040.76 578.387H1036.16V582.989H1040.76V578.387ZM1040.76 364.447H1045.36V359.844H1040.76V364.447ZM968.942 364.447H964.34V369.049H968.942V364.447ZM968.942 313.147V308.544H964.34V313.147H968.942ZM1170.34 313.147H1174.94V308.544H1170.34V313.147ZM1170.34 364.447V369.049H1174.94V364.447H1170.34ZM1098.52 364.447H1093.92V578.387H1098.52H1103.12V364.447H1098.52ZM1098.52 578.387V573.784H1040.76V578.387V582.989H1098.52V578.387ZM1040.76 578.387H1045.36V364.447H1040.76H1036.16V578.387H1040.76ZM1040.76 364.447V359.844L968.942 359.844V364.447V369.049L1040.76 369.049V364.447ZM968.942 364.447H973.545V313.147H968.942H964.34V364.447H968.942ZM968.942 313.147V317.749L1170.34 317.749V313.147V308.544L968.942 308.544V313.147ZM1170.34 313.147H1165.74V364.447H1170.34H1174.94V313.147H1170.34ZM1170.34 364.447V359.844H1098.52V364.447V369.049H1170.34V364.447Z" fill="#E20004" fill-opacity="0.1" mask="url(#path-5-outside-2_534_346)"/>
<rect x="88.0857" y="269.122" width="73.3295" height="23.4432" rx="11.7216" fill="#E20004"/>
<path d="M97.4205 285.844V276.345H101.503C102.383 276.345 103.063 276.604 103.544 277.121C104.025 277.638 104.265 278.332 104.265 279.203C104.265 280.074 104.025 280.768 103.544 281.285C103.063 281.802 102.383 282.061 101.503 282.061H98.9582V285.844H97.4205ZM98.9582 280.714H101.408C101.798 280.714 102.102 280.614 102.319 280.414C102.537 280.206 102.646 279.911 102.646 279.53V278.876C102.646 278.495 102.537 278.205 102.319 278.006C102.102 277.797 101.798 277.693 101.408 277.693H98.9582V280.714ZM105.71 285.844V278.768H107.194V280.128H107.262C107.361 279.766 107.57 279.448 107.888 279.176C108.205 278.904 108.645 278.768 109.208 278.768H109.602V280.196H109.017C108.427 280.196 107.974 280.292 107.656 280.482C107.348 280.673 107.194 280.954 107.194 281.326V285.844H105.71ZM113.629 286.007C113.121 286.007 112.668 285.921 112.268 285.748C111.869 285.576 111.529 285.331 111.248 285.014C110.967 284.687 110.749 284.297 110.595 283.843C110.449 283.381 110.377 282.868 110.377 282.306C110.377 281.743 110.449 281.235 110.595 280.782C110.749 280.319 110.967 279.929 111.248 279.611C111.529 279.285 111.869 279.035 112.268 278.863C112.668 278.691 113.121 278.604 113.629 278.604C114.146 278.604 114.6 278.695 114.99 278.876C115.389 279.058 115.72 279.312 115.983 279.639C116.246 279.956 116.442 280.328 116.569 280.754C116.705 281.181 116.773 281.639 116.773 282.129V282.687H111.915V282.918C111.915 283.462 112.073 283.911 112.391 284.265C112.717 284.61 113.18 284.782 113.779 284.782C114.214 284.782 114.582 284.687 114.881 284.497C115.18 284.306 115.435 284.048 115.643 283.721L116.514 284.578C116.251 285.014 115.87 285.363 115.371 285.626C114.872 285.88 114.291 286.007 113.629 286.007ZM113.629 279.761C113.375 279.761 113.139 279.806 112.922 279.897C112.713 279.988 112.531 280.115 112.377 280.278C112.232 280.441 112.119 280.636 112.037 280.863C111.955 281.09 111.915 281.34 111.915 281.612V281.707H115.208V281.571C115.208 281.027 115.067 280.591 114.786 280.264C114.505 279.929 114.119 279.761 113.629 279.761ZM118.415 285.844V278.768H119.898V279.938H119.966C120.039 279.756 120.125 279.584 120.224 279.421C120.333 279.258 120.46 279.117 120.606 278.999C120.76 278.872 120.937 278.777 121.136 278.713C121.345 278.641 121.585 278.604 121.857 278.604C122.338 278.604 122.765 278.722 123.137 278.958C123.509 279.194 123.781 279.557 123.953 280.047H123.994C124.121 279.648 124.366 279.307 124.729 279.026C125.092 278.745 125.559 278.604 126.13 278.604C126.838 278.604 127.387 278.845 127.777 279.326C128.167 279.797 128.362 280.473 128.362 281.353V285.844H126.879V281.53C126.879 280.986 126.774 280.577 126.566 280.305C126.357 280.024 126.026 279.883 125.572 279.883C125.382 279.883 125.2 279.911 125.028 279.965C124.856 280.01 124.701 280.083 124.565 280.183C124.438 280.283 124.334 280.41 124.252 280.564C124.171 280.718 124.13 280.895 124.13 281.095V285.844H122.647V281.53C122.647 280.432 122.216 279.883 121.354 279.883C121.172 279.883 120.991 279.911 120.81 279.965C120.637 280.01 120.483 280.083 120.347 280.183C120.211 280.283 120.102 280.41 120.02 280.564C119.939 280.718 119.898 280.895 119.898 281.095V285.844H118.415ZM131.163 277.502C130.855 277.502 130.628 277.429 130.483 277.284C130.347 277.139 130.279 276.953 130.279 276.726V276.495C130.279 276.268 130.347 276.082 130.483 275.937C130.628 275.792 130.855 275.719 131.163 275.719C131.471 275.719 131.694 275.792 131.83 275.937C131.966 276.082 132.034 276.268 132.034 276.495V276.726C132.034 276.953 131.966 277.139 131.83 277.284C131.694 277.429 131.471 277.502 131.163 277.502ZM130.415 278.768H131.898V285.844H130.415V278.768ZM138.302 284.673H138.248C138.184 284.846 138.098 285.014 137.989 285.177C137.89 285.34 137.758 285.485 137.595 285.612C137.441 285.73 137.25 285.826 137.023 285.898C136.806 285.971 136.552 286.007 136.261 286.007C135.526 286.007 134.955 285.771 134.547 285.299C134.147 284.828 133.948 284.152 133.948 283.272V278.768H135.431V283.081C135.431 284.179 135.885 284.728 136.792 284.728C136.982 284.728 137.168 284.705 137.35 284.66C137.531 284.605 137.69 284.528 137.826 284.429C137.971 284.329 138.085 284.202 138.166 284.048C138.257 283.893 138.302 283.712 138.302 283.503V278.768H139.786V285.844H138.302V284.673ZM141.91 285.844V278.768H143.393V279.938H143.461C143.533 279.756 143.62 279.584 143.719 279.421C143.828 279.258 143.955 279.117 144.1 278.999C144.255 278.872 144.432 278.777 144.631 278.713C144.84 278.641 145.08 278.604 145.352 278.604C145.833 278.604 146.26 278.722 146.632 278.958C147.004 279.194 147.276 279.557 147.448 280.047H147.489C147.616 279.648 147.861 279.307 148.224 279.026C148.587 278.745 149.054 278.604 149.625 278.604C150.333 278.604 150.882 278.845 151.272 279.326C151.662 279.797 151.857 280.473 151.857 281.353V285.844H150.374V281.53C150.374 280.986 150.269 280.577 150.061 280.305C149.852 280.024 149.521 279.883 149.067 279.883C148.877 279.883 148.695 279.911 148.523 279.965C148.351 280.01 148.196 280.083 148.06 280.183C147.933 280.283 147.829 280.41 147.747 280.564C147.666 280.718 147.625 280.895 147.625 281.095V285.844H146.142V281.53C146.142 280.432 145.711 279.883 144.849 279.883C144.667 279.883 144.486 279.911 144.305 279.965C144.132 280.01 143.978 280.083 143.842 280.183C143.706 280.283 143.597 280.41 143.515 280.564C143.434 280.718 143.393 280.895 143.393 281.095V285.844H141.91Z" fill="white"/>
<path d="M101.639 309.026H93.3111L92.7668 316.265H92.9573C93.4109 315.63 93.919 315.122 94.4814 314.741C95.062 314.36 95.8513 314.17 96.8492 314.17C97.6657 314.17 98.4187 314.306 99.1081 314.578C99.7976 314.85 100.396 315.24 100.904 315.748C101.412 316.238 101.803 316.846 102.075 317.572C102.365 318.298 102.51 319.123 102.51 320.049C102.51 320.974 102.365 321.827 102.075 322.607C101.784 323.369 101.358 324.031 100.796 324.594C100.251 325.138 99.5799 325.564 98.7815 325.873C98.0014 326.181 97.1123 326.335 96.1144 326.335C95.3161 326.335 94.6084 326.245 93.9915 326.063C93.3928 325.882 92.8575 325.637 92.3858 325.328C91.9141 325.02 91.4968 324.675 91.1339 324.294C90.7891 323.913 90.4716 323.514 90.1813 323.097L91.8959 321.79C92.1318 322.171 92.3767 322.516 92.6307 322.825C92.9029 323.133 93.1932 323.396 93.5017 323.614C93.8282 323.832 94.2002 324.004 94.6175 324.131C95.0348 324.24 95.5338 324.294 96.1144 324.294C97.4207 324.294 98.4096 323.949 99.0809 323.26C99.7522 322.571 100.088 321.6 100.088 320.348V320.076C100.088 318.824 99.7522 317.853 99.0809 317.164C98.4096 316.474 97.4207 316.129 96.1144 316.129C95.2435 316.129 94.554 316.293 94.046 316.619C93.5561 316.928 93.1116 317.3 92.7124 317.735L90.7801 317.463L91.4605 307.012H101.639V309.026ZM111.508 315.068C112.796 315.068 113.758 314.778 114.393 314.197C115.046 313.598 115.373 312.836 115.373 311.911V311.72C115.373 310.723 115.055 309.979 114.42 309.489C113.803 308.981 112.987 308.727 111.971 308.727C110.991 308.727 110.193 308.944 109.576 309.38C108.959 309.797 108.451 310.369 108.052 311.094L106.364 309.788C106.6 309.407 106.881 309.035 107.208 308.672C107.553 308.291 107.952 307.956 108.405 307.665C108.859 307.375 109.385 307.139 109.984 306.958C110.583 306.776 111.263 306.685 112.025 306.685C112.823 306.685 113.576 306.794 114.284 307.012C114.992 307.212 115.599 307.52 116.107 307.937C116.634 308.337 117.042 308.836 117.332 309.434C117.641 310.033 117.795 310.713 117.795 311.475C117.795 312.092 117.695 312.646 117.495 313.136C117.314 313.626 117.06 314.052 116.733 314.415C116.407 314.778 116.017 315.086 115.563 315.34C115.128 315.594 114.656 315.785 114.148 315.912V316.021C114.656 316.129 115.146 316.311 115.618 316.565C116.107 316.801 116.534 317.118 116.897 317.517C117.278 317.898 117.577 318.37 117.795 318.933C118.031 319.477 118.149 320.103 118.149 320.811C118.149 321.627 117.994 322.38 117.686 323.069C117.378 323.741 116.942 324.321 116.38 324.811C115.817 325.283 115.137 325.655 114.338 325.927C113.54 326.199 112.66 326.335 111.698 326.335C110.882 326.335 110.156 326.245 109.521 326.063C108.886 325.882 108.324 325.637 107.834 325.328C107.344 325.02 106.908 324.675 106.527 324.294C106.165 323.913 105.838 323.514 105.548 323.097L107.262 321.79C107.498 322.171 107.752 322.516 108.024 322.825C108.315 323.133 108.632 323.396 108.977 323.614C109.322 323.832 109.712 324.004 110.147 324.131C110.583 324.24 111.091 324.294 111.671 324.294C113.014 324.294 114.03 323.995 114.719 323.396C115.409 322.779 115.754 321.908 115.754 320.783V320.566C115.754 319.441 115.409 318.579 114.719 317.98C114.03 317.363 113.014 317.055 111.671 317.055H109.44V315.068H111.508ZM130.929 326.009V322.28H121.758V320.266L129.705 307.012H133.107V320.375H135.856V322.28H133.107V326.009H130.929ZM123.908 320.375H130.929V308.781H130.793L123.908 320.375ZM151.549 326.009H139.084L139.084 323.668L145.289 317.953C146.178 317.136 146.922 316.275 147.521 315.367C148.119 314.442 148.419 313.517 148.419 312.591V312.265C148.419 311.212 148.128 310.36 147.548 309.706C146.967 309.053 146.087 308.727 144.908 308.727C144.327 308.727 143.819 308.808 143.384 308.972C142.948 309.135 142.567 309.362 142.241 309.652C141.932 309.942 141.669 310.287 141.451 310.686C141.252 311.067 141.089 311.485 140.962 311.938L138.92 311.149C139.102 310.586 139.347 310.042 139.655 309.516C139.982 308.972 140.381 308.491 140.853 308.074C141.343 307.656 141.923 307.321 142.594 307.067C143.284 306.813 144.091 306.685 145.017 306.685C145.942 306.685 146.768 306.822 147.493 307.094C148.219 307.366 148.827 307.747 149.317 308.237C149.807 308.727 150.179 309.307 150.433 309.979C150.705 310.65 150.841 311.394 150.841 312.21C150.841 312.954 150.732 313.644 150.514 314.279C150.315 314.914 150.033 315.522 149.671 316.102C149.308 316.665 148.863 317.218 148.337 317.762C147.829 318.307 147.276 318.851 146.677 319.395L141.56 323.995H151.549V326.009ZM167.985 326.335C167.005 326.335 166.116 326.172 165.318 325.845C164.538 325.501 163.867 325.02 163.304 324.403C162.76 323.768 162.342 322.997 162.052 322.09C161.762 321.183 161.617 320.166 161.617 319.042C161.617 317.626 161.825 316.302 162.243 315.068C162.66 313.816 163.195 312.682 163.848 311.666C164.52 310.632 165.255 309.725 166.053 308.944C166.851 308.146 167.631 307.502 168.393 307.012H171.333C170.317 307.756 169.41 308.482 168.611 309.189C167.813 309.897 167.114 310.641 166.516 311.421C165.917 312.183 165.409 313.009 164.991 313.898C164.574 314.769 164.238 315.757 163.984 316.864L164.121 316.919C164.574 316.138 165.155 315.494 165.862 314.986C166.588 314.46 167.532 314.197 168.693 314.197C169.509 314.197 170.262 314.333 170.952 314.605C171.641 314.877 172.231 315.268 172.721 315.776C173.211 316.284 173.592 316.901 173.864 317.626C174.154 318.352 174.299 319.159 174.299 320.049C174.299 320.974 174.145 321.827 173.837 322.607C173.546 323.369 173.12 324.031 172.557 324.594C172.013 325.138 171.351 325.564 170.571 325.873C169.791 326.181 168.929 326.335 167.985 326.335ZM167.958 324.349C169.21 324.349 170.181 324.004 170.87 323.314C171.578 322.625 171.932 321.636 171.932 320.348V320.13C171.932 318.842 171.578 317.853 170.87 317.164C170.181 316.474 169.21 316.129 167.958 316.129C166.706 316.129 165.726 316.474 165.019 317.164C164.329 317.853 163.984 318.842 163.984 320.13V320.348C163.984 321.636 164.329 322.625 165.019 323.314C165.726 324.004 166.706 324.349 167.958 324.349ZM183.215 315.068C184.504 315.068 185.465 314.778 186.1 314.197C186.754 313.598 187.08 312.836 187.08 311.911V311.72C187.08 310.723 186.763 309.979 186.128 309.489C185.511 308.981 184.694 308.727 183.678 308.727C182.698 308.727 181.9 308.944 181.283 309.38C180.666 309.797 180.158 310.369 179.759 311.094L178.072 309.788C178.308 309.407 178.589 309.035 178.915 308.672C179.26 308.291 179.659 307.956 180.113 307.665C180.566 307.375 181.093 307.139 181.691 306.958C182.29 306.776 182.971 306.685 183.733 306.685C184.531 306.685 185.284 306.794 185.992 307.012C186.699 307.212 187.307 307.52 187.815 307.937C188.341 308.337 188.749 308.836 189.04 309.434C189.348 310.033 189.502 310.713 189.502 311.475C189.502 312.092 189.403 312.646 189.203 313.136C189.022 313.626 188.768 314.052 188.441 314.415C188.114 314.778 187.724 315.086 187.271 315.34C186.835 315.594 186.363 315.785 185.855 315.912V316.021C186.363 316.129 186.853 316.311 187.325 316.565C187.815 316.801 188.241 317.118 188.604 317.517C188.985 317.898 189.285 318.37 189.502 318.933C189.738 319.477 189.856 320.103 189.856 320.811C189.856 321.627 189.702 322.38 189.393 323.069C189.085 323.741 188.65 324.321 188.087 324.811C187.525 325.283 186.844 325.655 186.046 325.927C185.248 326.199 184.368 326.335 183.406 326.335C182.59 326.335 181.864 326.245 181.229 326.063C180.594 325.882 180.031 325.637 179.541 325.328C179.051 325.02 178.616 324.675 178.235 324.294C177.872 323.913 177.546 323.514 177.255 323.097L178.97 321.79C179.206 322.171 179.46 322.516 179.732 322.825C180.022 323.133 180.34 323.396 180.684 323.614C181.029 323.832 181.419 324.004 181.855 324.131C182.29 324.24 182.798 324.294 183.379 324.294C184.721 324.294 185.737 323.995 186.427 323.396C187.116 322.779 187.461 321.908 187.461 320.783V320.566C187.461 319.441 187.116 318.579 186.427 317.98C185.737 317.363 184.721 317.055 183.379 317.055H181.147V315.068H183.215ZM197.194 326.009L204.46 308.972H196.35V312.51H194.309V307.012H206.774V309.026L199.643 326.009H197.194ZM215.853 315.068C217.142 315.068 218.103 314.778 218.738 314.197C219.391 313.598 219.718 312.836 219.718 311.911V311.72C219.718 310.723 219.4 309.979 218.765 309.489C218.149 308.981 217.332 308.727 216.316 308.727C215.336 308.727 214.538 308.944 213.921 309.38C213.304 309.797 212.796 310.369 212.397 311.094L210.709 309.788C210.945 309.407 211.227 309.035 211.553 308.672C211.898 308.291 212.297 307.956 212.751 307.665C213.204 307.375 213.73 307.139 214.329 306.958C214.928 306.776 215.608 306.685 216.37 306.685C217.169 306.685 217.922 306.794 218.629 307.012C219.337 307.212 219.945 307.52 220.453 307.937C220.979 308.337 221.387 308.836 221.678 309.434C221.986 310.033 222.14 310.713 222.14 311.475C222.14 312.092 222.04 312.646 221.841 313.136C221.659 313.626 221.405 314.052 221.079 314.415C220.752 314.778 220.362 315.086 219.908 315.34C219.473 315.594 219.001 315.785 218.493 315.912V316.021C219.001 316.129 219.491 316.311 219.963 316.565C220.453 316.801 220.879 317.118 221.242 317.517C221.623 317.898 221.922 318.37 222.14 318.933C222.376 319.477 222.494 320.103 222.494 320.811C222.494 321.627 222.34 322.38 222.031 323.069C221.723 323.741 221.287 324.321 220.725 324.811C220.162 325.283 219.482 325.655 218.684 325.927C217.885 326.199 217.005 326.335 216.044 326.335C215.227 326.335 214.502 326.245 213.867 326.063C213.232 325.882 212.669 325.637 212.179 325.328C211.689 325.02 211.254 324.675 210.873 324.294C210.51 323.913 210.183 323.514 209.893 323.097L211.608 321.79C211.843 322.171 212.098 322.516 212.37 322.825C212.66 323.133 212.977 323.396 213.322 323.614C213.667 323.832 214.057 324.004 214.493 324.131C214.928 324.24 215.436 324.294 216.017 324.294C217.359 324.294 218.375 323.995 219.065 323.396C219.754 322.779 220.099 321.908 220.099 320.783V320.566C220.099 319.441 219.754 318.579 219.065 317.98C218.375 317.363 217.359 317.055 216.017 317.055H213.785V315.068H215.853ZM236.264 326.009L243.53 308.972L235.42 308.972V312.51H233.379V307.012L245.844 307.012V309.026L238.713 326.009H236.264ZM254.923 315.068C256.211 315.068 257.173 314.778 257.808 314.197C258.461 313.598 258.788 312.836 258.788 311.911V311.72C258.788 310.723 258.47 309.979 257.835 309.489C257.218 308.981 256.402 308.727 255.386 308.727C254.406 308.727 253.608 308.944 252.991 309.38C252.374 309.797 251.866 310.369 251.467 311.094L249.779 309.788C250.015 309.407 250.296 309.035 250.623 308.672C250.968 308.291 251.367 307.956 251.82 307.665C252.274 307.375 252.8 307.139 253.399 306.958C253.998 306.776 254.678 306.685 255.44 306.685C256.238 306.685 256.991 306.794 257.699 307.012C258.407 307.212 259.014 307.52 259.522 307.937C260.049 308.337 260.457 308.836 260.747 309.434C261.056 310.033 261.21 310.713 261.21 311.475C261.21 312.092 261.11 312.646 260.911 313.136C260.729 313.626 260.475 314.052 260.148 314.415C259.822 314.778 259.432 315.086 258.978 315.34C258.543 315.594 258.071 315.785 257.563 315.912V316.021C258.071 316.129 258.561 316.311 259.033 316.565C259.522 316.801 259.949 317.118 260.312 317.517C260.693 317.898 260.992 318.37 261.21 318.933C261.446 319.477 261.564 320.103 261.564 320.811C261.564 321.627 261.409 322.38 261.101 323.069C260.793 323.741 260.357 324.321 259.795 324.811C259.232 325.283 258.552 325.655 257.753 325.927C256.955 326.199 256.075 326.335 255.114 326.335C254.297 326.335 253.571 326.245 252.936 326.063C252.301 325.882 251.739 325.637 251.249 325.328C250.759 325.02 250.324 324.675 249.942 324.294C249.58 323.913 249.253 323.514 248.963 323.097L250.677 321.79C250.913 322.171 251.167 322.516 251.439 322.825C251.73 323.133 252.047 323.396 252.392 323.614C252.737 323.832 253.127 324.004 253.562 324.131C253.998 324.24 254.506 324.294 255.086 324.294C256.429 324.294 257.445 323.995 258.134 323.396C258.824 322.779 259.169 321.908 259.169 320.783V320.566C259.169 319.441 258.824 318.579 258.134 317.98C257.445 317.363 256.429 317.055 255.086 317.055H252.855V315.068H254.923ZM272.303 326.335C271.215 326.335 270.262 326.199 269.446 325.927C268.629 325.637 267.94 325.247 267.377 324.757C266.833 324.267 266.416 323.686 266.125 323.015C265.853 322.344 265.717 321.618 265.717 320.838C265.717 319.531 266.071 318.497 266.779 317.735C267.486 316.973 268.411 316.438 269.555 316.129V315.912C268.557 315.567 267.758 315.014 267.16 314.252C266.579 313.471 266.289 312.537 266.289 311.448C266.289 309.997 266.815 308.845 267.867 307.992C268.919 307.121 270.398 306.685 272.303 306.685C274.208 306.685 275.687 307.121 276.74 307.992C277.792 308.845 278.318 309.997 278.318 311.448C278.318 312.537 278.019 313.471 277.42 314.252C276.839 315.014 276.05 315.567 275.052 315.912V316.129C276.195 316.438 277.121 316.973 277.828 317.735C278.536 318.497 278.89 319.531 278.89 320.838C278.89 321.618 278.744 322.344 278.454 323.015C278.182 323.686 277.765 324.267 277.202 324.757C276.658 325.247 275.977 325.637 275.161 325.927C274.345 326.199 273.392 326.335 272.303 326.335ZM272.303 324.349C273.628 324.349 274.653 324.058 275.379 323.478C276.104 322.879 276.467 322.035 276.467 320.947V320.375C276.467 319.286 276.104 318.452 275.379 317.871C274.653 317.272 273.628 316.973 272.303 316.973C270.979 316.973 269.954 317.272 269.228 317.871C268.502 318.452 268.139 319.286 268.139 320.375V320.947C268.139 322.035 268.502 322.879 269.228 323.478C269.954 324.058 270.979 324.349 272.303 324.349ZM272.303 315.068C273.501 315.068 274.408 314.814 275.025 314.306C275.642 313.798 275.95 313.054 275.95 312.074V311.666C275.95 310.686 275.642 309.942 275.025 309.434C274.408 308.926 273.501 308.672 272.303 308.672C271.106 308.672 270.199 308.926 269.582 309.434C268.965 309.942 268.656 310.686 268.656 311.666V312.074C268.656 313.054 268.965 313.798 269.582 314.306C270.199 314.814 271.106 315.068 272.303 315.068ZM294.964 326.009H282.499V323.668L288.704 317.953C289.593 317.136 290.337 316.275 290.936 315.367C291.534 314.442 291.834 313.517 291.834 312.591V312.265C291.834 311.212 291.543 310.36 290.963 309.706C290.382 309.053 289.502 308.727 288.323 308.727C287.742 308.727 287.234 308.808 286.799 308.972C286.363 309.135 285.982 309.362 285.656 309.652C285.347 309.942 285.084 310.287 284.866 310.686C284.667 311.067 284.504 311.485 284.377 311.938L282.335 311.149C282.517 310.586 282.762 310.042 283.07 309.516C283.397 308.972 283.796 308.491 284.268 308.074C284.758 307.656 285.338 307.321 286.01 307.067C286.699 306.813 287.506 306.685 288.432 306.685C289.357 306.685 290.183 306.822 290.908 307.094C291.634 307.366 292.242 307.747 292.732 308.237C293.222 308.727 293.594 309.307 293.848 309.979C294.12 310.65 294.256 311.394 294.256 312.21C294.256 312.954 294.147 313.644 293.929 314.279C293.73 314.914 293.449 315.522 293.086 316.102C292.723 316.665 292.278 317.218 291.752 317.762C291.244 318.307 290.691 318.851 290.092 319.395L284.975 323.995H294.964V326.009ZM307.971 326.009L315.238 308.972H307.127V312.51H305.086V307.012H317.551V309.026L310.42 326.009H307.971ZM334.033 326.009H321.568V323.668L327.774 317.953C328.663 317.136 329.407 316.275 330.005 315.367C330.604 314.442 330.903 313.517 330.903 312.591V312.265C330.903 311.212 330.613 310.36 330.033 309.706C329.452 309.053 328.572 308.727 327.393 308.727C326.812 308.727 326.304 308.808 325.868 308.972C325.433 309.135 325.052 309.362 324.725 309.652C324.417 309.942 324.154 310.287 323.936 310.686C323.737 311.067 323.573 311.485 323.446 311.938L321.405 311.149C321.587 310.586 321.831 310.042 322.14 309.516C322.466 308.972 322.866 308.491 323.337 308.074C323.827 307.656 324.408 307.321 325.079 307.067C325.769 306.813 326.576 306.685 327.501 306.685C328.427 306.685 329.252 306.822 329.978 307.094C330.704 307.366 331.312 307.747 331.802 308.237C332.291 308.727 332.663 309.307 332.917 309.979C333.19 310.65 333.326 311.394 333.326 312.21C333.326 312.954 333.217 313.644 332.999 314.279C332.799 314.914 332.518 315.522 332.155 316.102C331.792 316.665 331.348 317.218 330.822 317.762C330.314 318.307 329.76 318.851 329.162 319.395L324.045 323.995H334.033V326.009ZM344.011 326.335C342.922 326.335 341.97 326.199 341.153 325.927C340.337 325.637 339.647 325.247 339.085 324.757C338.54 324.267 338.123 323.686 337.833 323.015C337.561 322.344 337.425 321.618 337.425 320.838C337.425 319.531 337.778 318.497 338.486 317.735C339.194 316.973 340.119 316.438 341.262 316.129V315.912C340.264 315.567 339.466 315.014 338.867 314.252C338.286 313.471 337.996 312.537 337.996 311.448C337.996 309.997 338.522 308.845 339.575 307.992C340.627 307.121 342.106 306.685 344.011 306.685C345.916 306.685 347.395 307.121 348.447 307.992C349.499 308.845 350.026 309.997 350.026 311.448C350.026 312.537 349.726 313.471 349.127 314.252C348.547 315.014 347.758 315.567 346.76 315.912V316.129C347.903 316.438 348.828 316.973 349.536 317.735C350.243 318.497 350.597 319.531 350.597 320.838C350.597 321.618 350.452 322.344 350.162 323.015C349.889 323.686 349.472 324.267 348.91 324.757C348.365 325.247 347.685 325.637 346.869 325.927C346.052 326.199 345.099 326.335 344.011 326.335ZM344.011 324.349C345.335 324.349 346.36 324.058 347.086 323.478C347.812 322.879 348.175 322.035 348.175 320.947V320.375C348.175 319.286 347.812 318.452 347.086 317.871C346.36 317.272 345.335 316.973 344.011 316.973C342.686 316.973 341.661 317.272 340.935 317.871C340.21 318.452 339.847 319.286 339.847 320.375V320.947C339.847 322.035 340.21 322.879 340.935 323.478C341.661 324.058 342.686 324.349 344.011 324.349ZM344.011 315.068C345.208 315.068 346.116 314.814 346.732 314.306C347.349 313.798 347.658 313.054 347.658 312.074V311.666C347.658 310.686 347.349 309.942 346.732 309.434C346.116 308.926 345.208 308.672 344.011 308.672C342.813 308.672 341.906 308.926 341.289 309.434C340.672 309.942 340.364 310.686 340.364 311.666V312.074C340.364 313.054 340.672 313.798 341.289 314.306C341.906 314.814 342.813 315.068 344.011 315.068ZM356.928 326.009L364.194 308.972H356.084V312.51H354.043V307.012H366.508V309.026L359.377 326.009H356.928Z" fill="white"/>
<path d="M101.345 349.543H101.258L100.082 351.96L96.969 357.708L93.8555 351.96L92.6797 349.543H92.5926L92.5926 360.451H89.8711L89.8711 345.254H93.1152L97.0125 352.678H97.0996L100.953 345.254H104.067L104.067 360.451H101.345L101.345 349.543ZM113.612 360.712C112.611 360.712 111.703 360.546 110.891 360.212C110.078 359.878 109.381 359.377 108.8 358.709C108.234 358.042 107.792 357.222 107.472 356.249C107.153 355.277 106.993 354.144 106.993 352.852C106.993 351.575 107.153 350.45 107.472 349.478C107.792 348.491 108.234 347.663 108.8 346.996C109.381 346.328 110.078 345.827 110.891 345.493C111.703 345.159 112.611 344.993 113.612 344.993C114.614 344.993 115.521 345.159 116.334 345.493C117.147 345.827 117.843 346.328 118.424 346.996C119.005 347.663 119.447 348.491 119.752 349.478C120.071 350.45 120.231 351.575 120.231 352.852C120.231 354.144 120.071 355.277 119.752 356.249C119.447 357.222 119.005 358.042 118.424 358.709C117.843 359.377 117.147 359.878 116.334 360.212C115.521 360.546 114.614 360.712 113.612 360.712ZM113.612 358.165C114.701 358.165 115.564 357.802 116.203 357.076C116.856 356.351 117.183 355.335 117.183 354.028V351.677C117.183 350.37 116.856 349.354 116.203 348.629C115.564 347.903 114.701 347.54 113.612 347.54C112.524 347.54 111.653 347.903 110.999 348.629C110.361 349.354 110.041 350.37 110.041 351.677V354.028C110.041 355.335 110.361 356.351 110.999 357.076C111.653 357.802 112.524 358.165 113.612 358.165ZM132.357 354.028H126.021V360.451H123.147V345.254H126.021V351.481H132.357V345.254H135.231V360.451H132.357V354.028ZM148.202 360.451L146.982 356.576H141.583L140.385 360.451H137.468L142.563 345.254H146.133L151.185 360.451H148.202ZM144.326 347.867H144.217L142.28 354.115H146.286L144.326 347.867ZM164.899 349.543H164.812L163.636 351.96L160.522 357.708L157.409 351.96L156.233 349.543H156.146V360.451H153.424L153.424 345.254H156.669L160.566 352.678H160.653L164.507 345.254H167.62V360.451H164.899V349.543ZM182.674 349.543H182.587L181.411 351.96L178.298 357.708L175.184 351.96L174.009 349.543H173.921V360.451H171.2L171.2 345.254H174.444L178.341 352.678H178.428L182.282 345.254H185.396V360.451H182.674V349.543ZM198.381 360.451L197.162 356.576H191.762L190.565 360.451H187.647L192.742 345.254H196.313L201.364 360.451H198.381ZM194.505 347.867H194.397L192.459 354.115H196.465L194.505 347.867ZM203.604 345.254H209.134C210.121 345.254 211.014 345.413 211.812 345.733C212.625 346.052 213.314 346.531 213.88 347.17C214.461 347.794 214.904 348.585 215.209 349.543C215.528 350.487 215.688 351.59 215.688 352.852C215.688 354.115 215.528 355.226 215.209 356.184C214.904 357.127 214.461 357.918 213.88 358.557C213.314 359.181 212.625 359.653 211.812 359.972C211.014 360.292 210.121 360.451 209.134 360.451H203.604L203.604 345.254ZM209.134 357.904C210.208 357.904 211.057 357.592 211.681 356.968C212.32 356.329 212.639 355.356 212.639 354.05V351.655C212.639 350.349 212.32 349.383 211.681 348.759C211.057 348.121 210.208 347.801 209.134 347.801H206.478V357.904H209.134ZM228.659 353.571L226.635 355.966V360.451H223.761V345.254H226.635V352.744H226.743L228.899 349.891L232.666 345.254H235.975L230.684 351.59L236.41 360.451H232.992L228.659 353.571ZM247.727 354.028L241.391 354.028V360.451H238.517V345.254L241.391 345.254V351.481H247.727V345.254H250.601V360.451H247.727V354.028ZM263.572 360.451L262.352 356.576H256.953L255.755 360.451H252.838L257.932 345.254H261.503L266.554 360.451H263.572ZM259.696 347.867H259.587L257.649 354.115H261.656L259.696 347.867ZM268.794 360.451V345.254H271.668V357.904H277.656V360.451H268.794ZM279.517 360.451V358.143H281.52V347.562H279.517V345.254H286.419V347.562H284.394V358.143H286.419V360.451H279.517ZM289.355 345.254H294.885C295.872 345.254 296.765 345.413 297.563 345.733C298.376 346.052 299.066 346.531 299.632 347.17C300.212 347.794 300.655 348.585 300.96 349.543C301.279 350.487 301.439 351.59 301.439 352.852C301.439 354.115 301.279 355.226 300.96 356.184C300.655 357.127 300.212 357.918 299.632 358.557C299.066 359.181 298.376 359.653 297.563 359.972C296.765 360.292 295.872 360.451 294.885 360.451H289.355V345.254ZM294.885 357.904C295.96 357.904 296.809 357.592 297.433 356.968C298.071 356.329 298.391 355.356 298.391 354.05V351.655C298.391 350.349 298.071 349.383 297.433 348.759C296.809 348.121 295.96 347.801 294.885 347.801H292.229V357.904H294.885Z" fill="white"/>
<path d="M523.727 310.571V297.304H531.824V298.711H525.324V303.158H531.444V304.565H525.324V309.165H531.824V310.571H523.727ZM533.44 310.571L537.07 305.629L533.592 300.764H535.379L537.869 304.413H537.926L540.511 300.764H542.202L538.743 305.515L542.278 310.571H540.492L537.945 306.732H537.888L535.132 310.571H533.44ZM544.29 300.764H545.811V302.36H545.887C546.14 301.739 546.508 301.283 546.989 300.992C547.483 300.687 548.073 300.535 548.757 300.535C549.365 300.535 549.916 300.656 550.41 300.897C550.905 301.137 551.323 301.479 551.665 301.923C552.02 302.366 552.286 302.905 552.463 303.539C552.653 304.172 552.748 304.882 552.748 305.667C552.748 306.453 552.653 307.163 552.463 307.796C552.286 308.43 552.02 308.968 551.665 309.412C551.323 309.855 550.905 310.197 550.41 310.438C549.916 310.679 549.365 310.799 548.757 310.799C547.426 310.799 546.47 310.191 545.887 308.975H545.811V314.373H544.29V300.764ZM548.339 309.431C549.2 309.431 549.878 309.165 550.372 308.633C550.867 308.088 551.114 307.378 551.114 306.504V304.831C551.114 303.957 550.867 303.253 550.372 302.721C549.878 302.176 549.2 301.904 548.339 301.904C547.997 301.904 547.667 301.955 547.35 302.056C547.046 302.145 546.78 302.271 546.552 302.436C546.324 302.601 546.14 302.804 546.001 303.044C545.874 303.272 545.811 303.52 545.811 303.786V307.435C545.811 307.752 545.874 308.037 546.001 308.29C546.14 308.531 546.324 308.74 546.552 308.918C546.78 309.082 547.046 309.209 547.35 309.298C547.667 309.386 547.997 309.431 548.339 309.431ZM556.076 298.464C555.747 298.464 555.506 298.388 555.354 298.236C555.214 298.071 555.145 297.862 555.145 297.608V297.361C555.145 297.108 555.214 296.905 555.354 296.753C555.506 296.588 555.747 296.506 556.076 296.506C556.406 296.506 556.64 296.588 556.779 296.753C556.931 296.905 557.007 297.108 557.007 297.361V297.608C557.007 297.862 556.931 298.071 556.779 298.236C556.64 298.388 556.406 298.464 556.076 298.464ZM555.316 300.764H556.836V310.571H555.316V300.764ZM560.068 310.571V300.764H561.588V302.569H561.683C561.861 302.1 562.177 301.682 562.634 301.315C563.09 300.947 563.717 300.764 564.515 300.764H565.105V302.284H564.211C563.388 302.284 562.741 302.442 562.273 302.759C561.816 303.063 561.588 303.45 561.588 303.919V310.571H560.068ZM573.277 300.764H574.778L570.388 312.852C570.274 313.144 570.16 313.384 570.046 313.574C569.932 313.777 569.792 313.936 569.627 314.05C569.463 314.164 569.254 314.246 569 314.297C568.759 314.347 568.462 314.373 568.107 314.373H567.328V313.042H568.867L569.608 310.951L565.94 300.764H567.461L569.818 307.435L570.274 309.032H570.369L570.901 307.435L573.277 300.764Z" fill="white"/>
<path d="M523.941 339.003V336.673H528.121V325.874H527.925L524.616 329.793L522.83 328.291L526.597 323.806H530.93V336.673L534.413 336.673V339.003H523.941ZM546.902 339.003H536.364V336.347L541.133 332.166C541.946 331.455 542.541 330.816 542.918 330.25C543.295 329.67 543.484 329.046 543.484 328.378V328.095C543.484 327.427 543.266 326.919 542.831 326.571C542.396 326.208 541.866 326.026 541.242 326.026C540.458 326.026 539.863 326.251 539.456 326.701C539.05 327.137 538.759 327.667 538.585 328.291L536.103 327.333C536.263 326.825 536.488 326.346 536.778 325.896C537.068 325.431 537.431 325.025 537.867 324.676C538.317 324.328 538.839 324.052 539.434 323.849C540.03 323.646 540.712 323.544 541.481 323.544C542.279 323.544 542.991 323.66 543.615 323.893C544.239 324.11 544.761 324.422 545.182 324.829C545.618 325.235 545.944 325.714 546.162 326.266C546.394 326.817 546.511 327.42 546.511 328.073C546.511 328.712 546.409 329.292 546.206 329.815C546.003 330.337 545.727 330.838 545.378 331.317C545.03 331.782 544.624 332.232 544.159 332.667C543.695 333.088 543.201 333.516 542.679 333.952L539.478 336.586H546.902V339.003ZM548.179 342.291L554.427 322.891H556.757L550.508 342.291H548.179ZM569.462 339.003H558.924V336.347L563.692 332.166C564.505 331.455 565.1 330.816 565.477 330.25C565.855 329.67 566.044 329.046 566.044 328.378V328.095C566.044 327.427 565.826 326.919 565.39 326.571C564.955 326.208 564.425 326.026 563.801 326.026C563.017 326.026 562.422 326.251 562.016 326.701C561.609 327.137 561.319 327.667 561.145 328.291L558.663 327.333C558.822 326.825 559.047 326.346 559.338 325.896C559.628 325.431 559.991 325.025 560.426 324.676C560.876 324.328 561.399 324.052 561.994 323.849C562.589 323.646 563.271 323.544 564.041 323.544C564.839 323.544 565.55 323.66 566.174 323.893C566.798 324.11 567.321 324.422 567.742 324.829C568.177 325.235 568.504 325.714 568.722 326.266C568.954 326.817 569.07 327.42 569.07 328.073C569.07 328.712 568.968 329.292 568.765 329.815C568.562 330.337 568.286 330.838 567.938 331.317C567.589 331.782 567.183 332.232 566.719 332.667C566.254 333.088 565.761 333.516 565.238 333.952L562.037 336.586H569.462V339.003ZM582.626 329.51C582.626 330.599 582.459 331.629 582.125 332.602C581.806 333.56 581.385 334.445 580.862 335.258C580.34 336.056 579.752 336.775 579.099 337.414C578.46 338.038 577.821 338.567 577.183 339.003H573.307C574.193 338.364 574.991 337.747 575.702 337.152C576.413 336.557 577.03 335.955 577.553 335.345C578.09 334.735 578.525 334.104 578.859 333.451C579.208 332.783 579.469 332.065 579.643 331.295L579.469 331.252C579.324 331.542 579.15 331.825 578.946 332.101C578.758 332.377 578.525 332.616 578.25 332.819C577.974 333.023 577.654 333.19 577.292 333.32C576.929 333.436 576.508 333.494 576.029 333.494C575.39 333.494 574.802 333.386 574.265 333.168C573.728 332.95 573.256 332.638 572.85 332.232C572.458 331.811 572.146 331.317 571.914 330.751C571.696 330.17 571.587 329.517 571.587 328.792C571.587 328.022 571.718 327.318 571.979 326.68C572.24 326.041 572.61 325.489 573.089 325.025C573.568 324.56 574.142 324.197 574.809 323.936C575.492 323.675 576.254 323.544 577.096 323.544C577.967 323.544 578.743 323.689 579.425 323.98C580.108 324.256 580.688 324.655 581.167 325.177C581.646 325.685 582.009 326.309 582.256 327.05C582.503 327.775 582.626 328.596 582.626 329.51ZM577.096 331.274C577.908 331.274 578.54 331.056 578.99 330.62C579.44 330.17 579.665 329.532 579.665 328.704V328.378C579.665 327.55 579.44 326.919 578.99 326.484C578.54 326.034 577.908 325.809 577.096 325.809C576.297 325.809 575.666 326.034 575.201 326.484C574.751 326.919 574.526 327.55 574.526 328.378V328.704C574.526 329.532 574.751 330.17 575.201 330.62C575.666 331.056 576.297 331.274 577.096 331.274Z" fill="white"/>
<path d="M94.8081 109.699C109.387 122.551 132.836 114.126 135.442 94.8164C122.538 99.9821 110.689 103.918 94.8081 109.699Z" fill="#E20004"/>
<path d="M96.6076 108.985C110.752 120.337 133.085 110.682 135.442 94.8164C124.568 99.1369 109.991 104.151 96.6076 108.985Z" fill="#E20004"/>
<path d="M118.816 87.2597C118.568 88.6126 109.551 90.0116 86.8055 95.3772C83.0213 72.6236 110.565 57.2495 128.307 73.915C120.615 74.5915 114.863 75.1294 110.565 75.6984C101.322 77.2358 99.0886 77.8481 99.0886 78.4658C99.0886 79.0192 103.669 80.1036 108.58 81.8481C113.869 83.7267 119.56 85.9683 118.816 87.2597Z" fill="#E20004"/>
<path d="M110.503 86.8835L86.495 92.3567C85.6886 72.5549 107.711 60.0711 124.275 70.7991C114.225 71.5094 108.208 72.2288 99.8328 74.3043C99.0883 74.4888 96.7245 75.3697 96.9171 76.6751C97.1097 77.9806 99.4605 78.8275 99.4605 78.8275L110.503 82.5788C110.503 82.5788 114.659 83.8702 114.659 84.9156C114.659 85.9611 110.503 86.8835 110.503 86.8835Z" fill="#E20004"/>
<path d="M134.821 84.9773C133.766 80.98 132.278 78.7046 129.858 75.5068C124.212 76.1634 121.055 76.5463 115.528 77.4132C115.528 77.4132 112.612 78.0282 112.612 78.5202C112.612 79.2581 115.528 79.9346 115.528 79.9346C123.056 81.7905 127.28 82.8735 134.821 84.9773Z" fill="#E20004"/>
<path d="M134.325 83.5004C133.435 80.1261 131.931 78.2053 129.89 75.5059C125.128 76.0601 122.464 76.3834 117.802 77.1151C117.802 77.1151 115.342 77.4075 115.342 78.0304C115.342 78.6534 117.802 79.2436 117.802 79.2436C124.336 80.807 128.016 81.6629 134.325 83.5004Z" fill="#E20004"/>
<path d="M571.331 102.236C576.43 95.6501 576.43 87.0499 571.331 80.4636M565.725 99.3333C569.462 94.4889 569.462 88.1929 565.725 83.3485M560.118 95.3416C561.987 92.9285 561.987 89.7714 560.118 87.3583" stroke="#FF0000" stroke-width="2.72159" stroke-linecap="round" stroke-linejoin="round"/>
<path d="M549.486 96.7934V85.907C549.486 76.8351 553.115 73.2063 562.187 73.2063H573.073C582.145 73.2063 585.774 76.8351 585.774 85.907V96.7934C585.774 105.865 582.145 109.494 573.073 109.494H562.187C553.115 109.494 549.486 105.865 549.486 96.7934Z" stroke="#FF0000" stroke-width="2.72159" stroke-linecap="round" stroke-linejoin="round"/>
</g>
</g>
<defs>
<filter id="filter0_d_534_346" x="0.869965" y="0.386719" width="637.521" height="407.275" filterUnits="userSpaceOnUse" color-interpolation-filters="sRGB">
<feFlood flood-opacity="0" result="BackgroundImageFix"/>
<feColorMatrix in="SourceAlpha" type="matrix" values="0 0 0 0 0 0 0 0 0 0 0 0 0 0 0 0 0 0 127 0" result="hardAlpha"/>
<feMorphology radius="5" operator="dilate" in="SourceAlpha" result="effect1_dropShadow_534_346"/>
<feOffset dx="-30"/>
<feGaussianBlur stdDeviation="12.5"/>
<feComposite in2="hardAlpha" operator="out"/>
<feColorMatrix type="matrix" values="0 0 0 0 0.177564 0 0 0 0 0 0 0 0 0 0 0 0 0 0.5 0"/>
<feBlend mode="normal" in2="BackgroundImageFix" result="effect1_dropShadow_534_346"/>
<feBlend mode="normal" in="SourceGraphic" in2="effect1_dropShadow_534_346" result="shape"/>
</filter>
<filter id="filter1_f_534_346" x="-104.834" y="-31.0802" width="860.213" height="663.936" filterUnits="userSpaceOnUse" color-interpolation-filters="sRGB">
<feFlood flood-opacity="0" result="BackgroundImageFix"/>
<feBlend mode="normal" in="SourceGraphic" in2="BackgroundImageFix" result="shape"/>
<feGaussianBlur stdDeviation="72.1016" result="effect1_foregroundBlur_534_346"/>
</filter>
<linearGradient id="paint0_linear_534_346" x1="325.272" y1="240.302" x2="325.272" y2="359.47" gradientUnits="userSpaceOnUse">
<stop stop-color="#500000"/>
<stop offset="1" stop-color="#E20004"/>
</linearGradient>
<clipPath id="clip0_534_346">
<rect x="60.87" y="30.3867" width="550.306" height="347.275" rx="27.2159" fill="white"/>
</clipPath>
</defs>
</svg>
