<svg width="50" height="50" viewBox="0 0 50 50" fill="none" xmlns="http://www.w3.org/2000/svg">
<path d="M8.80814 43.6985C23.3866 56.5512 46.8362 48.1262 49.4417 28.8164C36.5382 33.9821 24.6893 37.9179 8.80814 43.6985Z" fill="#E20004"/>
<path d="M10.6076 42.9855C24.7518 54.3374 47.0847 44.6824 49.4421 28.8164C38.5677 33.1369 23.9915 38.1506 10.6076 42.9855Z" fill="#E20004"/>
<path d="M32.816 21.2597C32.5679 22.6126 23.5511 24.0116 0.805512 29.3772C-2.97872 6.62361 24.5653 -8.75046 42.3075 7.91503C34.6151 8.59149 28.863 9.12944 24.5653 9.69842C15.3219 11.2358 13.0886 11.8481 13.0886 12.4658C13.0886 13.0192 17.6686 14.1036 22.5801 15.8481C27.8694 17.7267 33.5605 19.9683 32.816 21.2597Z" fill="#E20004"/>
<path d="M24.5029 20.8835L0.495037 26.3567C-0.31144 6.55488 21.7114 -5.92887 38.2749 4.79906C28.2251 5.50944 22.2076 6.22885 13.8328 8.30435C13.0883 8.48883 10.7245 9.3697 10.9171 10.6751C11.1097 11.9806 13.4605 12.8275 13.4605 12.8275L24.5029 16.5788C24.5029 16.5788 28.6593 17.8702 28.6593 18.9156C28.6593 19.9611 24.5029 20.8835 24.5029 20.8835Z" fill="#E20004"/>
<path d="M48.821 18.9773C47.7664 14.98 46.2776 12.7046 43.8582 9.50684C38.2123 10.1634 35.0553 10.5463 29.5279 11.4132C29.5279 11.4132 26.6122 12.0282 26.6122 12.5202C26.6122 13.2581 29.5279 13.9346 29.5279 13.9346C37.0563 15.7905 41.2796 16.8735 48.821 18.9773Z" fill="#E20004"/>
<path d="M48.325 17.5004C47.4354 14.1261 45.9313 12.2053 43.8903 9.50586C39.1276 10.0601 36.4645 10.3834 31.8016 11.1151C31.8016 11.1151 29.342 11.4075 29.342 12.0304C29.342 12.6534 31.8016 13.2436 31.8016 13.2436C38.3359 14.807 42.0164 15.6629 48.325 17.5004Z" fill="#E20004"/>
</svg>
