<svg width="19" height="14" viewBox="0 0 19 14" fill="none" xmlns="http://www.w3.org/2000/svg">
<path d="M8.21368 2.46533H5.78852C5.57412 2.46533 5.36851 2.5505 5.2169 2.7021C5.0653 2.8537 4.98013 3.05932 4.98013 3.27372V5.69888C4.98013 5.91328 5.0653 6.11889 5.2169 6.27049C5.36851 6.4221 5.57412 6.50727 5.78852 6.50727H8.21368C8.42808 6.50727 8.63369 6.4221 8.7853 6.27049C8.9369 6.11889 9.02207 5.91328 9.02207 5.69888V3.27372C9.02207 3.05932 8.9369 2.8537 8.7853 2.7021C8.63369 2.5505 8.42808 2.46533 8.21368 2.46533ZM8.21368 5.69888H5.78852V3.27372H8.21368V5.69888ZM8.21368 7.31565H5.78852C5.57412 7.31565 5.36851 7.40082 5.2169 7.55242C5.0653 7.70403 4.98013 7.90964 4.98013 8.12404L4.98013 10.5492C4.98013 10.7636 5.0653 10.9692 5.2169 11.1208C5.36851 11.2724 5.57412 11.3576 5.78852 11.3576H8.21368C8.42808 11.3576 8.63369 11.2724 8.7853 11.1208C8.9369 10.9692 9.02207 10.7636 9.02207 10.5492V8.12404C9.02207 7.90964 8.9369 7.70403 8.7853 7.55242C8.63369 7.40082 8.42808 7.31565 8.21368 7.31565ZM8.21368 10.5492H5.78852V8.12404H8.21368V10.5492ZM13.064 2.46533H10.6388C10.4244 2.46533 10.2188 2.5505 10.0672 2.7021C9.91562 2.8537 9.83045 3.05932 9.83045 3.27372V5.69888C9.83045 5.91328 9.91562 6.11889 10.0672 6.27049C10.2188 6.4221 10.4244 6.50727 10.6388 6.50727H13.064C13.2784 6.50727 13.484 6.4221 13.6356 6.27049C13.7872 6.11889 13.8724 5.91328 13.8724 5.69888V3.27372C13.8724 3.05932 13.7872 2.8537 13.6356 2.7021C13.484 2.5505 13.2784 2.46533 13.064 2.46533ZM13.064 5.69888H10.6388V3.27372H13.064V5.69888ZM9.83045 9.33662V7.71985C9.83045 7.61265 9.87304 7.50984 9.94884 7.43404C10.0246 7.35824 10.1274 7.31565 10.2346 7.31565C10.3418 7.31565 10.4447 7.35824 10.5205 7.43404C10.5963 7.50984 10.6388 7.61265 10.6388 7.71985V9.33662C10.6388 9.44382 10.5963 9.54663 10.5205 9.62243C10.4447 9.69823 10.3418 9.74081 10.2346 9.74081C10.1274 9.74081 10.0246 9.69823 9.94884 9.62243C9.87304 9.54663 9.83045 9.44382 9.83045 9.33662ZM13.8724 8.52823C13.8724 8.63543 13.8298 8.73824 13.754 8.81404C13.6782 8.88984 13.5754 8.93243 13.4682 8.93243H12.2556V10.9534C12.2556 11.0606 12.213 11.1634 12.1372 11.2392C12.0614 11.315 11.9586 11.3576 11.8514 11.3576H10.2346C10.1274 11.3576 10.0246 11.315 9.94884 11.2392C9.87304 11.1634 9.83045 11.0606 9.83045 10.9534C9.83045 10.8462 9.87304 10.7434 9.94884 10.6676C10.0246 10.5918 10.1274 10.5492 10.2346 10.5492H11.4472V7.71985C11.4472 7.61265 11.4898 7.50984 11.5656 7.43404C11.6414 7.35824 11.7442 7.31565 11.8514 7.31565C11.9586 7.31565 12.0614 7.35824 12.1372 7.43404C12.213 7.50984 12.2556 7.61265 12.2556 7.71985V8.12404H13.4682C13.5754 8.12404 13.6782 8.16662 13.754 8.24242C13.8298 8.31823 13.8724 8.42103 13.8724 8.52823ZM13.8724 10.145V10.9534C13.8724 11.0606 13.8298 11.1634 13.754 11.2392C13.6782 11.315 13.5754 11.3576 13.4682 11.3576C13.361 11.3576 13.2582 11.315 13.1824 11.2392C13.1066 11.1634 13.064 11.0606 13.064 10.9534V10.145C13.064 10.0378 13.1066 9.935 13.1824 9.8592C13.2582 9.7834 13.361 9.74081 13.4682 9.74081C13.5754 9.74081 13.6782 9.7834 13.754 9.8592C13.8298 9.935 13.8724 10.0378 13.8724 10.145Z" fill="white"/>
</svg>
