<svg width="533" height="248" viewBox="0 0 533 248" fill="none" xmlns="http://www.w3.org/2000/svg">
<path d="M762.814 96.7845C732.803 98.8948 713.906 102.244 713.906 102.244C646.224 115.6 569.818 102.024 530.246 87.8583C480.059 69.9393 412.755 33.887 412.755 33.887C341.815 0.287014 295.064 -3.62157 237.284 4.57592C180.192 12.6117 129.108 41.8983 92.991 87.2807L71.5425 113.165C49.1931 122.846 38.8444 122.081 20.8839 121.07C20.8839 121.07 9.50688 120.256 10.4715 128.382C11.2948 135.598 19.0267 139.447 19.0267 139.447C19.0267 139.447 35.1216 148.595 53.6734 149.032C36.8975 174.4 8.50421 202.569 8.50421 202.569C2.11298 208.138 1.79511 213.588 6.19513 216.549C13.04 221.261 20.5326 215.433 20.5326 215.433C38.664 203.257 56.34 185.74 67.1183 174.419C65.1428 195.076 65.5844 215.818 67.6051 236.481C68.3433 243.643 68.0541 248.287 77.1037 247.542C85.8779 246.861 87.0883 236.553 87.0883 236.553C87.0883 236.553 89.9805 200.936 91.9754 182.526C91.9754 182.526 105.072 240.754 104.352 238.308C105.986 244.026 110.121 249.882 118.803 247.262C125.728 245.199 124.849 234.656 124.849 234.656C124.849 234.656 122.556 206.649 116.492 179.6C122.211 197.142 129.221 214.308 138.305 230.406C142.084 237.217 142.504 239.007 151.361 234.965C158.112 231.854 155.054 222.549 155.054 222.549C155.054 222.549 149.093 205.209 144.929 186.866C142.75 177.282 147.199 168.392 153.126 160.536C157.513 154.784 160.235 151.529 164.022 146.935C164.423 146.478 164.687 146.053 165.088 145.596C165.752 144.713 166.554 143.798 167.324 142.746C212.668 87.7874 295.499 80.1702 363.259 116.624C386.204 128.957 460.449 170.134 512.405 187.855C567.281 206.561 645.192 209.542 697.255 202.978L762.984 96.8898L762.814 96.7845Z" fill="url(#paint0_linear_919_415)"/>
<path d="M11.2383 199.675C11.2383 199.675 18.0961 202.277 12.1789 207.081C7.52938 210.788 4.84425 212.654 2.69044 212.143C0.844312 211.705 -0.410439 210.692 2.32365 207.798C5.30074 204.702 11.2383 199.675 11.2383 199.675ZM66.8419 231.067C66.8419 231.067 73.2405 227.385 73.1324 234.964C73.1343 240.847 72.882 244.103 71.0959 245.466C69.5529 246.628 67.9858 247.069 67.461 242.979C66.9889 238.805 66.8419 231.067 66.8419 231.067ZM102.488 230.684C102.488 230.684 108.45 226.378 109.148 233.986C109.732 239.877 109.703 243.153 108.087 244.622C106.714 245.889 105.179 246.467 104.189 242.56C103.356 238.397 102.488 230.684 102.488 230.684ZM133.502 222.019C133.502 222.019 138.484 216.635 140.696 223.888C142.382 229.52 143.074 232.772 141.745 234.537C140.574 236.047 139.274 237.006 137.595 233.26C135.916 229.514 133.502 222.019 133.502 222.019Z" fill="#F6696B"/>
<path fill-rule="evenodd" clip-rule="evenodd" d="M168.802 152.132L95.1663 74.2761C94.0169 73.0934 92.1827 73.0159 91 74.1653C89.8173 75.3147 89.7397 77.1488 90.8891 78.3315L164.525 156.187C165.675 157.37 167.509 157.447 168.691 156.298C169.959 155.201 169.952 153.314 168.802 152.132ZM177.329 142.357L111.401 56.8073C110.442 55.5073 108.575 55.292 107.275 56.2511C105.975 57.2102 105.76 59.0766 106.719 60.3767L172.647 145.926C173.606 147.226 175.473 147.441 176.773 146.482C178.073 145.523 178.288 143.657 177.329 142.357Z" fill="#F56769"/>
<path d="M27.4998 121.404C27.4998 121.404 30.4649 128.77 22.3513 127.625C16.0193 126.643 12.497 125.872 11.4289 123.799C10.4255 122.001 10.2277 120.232 14.5316 120.31C19.1109 120.324 27.4998 121.404 27.4998 121.404Z" fill="#F6696B"/>
<defs>
<linearGradient id="paint0_linear_919_415" x1="214.077" y1="124.437" x2="753.89" y2="124.437" gradientUnits="userSpaceOnUse">
<stop stop-color="#771D1F"/>
<stop offset="0.283" stop-color="#901618"/>
<stop offset="0.696" stop-color="#9B1F21"/>
<stop offset="1" stop-color="#7D0F11"/>
</linearGradient>
</defs>
</svg>
