<svg width="128" height="149" viewBox="0 0 128 149" fill="none" xmlns="http://www.w3.org/2000/svg">
<path d="M127.736 62.0316C127.327 40.7118 124.357 24.9874 124.397 24.9729C123.162 22.5624 120.995 20.5465 118.344 19.5167C100.94 12.7669 83.826 6.32455 67.1414 0.827807C65.4358 0.26508 63.6374 0.26508 61.9347 0.827807C45.2531 6.31005 28.1421 12.7408 10.7411 19.4819C8.40023 20.3898 6.43648 22.0693 5.15729 24.1114C5.25592 24.123 1.58079 35.5951 0.954244 60.9323C0.58296 86.2724 3.73887 93.8634 3.63445 93.8721C5.34294 99.4414 8.53946 105.106 13.1196 110.867C18.2393 117.301 25.1573 123.946 33.5141 130.478C47.3473 141.336 60.293 147.824 60.8354 148.053C62.0102 148.628 63.2545 148.921 64.5366 148.918C65.8216 148.918 67.066 148.625 68.2379 148.048C68.7832 147.819 81.7433 141.309 95.5707 130.455C103.93 123.917 110.848 117.272 115.971 110.841C120.879 104.671 124.197 98.6176 125.801 92.6712C125.738 92.6626 128.058 83.3573 127.736 62.0345V62.0316ZM71.4228 78.6611V92.1694C71.4228 95.9751 68.3394 99.0585 64.5337 99.0614C60.7281 99.0614 57.6418 95.978 57.6418 92.1723V78.8525C52.6758 76.3841 49.2589 71.2615 49.2589 65.3413C49.2589 57.0106 56.0116 50.255 64.3423 50.255C72.673 50.255 79.4257 57.0077 79.4286 65.3384C79.4286 71.1107 76.1857 76.1259 71.4228 78.6611Z" fill="#F5ADAD"/>
</svg>
