<svg width="149" height="145" viewBox="0 0 149 145" fill="none" xmlns="http://www.w3.org/2000/svg">
<path d="M65.1986 6.5605C68.5295 -1.87674 80.4705 -1.87673 83.8014 6.5605L91.1736 25.2344C93.0895 30.0874 98.4146 32.6518 103.403 31.124L122.6 25.2448C131.273 22.5885 138.718 31.9243 134.198 39.789L124.195 57.1959C121.595 61.7196 122.911 67.4818 127.216 70.4296L143.781 81.7723C151.265 86.8972 148.608 98.5387 139.641 99.9087L119.795 102.941C114.637 103.729 110.952 108.35 111.332 113.553L112.792 133.577C113.452 142.624 102.693 147.805 96.0315 141.648L81.287 128.022C77.4552 124.481 71.5448 124.481 67.713 128.022L52.9685 141.648C46.3067 147.805 35.5483 142.624 36.208 133.577L37.6682 113.553C38.0476 108.35 34.3626 103.729 29.2049 102.941L9.35871 99.9087C0.391815 98.5387 -2.26529 86.8972 5.2192 81.7723L21.7844 70.4296C26.0895 67.4818 27.4046 61.7196 24.805 57.1959L14.8016 39.789C10.2819 31.9243 17.727 22.5885 26.4003 25.2448L45.5966 31.124C50.5854 32.6518 55.9105 30.0874 57.8264 25.2344L65.1986 6.5605Z" fill="url(#paint0_linear_560_490)"/>
<defs>
<linearGradient id="paint0_linear_560_490" x1="142" y1="28" x2="4.5" y2="143" gradientUnits="userSpaceOnUse">
<stop stop-color="#E20004"/>
<stop offset="1" stop-color="#FF9192"/>
</linearGradient>
</defs>
</svg>
