<svg width="307" height="126" viewBox="0 0 307 126" fill="none" xmlns="http://www.w3.org/2000/svg">
<path d="M280.642 28.5544C280.642 35.5998 286.353 41.3113 293.398 41.3113C300.444 41.3113 306.155 47.0227 306.155 54.0681V110.615C306.155 118.899 299.44 125.615 291.155 125.615H15C6.71572 125.615 0 118.899 0 110.615V54.0676C0 47.0225 5.71121 41.3113 12.7563 41.3113C19.8015 41.3113 25.5127 35.6001 25.5127 28.5549V15.2693C25.5127 6.98502 32.2284 0.269287 40.5127 0.269287H265.642C273.926 0.269287 280.642 6.98502 280.642 15.2693V28.5544Z" fill="white"/>
<path d="M280.642 28.5544C280.642 35.5998 286.353 41.3113 293.398 41.3113C300.444 41.3113 306.155 47.0227 306.155 54.0681V110.615C306.155 118.899 299.44 125.615 291.155 125.615H15C6.71572 125.615 0 118.899 0 110.615V54.0676C0 47.0225 5.71121 41.3113 12.7563 41.3113C19.8015 41.3113 25.5127 35.6001 25.5127 28.5549V15.2693C25.5127 6.98502 32.2284 0.269287 40.5127 0.269287H265.642C273.926 0.269287 280.642 6.98502 280.642 15.2693V28.5544Z" fill="white"/>
<path d="M280.642 28.5544C280.642 35.5998 286.353 41.3113 293.398 41.3113C300.444 41.3113 306.155 47.0227 306.155 54.0681V110.615C306.155 118.899 299.44 125.615 291.155 125.615H15C6.71572 125.615 0 118.899 0 110.615V54.0676C0 47.0225 5.71121 41.3113 12.7563 41.3113C19.8015 41.3113 25.5127 35.6001 25.5127 28.5549V15.2693C25.5127 6.98502 32.2284 0.269287 40.5127 0.269287H265.642C273.926 0.269287 280.642 6.98502 280.642 15.2693V28.5544Z" fill="white"/>
</svg>
