<svg width="315" height="214" viewBox="0 0 315 214" fill="none" xmlns="http://www.w3.org/2000/svg">
<path d="M330.666 40.149C330.666 53.9973 341.892 65.2236 355.741 65.2236H366.183C380.032 65.2236 391.258 76.4499 391.258 90.2983V115.374C391.258 129.222 380.032 140.448 366.183 140.448H275.925C262.077 140.448 250.851 151.675 250.851 165.523V188.925C250.851 202.774 239.624 214 225.776 214H-50.7611C-64.6095 214 -75.8358 202.774 -75.8358 188.925V163.851C-75.8358 150.003 -64.6095 138.776 -50.7611 138.776H22.7908C36.6391 138.776 47.8654 127.55 47.8654 113.702V90.2983C47.8654 76.4499 36.6391 65.2236 22.7908 65.2236H-50.7611C-64.6095 65.2236 -75.8358 53.9973 -75.8358 40.149V15.0746C-75.8358 1.22629 -64.6095 -10 -50.7611 -10H305.592C319.44 -10 330.666 1.22629 330.666 15.0746V40.149Z" fill="white"/>
</svg>
