<svg width="25" height="26" viewBox="0 0 25 26" fill="none" xmlns="http://www.w3.org/2000/svg">
<path d="M15.2987 2.72119V12.9102C15.2987 14.031 14.3817 14.948 13.2609 14.948H2.05293L2.05293 6.79681C2.05293 4.54503 3.87677 2.72119 6.12855 2.72119H15.2987Z" stroke="#E20004" stroke-width="1.52836" stroke-linecap="round" stroke-linejoin="round"/>
<path d="M22.431 14.9485V18.0052C22.431 19.6966 21.0657 21.0619 19.3743 21.0619H18.3554C18.3554 19.9411 17.4384 19.0241 16.3176 19.0241C15.1968 19.0241 14.2798 19.9411 14.2798 21.0619H10.2041C10.2041 19.9411 9.28712 19.0241 8.16633 19.0241C7.04553 19.0241 6.12852 19.9411 6.12852 21.0619H5.10961C3.41823 21.0619 2.0529 19.6966 2.0529 18.0052V14.9485H13.2608C14.3816 14.9485 15.2987 14.0314 15.2987 12.9106V5.77832H17.1734C17.9071 5.77832 18.5795 6.17569 18.9463 6.80741L20.6887 9.85394H19.3743C18.8139 9.85394 18.3554 10.3124 18.3554 10.8728V13.9296C18.3554 14.49 18.8139 14.9485 19.3743 14.9485H22.431Z" stroke="#E20004" stroke-width="1.52836" stroke-linecap="round" stroke-linejoin="round"/>
<path d="M8.16641 23.0993C8.70687 23.0993 9.22519 22.8846 9.60736 22.5024C9.98952 22.1202 10.2042 21.6019 10.2042 21.0615C10.2042 20.521 9.98952 20.0027 9.60736 19.6205C9.22519 19.2383 8.70687 19.0237 8.16641 19.0237C7.62595 19.0237 7.10762 19.2383 6.72546 19.6205C6.3433 20.0027 6.1286 20.521 6.1286 21.0615C6.1286 21.6019 6.3433 22.1202 6.72546 22.5024C7.10762 22.8846 7.62595 23.0993 8.16641 23.0993ZM16.3176 23.0993C16.8581 23.0993 17.3764 22.8846 17.7586 22.5024C18.1408 22.1202 18.3555 21.6019 18.3555 21.0615C18.3555 20.521 18.1408 20.0027 17.7586 19.6205C17.3764 19.2383 16.8581 19.0237 16.3176 19.0237C15.7772 19.0237 15.2589 19.2383 14.8767 19.6205C14.4945 20.0027 14.2798 20.521 14.2798 21.0615C14.2798 21.6019 14.4945 22.1202 14.8767 22.5024C15.2589 22.8846 15.7772 23.0993 16.3176 23.0993ZM22.4311 12.9102V14.948H19.3744C18.814 14.948 18.3555 14.4895 18.3555 13.9291V10.8724C18.3555 10.312 18.814 9.85352 19.3744 9.85352H20.6887L22.4311 12.9102Z" stroke="#E20004" stroke-width="1.52836" stroke-linecap="round" stroke-linejoin="round"/>
</svg>
