<svg width="176" height="132" viewBox="0 0 176 132" fill="none" xmlns="http://www.w3.org/2000/svg">
<path d="M174.963 0.802246V63.1141C174.963 65.3201 173.174 67.1084 170.968 67.1084H87.2868M1.60802 0.802246V63.1141C1.60802 65.3201 3.39635 67.1084 5.60237 67.1084H87.2868M87.2868 67.1084V0.802246M87.2868 67.1084V131.817" stroke="#DEDEDE" stroke-width="1.02401" stroke-linejoin="round" stroke-dasharray="2.05 2.05"/>
<rect x="65.917" y="44.3404" width="43.139" height="43.139" rx="6.18677" fill="white"/>
<rect x="65.917" y="44.3404" width="43.139" height="43.139" rx="6.18677" stroke="#DEDEDE" stroke-width="0.79887"/>
<path d="M79.1915 75.2845C86.3235 81.5723 97.7955 77.4506 99.0702 68.0039C92.7575 70.5311 86.9609 72.4565 79.1915 75.2845Z" fill="#E20004"/>
<path d="M80.0716 74.9357C86.9912 80.4892 97.9169 75.7659 99.0701 68.0039C93.7502 70.1176 86.6192 72.5704 80.0716 74.9357Z" fill="#E20004"/>
<path d="M90.9366 64.3073C90.8152 64.9692 86.404 65.6535 75.2765 68.2785C73.4252 57.147 86.9002 49.6258 95.58 57.7788C91.8167 58.1098 89.0027 58.3729 86.9002 58.6513C82.3782 59.4034 81.2856 59.7029 81.2856 60.0051C81.2856 60.2759 83.5262 60.8064 85.929 61.6598C88.5166 62.5789 91.3008 63.6755 90.9366 64.3073Z" fill="#E20004"/>
<path d="M86.8698 64.1238L75.1247 66.8013C74.7302 57.1139 85.5042 51.0067 93.6073 56.255C88.6908 56.6025 85.7469 56.9544 81.6498 57.9698C81.2856 58.0601 80.1292 58.491 80.2234 59.1296C80.3176 59.7683 81.4677 60.1826 81.4677 60.1826L86.8698 62.0178C86.8698 62.0178 88.9032 62.6496 88.9032 63.1611C88.9032 63.6725 86.8698 64.1238 86.8698 64.1238Z" fill="#E20004"/>
<path d="M98.7668 63.1912C98.2509 61.2357 97.5225 60.1225 96.3389 58.5581C93.5768 58.8793 92.0324 59.0666 89.3282 59.4907C89.3282 59.4907 87.9018 59.7916 87.9018 60.0323C87.9018 60.3933 89.3282 60.7242 89.3282 60.7242C93.0113 61.6322 95.0774 62.162 98.7668 63.1912Z" fill="#E20004"/>
<path d="M98.5236 62.4692C98.0884 60.8184 97.3526 59.8787 96.3541 58.5581C94.0241 58.8292 92.7212 58.9874 90.4401 59.3454C90.4401 59.3454 89.2368 59.4884 89.2368 59.7932C89.2368 60.0979 90.4401 60.3867 90.4401 60.3867C93.6368 61.1515 95.4374 61.5702 98.5236 62.4692Z" fill="#E20004"/>
<line x1="1.60801" y1="42.3433" x2="1.60801" y2="54.3263" stroke="url(#paint0_linear_870_416)" stroke-width="1.59774"/>
<line x1="87.087" y1="3.99756" x2="87.087" y2="18.3772" stroke="url(#paint1_linear_870_416)" stroke-width="1.59774"/>
<line x1="135.019" y1="67.1079" x2="150.198" y2="67.1079" stroke="url(#paint2_linear_870_416)" stroke-width="1.59774"/>
<line x1="87.087" y1="115.04" x2="87.087" y2="124.626" stroke="url(#paint3_linear_870_416)" stroke-width="1.59774"/>
<defs>
<linearGradient id="paint0_linear_870_416" x1="0.309143" y1="42.3433" x2="0.309143" y2="54.3263" gradientUnits="userSpaceOnUse">
<stop stop-color="white"/>
<stop offset="0.52" stop-color="#E20004"/>
<stop offset="1" stop-color="white"/>
</linearGradient>
<linearGradient id="paint1_linear_870_416" x1="85.7881" y1="3.99756" x2="85.7881" y2="18.3772" gradientUnits="userSpaceOnUse">
<stop stop-color="white"/>
<stop offset="0.52" stop-color="#E20004"/>
<stop offset="1" stop-color="white"/>
</linearGradient>
<linearGradient id="paint2_linear_870_416" x1="135.019" y1="68.4067" x2="150.198" y2="68.4067" gradientUnits="userSpaceOnUse">
<stop stop-color="white"/>
<stop offset="0.52" stop-color="#E20004"/>
<stop offset="1" stop-color="white"/>
</linearGradient>
<linearGradient id="paint3_linear_870_416" x1="85.7881" y1="115.04" x2="85.7881" y2="124.626" gradientUnits="userSpaceOnUse">
<stop stop-color="white"/>
<stop offset="0.52" stop-color="#E20004"/>
<stop offset="1" stop-color="white"/>
</linearGradient>
</defs>
</svg>
